<?xml version="1.0" encoding="utf-8"?>
<!-- Generator: Adobe Illustrator 19.0.0, SVG Export Plug-In . SVG Version: 6.00 Build 0)  -->
<svg version="1.1" id="Layer_1" xmlns="http://www.w3.org/2000/svg" xmlns:xlink="http://www.w3.org/1999/xlink" x="0px" y="0px"
	 viewBox="0 0 1600 1064" style="enable-background:new 0 0 1600 1064;" xml:space="preserve">
<style type="text/css">
	.st0{opacity:0.1;}
</style>
<g id="XMLID_1_" class="st0">
	<path id="XMLID_3_" d="M-1701.7,170.8c-4,6-8.5,12.1-13.6,18.5c-5,6.3-10.7,12.6-16.9,18.8c5.8,0.9,12.6,1.8,20.4,2.6
		c7.8,0.8,15.8,1.4,24,1.8c8.2,0.4,16.3,0.7,24.3,1.1c7.9,0.3,15,0.5,21.2,0.5c4.8,0,6.8,2.8,6.1,8.3l-5.9,33.8
		c-0.5,2.7-1.6,4.4-3.3,5.2c-1.7,0.8-4,1.3-7.1,1.4c-8.2-0.1-17.4-0.6-27.5-1.4c-10.2-0.8-20.7-1.8-31.5-3
		c-10.8-1.2-21.7-2.6-32.6-4.3c-10.9-1.6-21.4-3.5-31.5-5.8c-16.9,13.7-34.7,26.5-53.5,38.7c-18.8,12.1-37.6,22.5-56.5,31.3
		c-3.6,1.6-6,2.3-7.4,1.9c-1.4-0.4-2.7-1.6-4-3.5l-19-28.2c-1.3-2.2-1.9-4.1-1.7-5.5c0.2-1.5,2.1-3.1,5.6-5.1
		c12.3-6.4,25-13.6,38-21.4c13-7.8,25.5-16,37.5-24.5c12-8.5,23.4-17.1,34-26c10.7-8.9,19.9-17.6,27.9-26.1c4-4.6,5.5-7.6,4.3-9.2
		c-1.2-1.6-4.1-1.8-8.6-0.8l-125.3,28.2c-2.9,0.7-5,0.6-6.1-0.1c-1.2-0.7-2.1-2.7-2.8-5.9l-6.7-29.7c-0.7-2.9-0.6-4.9,0.1-5.9
		c0.8-1,2.6-1.9,5.6-2.5l181.5-40.9c13.7-3.1,23.8-3.2,30.3-0.3c6.6,2.9,10.6,7.8,12.2,14.8c1.2,5.4,0.7,12.1-1.4,20.1
		C-1693.5,155.4-1697,163.3-1701.7,170.8z"/>
	<path id="XMLID_5_" d="M-1386.7,205.3l-189.6,42.7c-12,2.7-20.6,2.3-25.6-1.2s-8.8-10.8-11.2-21.7l-23.2-102.8
		c-2.7-11.8-2.1-19.8,1.8-24c3.8-4.2,11.2-7.6,22.2-10.1l181.9-41c5.4-1.2,8.6,0.9,9.8,6.2l6.7,29.7c1.2,5.4-0.9,8.6-6.2,9.8
		l-151.8,34.2c-2.9,0.7-4.1,2.5-3.4,5.4l13.3,59c0.7,3.2,2.4,4.5,5.1,3.9l158.2-35.7c5.9-1.3,9.4,0.4,10.5,5.2l6.8,30.1
		c0.8,3.8,0.9,6.2,0.2,7.3C-1382,203.7-1383.8,204.6-1386.7,205.3z"/>
	<path id="XMLID_7_" d="M-1111.3,142.8l-39.4,8.9c-5.9,1.3-9.4-0.7-10.6-6l-22.7-100.8c-0.9-4-3.2-5.6-7-4.8l-155,34.9
		c-2.1,0.5-4.1,0.5-5.9,0.1c-1.8-0.4-3-2.1-3.7-5.1l-7.1-31.3c-0.8-3.7-0.5-6.1,0.9-7.2c1.5-1,3.2-1.8,5.4-2.3l188.4-42.5
		c5.9-1.3,10.7-1.9,14.6-1.8c3.8,0.1,7,1.2,9.6,3.1c2.6,2,4.7,4.8,6.3,8.5c1.7,3.7,3.2,8.4,4.4,14l27.6,122.5
		C-1104.3,138.4-1106.2,141.7-1111.3,142.8z"/>
	<path id="XMLID_9_" d="M-1060,132.9c-3.5,1.9-5.9,2.7-7.2,2.5c-1.3-0.3-2.6-1.4-3.9-3.3l-21.3-31.1c-2.6-3.9-1.2-7.3,4-10.2
		c16.6-8.8,30.6-18.8,42-29.9c11.4-11.2,20.6-22.9,27.5-35.3c6.9-12.4,11.6-25.1,14.2-38.2c2.5-13.1,3.2-26.1,2-39.1
		c0-1.4,0.5-2.9,1.7-4.6c1.2-1.7,2.8-2.7,5-3.2l41.8-7.3c4.4-0.4,6.9,2.5,7.5,8.9c0.6,9.1,0.9,17.8,0.8,26
		c6.8,9.2,15.2,17.4,25.2,24.7c9.9,7.3,20.7,13.6,32.3,18.7c11.6,5.1,23.5,9,35.9,11.5c12.4,2.6,24.3,3.7,35.8,3.3
		c3.9,0,6.2,0.8,6.9,2.5c0.7,1.7,0.8,3.7,0.5,6l-5.9,35.5c-0.7,4.4-4.4,6.5-11.2,6.3c-11-0.1-22.4-1.3-34.4-3.6
		c-11.9-2.4-23.7-5.8-35.3-10.4c-11.6-4.6-22.7-10.1-33.5-16.5c-10.7-6.4-20.3-13.5-28.8-21.1c-8.6,21.6-21.3,41.8-38.1,60.5
		C-1013.4,104-1034.5,119.9-1060,132.9z"/>
	<path id="XMLID_11_" d="M-580.7,18.2L-744.2,55c-6.7,1.5-12.1,2.3-16.3,2.4c-4.2,0.1-7.7-0.7-10.5-2.5c-2.8-1.8-5-4.4-6.7-8
		c-1.6-3.6-3.1-8.3-4.5-14.2l-21.7-96.4c-2.7-11.8-2.4-20.1,0.7-25.1c3.1-4.9,10.3-8.6,21.5-11.2l163.9-36.9
		c6.7-1.5,12.2-2.2,16.4-2.2c4.2,0,7.7,0.9,10.5,2.7c2.8,1.8,5,4.5,6.7,8.2c1.7,3.7,3.2,8.5,4.5,14.4l21.7,96.4
		c1.3,5.9,1.9,10.8,1.9,14.8c-0.1,4-1,7.3-2.8,9.9c-1.8,2.7-4.5,4.8-8,6.5C-570.5,15.4-575.1,16.9-580.7,18.2z M-630.9-81.1
		c-0.7-3.2-2.6-4.5-5.5-3.8L-740-61.6c-3.5,0.8-4.8,2.9-4,6.4l12.3,54.6c0.7,3.2,2.8,4.4,6.3,3.6l103.2-23.3
		c1.9-0.4,3.1-0.9,3.7-1.5c0.6-0.6,0.6-2.2,0-4.8L-630.9-81.1z"/>
	<path id="XMLID_14_" d="M-282.5-48.2L-472.1-5.5c-5.6,1.3-10.3,1.8-14.2,1.7c-3.8-0.1-7-1-9.5-2.7c-2.5-1.7-4.6-4.3-6.2-7.9
		c-1.6-3.6-3.1-8.2-4.4-13.8l-27.3-121.3c-1.3-5.6,0.8-9,6.1-10.2l39.4-8.9c5.6-1.3,9.1,0.9,10.3,6.5l22.2,98.4
		c0.9,4,3.4,5.6,7.4,4.7l155.4-35c2.1-0.5,4.2-0.4,6.1,0.1c2,0.6,3.3,2.3,3.9,5.2l7.1,31.3c0.8,3.8,0.5,6.1-1.2,7
		C-278.5-49.4-280.4-48.7-282.5-48.2z"/>
	<path id="XMLID_16_" d="M-12.2-191.4c2.7,11.8,2.4,23.4-0.8,34.8c-3.2,11.4-9,22.1-17.3,32c-8.3,9.9-19.1,18.7-32.5,26.3
		c-13.3,7.6-28.8,13.5-46.5,17.4c-19,4.3-36.2,5.9-51.4,4.8c-15.3-1.1-28.6-4.3-40-9.8c-11.4-5.5-20.6-12.8-27.8-22
		c-7.1-9.2-12-19.7-14.7-31.5c-2.6-11.5-2.6-23-0.1-34.4c2.5-11.4,7.7-22.1,15.6-32c7.9-9.9,18.5-18.7,31.8-26.4
		c13.3-7.6,29.5-13.6,48.5-17.9c17.7-4,34.1-5.4,49.4-4.4c15.3,1.1,28.8,4.3,40.6,9.6c11.8,5.4,21.5,12.6,29.4,21.7
		C-20.2-214-14.9-203.5-12.2-191.4z M-68.2-177.5c-2.5-11.2-10.1-19.6-22.5-25.1c-12.5-5.5-28-6.1-46.4-2
		c-19.8,4.5-33.6,11.7-41.5,21.8c-7.9,10.1-10.5,20.7-8,32c2.3,10.2,9.2,18,20.7,23.6c11.5,5.6,27.1,6.1,46.6,1.7
		c9.1-2.1,17.1-5,24-8.8c6.9-3.8,12.5-8,17-12.7c4.4-4.7,7.5-9.6,9.3-15C-67.3-167.2-67-172.4-68.2-177.5z"/>
	<path id="XMLID_19_" d="M278.6-151.9L84.2-108.1c-5.9,1.3-10.7,1.9-14.6,1.8c-3.8-0.1-7-1-9.4-2.5c-2.5-1.6-4.4-3.9-5.8-7.1
		c-1.4-3.2-2.7-7.2-3.8-12l-12.9-57.4c-1.1-5.1-1.7-9.3-1.8-12.7c-0.1-3.4,0.7-6.3,2.3-8.7c1.6-2.5,4-4.5,7.3-6.1
		c3.3-1.6,7.9-3,13.8-4.4l134.1-30.2c2.4-0.5,3.3-2.3,2.6-5.2l-4.4-19.7c-0.7-3.2-2.4-4.5-5.1-3.9L32.6-241.6
		c-2.9,0.7-5.1,0.6-6.6-0.2c-1.4-0.8-2.5-2.8-3.3-6l-6.1-26.9c-1.1-5.1,1-8.2,6.3-9.4l183.9-41.5c12-2.7,20.2-2.5,24.6,0.6
		c4.4,3.1,7.6,9.5,9.8,19.1l13.6,60.2c1.2,5.4,1.8,9.8,1.9,13.3c0.1,3.5-0.6,6.4-2.1,8.7c-1.5,2.3-4,4.2-7.6,5.7
		c-3.6,1.5-8.3,2.9-14.2,4.3l-132.9,30c-2.7,0.6-3.7,2.2-3.1,4.9l4,17.7c0.7,3,2.5,4.1,5.4,3.4l162.3-36.6c2.9-0.7,5.2-0.7,6.7-0.2
		c1.5,0.5,2.7,2.5,3.5,6l6.1,26.9C286-156.3,283.9-153.1,278.6-151.9z"/>
	<path id="XMLID_21_" d="M523-344.5l-210.4,47.4c-5.6,1.3-9.1-1-10.4-6.9l-5-22.1c-1.3-5.9,1-9.5,6.8-10.8l210-47.3
		c5.9-1.3,9.5,1,10.8,6.8l5.1,22.5C531.2-349.3,528.9-345.8,523-344.5z M459.7-385.5L355.3-362c-2.1,0.5-4.2,0.4-6.2-0.3
		c-2-0.7-3.4-2.9-4.2-6.6l-5.1-22.5c-0.8-3.7-0.5-6.3,1-7.6c1.5-1.3,3.4-2.2,5.5-2.7l104.4-23.5c5.9-1.3,9.5,1,10.8,6.8l4.9,21.7
		c0.7,3.2,0.7,5.7,0,7.4C465.7-387.7,463.5-386.4,459.7-385.5z M449.6-190.8c-11.8,2.7-23.3,3.6-34.6,2.9
		c-11.3-0.7-21.5-2.8-30.8-6.4c-9.2-3.5-17-8.5-23.4-14.8c-6.3-6.3-10.5-13.9-12.5-22.7s-1.4-17.5,1.8-25.9
		c3.2-8.4,8.2-16.2,15-23.2c6.9-7,15.3-13.2,25.4-18.6c10-5.4,21-9.4,32.7-12c11.8-2.7,23.4-3.7,34.7-3.2
		c11.4,0.5,21.7,2.5,30.9,5.9c9.2,3.4,17.1,8.3,23.5,14.5c6.5,6.3,10.7,13.8,12.7,22.7s1.5,17.5-1.5,26.1c-3,8.6-8,16.4-14.9,23.6
		c-7,7.2-15.5,13.5-25.7,18.9C472.7-197.6,461.6-193.5,449.6-190.8z M431.9-272.9c-12,2.7-20.6,7-25.8,13c-5.1,5.9-7.1,11.5-6,16.5
		c1.3,5.6,5.6,10.1,13.1,13.3c7.5,3.2,17,3.6,28.5,1c11.8-2.7,20.3-7,25.5-13.1c5.2-6.1,7.2-12,6-17.6c-1.1-5.1-5.3-9.2-12.5-12.4
		C453.6-275.4,444-275.6,431.9-272.9z"/>
	<path id="XMLID_26_" d="M831.3-290.8l-39.4,8.9c-5.9,1.3-9.4-0.7-10.6-6l-9.7-43c-14.7,4.7-28.5,9-41.4,12.7
		c-12.9,3.8-25.9,7.4-38.9,10.9c-13,3.5-26.6,7-40.7,10.4c-14.1,3.5-30,7.2-47.7,11.2c-2.9,0.7-5,0.5-6.2-0.5c-1.2-1-2.1-3-2.8-5.9
		l-6.6-29.3c-1.1-4.8,0.9-7.8,6-8.9c16.9-3.8,32-7.3,45.5-10.5c13.5-3.2,26.6-6.3,39.2-9.5c12.7-3.1,25.7-6.6,39-10.3
		c13.4-3.7,28.4-8,45-12.9l-5.4-24.1c-0.9-4-3.2-5.6-7-4.8l-159.8,36c-2.1,0.5-4.1,0.5-5.9,0.1c-1.8-0.4-3-2.1-3.7-5.1l-7-30.9
		c-0.8-3.5-0.4-5.7,1-6.8c1.5-1,3.3-1.8,5.4-2.3l193.2-43.5c5.9-1.3,10.7-1.9,14.6-1.8c3.8,0.1,7,1.2,9.6,3.1c2.6,2,4.7,4.8,6.3,8.5
		c1.7,3.7,3.2,8.4,4.4,14l29.4,130.5C838.4-295.2,836.4-291.9,831.3-290.8z"/>
	<path id="XMLID_28_" d="M1099.8-346.7l-181.9,41c-5.9,1.3-10.8,2-14.7,2.1c-3.9,0-7.2-0.7-9.8-2.2c-2.6-1.5-4.7-3.9-6.3-7.2
		c-1.6-3.3-3-7.8-4.3-13.4l-26.4-117.3c-2.5-11.2-2.1-19.1,1.2-23.7c3.3-4.5,10.5-8.1,21.5-10.5l179.9-40.5c2.9-0.7,5.1-0.6,6.6,0.2
		c1.4,0.8,2.5,2.7,3.2,5.6l6.2,27.3c0.7,2.9,0.5,5.1-0.4,6.4c-1,1.3-2.9,2.3-5.9,3l-147,33.1c-4.3,1-6,3.3-5.2,7.1l3.8,16.9
		l149.4-33.7c2.7-0.6,4.8-0.6,6.3,0c1.5,0.6,2.7,2.6,3.4,5.8l6.1,26.9c0.8,3.8,0.6,6.1-0.8,6.9c-1.4,0.9-3.2,1.6-5.6,2.1
		l-149.4,33.7l3.9,17.3c0.5,2.1,1.2,3.5,2.2,4.1c1,0.6,2.8,0.6,5.5,0l149-33.6c3.5-0.8,6-1,7.5-0.6c1.5,0.4,2.6,2.3,3.4,5.8l6,26.5
		c0.8,3.8,0.6,6.3-0.8,7.8C1104.9-348.4,1102.7-347.3,1099.8-346.7z"/>
	<path id="XMLID_30_" d="M1148.1-360.5c-3.6,1.4-6.1,2.1-7.5,2.1c-1.4,0-3.1-1.3-5.1-3.9l-15.6-26c-2.2-3.7-2.8-6.3-1.6-7.9
		c1.2-1.5,3.3-2.9,6.4-4.2c15.5-6,30-12,43.4-18s26.1-12,37.9-18c11.9-6,23.1-12.4,33.7-19c10.6-6.6,21-13.6,31.1-20.9
		c3.7-2.5,5.6-4.6,5.8-6.2c0.2-1.6-2.4-1.8-7.7-0.6L1143-454.7c-4.6,1-7.3-0.7-8.4-5.3l-6.2-27.7c-0.7-2.9-0.7-5-0.1-6.1
		c0.6-1.1,2.4-2,5.3-2.7l187.2-42.2c13.1-3,22.9-3.1,29.2-0.5c6.4,2.6,10.3,7.5,11.9,14.4c1.9,8.6-0.2,18.2-6.4,28.9
		c-6.2,10.7-15.6,21.8-28.1,33.4c13.6,0.6,27.2,0.6,40.5,0.1c13.4-0.5,26-1.2,37.9-2.2c3.1-0.1,5,0.5,5.9,1.8
		c0.9,1.4,1.2,3.3,0.9,5.9l-3.5,29.5c-0.3,2.6-1,4.4-2.2,5.3c-1.2,1-3.4,1.6-6.8,1.7c-8.2,1-17.3,1.7-27.4,2
		c-10.1,0.3-20.7,0.4-31.8,0.4c-11.1,0-22.5-0.3-34.2-0.9c-11.7-0.6-23.1-1.5-34.3-2.6c-17.8,11-37.2,21.7-58.2,32.1
		C1193.2-379,1171.2-369.3,1148.1-360.5z M1292.2-550.8l-109.6,24.7c-2.1,0.5-4,0.5-5.7,0c-1.7-0.5-2.9-2.6-3.7-6.3l-6.1-26.9
		c-0.7-2.9-0.4-5,0.9-6.3c1.3-1.3,3-2.1,5.1-2.6l109.6-24.7c5.1-1.1,8.2,0.8,9.4,5.9l5.9,26.1
		C1299.2-555.3,1297.3-551.9,1292.2-550.8z"/>
	<path id="XMLID_33_" d="M1673.5-484.4l-243.8,54.9c-6.2,1.4-9.9-0.9-11.2-6.8l-6.1-26.9c-1.3-5.6,1.2-9.1,7.3-10.5l42.6-9.6
		l-16.4-72.7l-33.7,7.6c-6.2,1.4-9.9-0.9-11.2-6.8l-6-26.5c-0.7-3.2-0.4-5.7,1.1-7.4c1.4-1.7,3.5-2.9,6.2-3.5l226.1-51
		c5.9-1.3,9.5,1,10.8,6.8l6.2,27.3c1.2,5.4-1.1,8.7-7,10l-33.3,7.5l16.4,72.7l42.2-9.5c5.9-1.3,9.5,0.8,10.7,6.4l6.2,27.3
		C1681.7-489.2,1679.4-485.7,1673.5-484.4z M1516.9-495.5l50.2-11.3l-16.4-72.7l-50.2,11.3L1516.9-495.5z"/>
	<path id="XMLID_36_" d="M1908.2-536.4l-159.8,36c-6.4,1.4-11.7,2.2-15.9,2.3c-4.2,0.1-7.7-0.6-10.4-2.1c-2.7-1.5-5-4-6.8-7.5
		c-1.8-3.5-3.4-8.4-4.8-14.5L1681-653.2c-1.1-4.8,0.9-7.8,6-8.9l39.8-9c2.9-0.7,5.1-0.7,6.5,0c1.4,0.7,2.5,2.5,3.1,5.4l8,35.3
		l110.4-24.9l-8.3-36.9c-0.7-2.9-0.5-5.1,0.6-6.5c1.1-1.4,3-2.4,5.7-3l40.6-9.1c2.4-0.5,4.3-0.4,5.8,0.4c1.4,0.8,2.5,2.7,3.2,5.6
		l30.1,133.7c2.4,10.4,2,18.1-0.9,23C1928.6-543.1,1920.8-539.3,1908.2-536.4z M1864.9-610.7l-110.4,24.9l7,30.9
		c0.5,2.4,2.2,3.3,4.8,2.7l102.8-23.2c2.4-0.5,3.3-2,2.8-4.4L1864.9-610.7z"/>
	<path id="XMLID_39_" d="M-1625,393.5c2.7,11.8,2.4,23.4-0.8,34.8c-3.2,11.4-9,22.1-17.3,32c-8.3,9.9-19.1,18.7-32.5,26.3
		c-13.3,7.6-28.8,13.5-46.5,17.4c-19,4.3-36.2,5.9-51.4,4.8c-15.3-1.1-28.6-4.3-40-9.8c-11.4-5.5-20.6-12.8-27.8-22
		c-7.1-9.2-12-19.7-14.7-31.5c-2.6-11.5-2.6-23-0.1-34.4c2.5-11.4,7.7-22.1,15.6-32c7.9-9.9,18.5-18.7,31.8-26.4
		c13.3-7.6,29.5-13.6,48.5-17.9c17.7-4,34.1-5.4,49.4-4.4c15.3,1.1,28.8,4.3,40.6,9.6s21.5,12.6,29.4,21.7
		C-1632.9,370.9-1627.7,381.4-1625,393.5z M-1680.9,407.4c-2.5-11.2-10.1-19.6-22.5-25.1c-12.5-5.5-28-6.1-46.4-2
		c-19.8,4.5-33.6,11.7-41.5,21.8c-7.9,10.1-10.5,20.7-8,32c2.3,10.2,9.2,18,20.7,23.6c11.5,5.6,27.1,6.1,46.6,1.7
		c9.1-2.1,17.1-5,24-8.8c6.9-3.8,12.5-8,17-12.7c4.4-4.7,7.5-9.6,9.3-15C-1680.1,417.7-1679.8,412.4-1680.9,407.4z"/>
	<path id="XMLID_42_" d="M-1334.2,433l-194.4,43.8c-5.9,1.3-10.7,1.9-14.6,1.8c-3.8-0.1-7-1-9.4-2.5c-2.5-1.6-4.4-3.9-5.8-7.1
		c-1.4-3.2-2.7-7.2-3.8-12l-12.9-57.4c-1.1-5.1-1.7-9.3-1.8-12.7c-0.1-3.4,0.7-6.3,2.3-8.7c1.6-2.5,4-4.5,7.3-6.1
		c3.3-1.6,7.9-3,13.8-4.4l134.1-30.2c2.4-0.5,3.3-2.3,2.6-5.2l-4.4-19.7c-0.7-3.2-2.4-4.5-5.1-3.9l-153.8,34.7
		c-2.9,0.7-5.1,0.6-6.6-0.2c-1.4-0.8-2.5-2.8-3.3-6l-6.1-26.9c-1.1-5.1,1-8.2,6.3-9.4l183.9-41.5c12-2.7,20.2-2.5,24.6,0.6
		c4.4,3.1,7.6,9.5,9.8,19.1l13.6,60.2c1.2,5.4,1.8,9.8,1.9,13.3c0.1,3.5-0.6,6.4-2.1,8.7c-1.5,2.3-4,4.2-7.6,5.7
		c-3.6,1.5-8.3,2.9-14.2,4.3l-132.9,30c-2.7,0.6-3.7,2.2-3.1,4.9l4,17.7c0.7,2.9,2.5,4.1,5.4,3.4l162.3-36.6
		c2.9-0.7,5.2-0.7,6.7-0.2c1.5,0.5,2.7,2.5,3.5,6l6.1,26.9C-1326.7,428.5-1328.8,431.8-1334.2,433z"/>
	<path id="XMLID_44_" d="M-1089.8,240.4l-210.4,47.4c-5.6,1.3-9.1-1-10.4-6.9l-5-22.1c-1.3-5.9,1-9.5,6.8-10.8l210-47.3
		c5.9-1.3,9.5,1,10.8,6.8l5.1,22.5C-1081.6,235.6-1083.9,239-1089.8,240.4z M-1153,199.3l-104.4,23.5c-2.1,0.5-4.2,0.4-6.2-0.3
		c-2-0.7-3.4-2.9-4.2-6.6l-5.1-22.5c-0.8-3.7-0.5-6.3,1-7.6c1.5-1.3,3.4-2.2,5.5-2.7l104.4-23.5c5.9-1.3,9.5,1,10.8,6.8l4.9,21.7
		c0.7,3.2,0.7,5.7,0,7.4C-1147,197.2-1149.3,198.5-1153,199.3z M-1163.2,394.1c-11.8,2.7-23.3,3.6-34.6,2.9
		c-11.3-0.7-21.5-2.8-30.8-6.4c-9.2-3.5-17-8.5-23.4-14.8c-6.3-6.3-10.5-13.9-12.5-22.7c-2-8.8-1.4-17.5,1.8-25.9
		c3.2-8.4,8.2-16.2,15-23.2s15.3-13.2,25.4-18.6c10-5.4,21-9.4,32.7-12c11.8-2.7,23.4-3.7,34.7-3.2c11.4,0.5,21.7,2.5,30.9,5.9
		s17.1,8.3,23.5,14.5c6.5,6.3,10.7,13.8,12.7,22.7s1.5,17.5-1.5,26.1c-3,8.6-8,16.4-14.9,23.6c-7,7.2-15.5,13.5-25.7,18.9
		C-1140,387.3-1151.1,391.3-1163.2,394.1z M-1180.8,312c-12,2.7-20.6,7-25.8,13c-5.1,5.9-7.1,11.5-6,16.5
		c1.3,5.6,5.6,10.1,13.1,13.3c7.5,3.2,17,3.6,28.5,1c11.8-2.7,20.3-7,25.5-13.1c5.2-6.1,7.2-12,6-17.6c-1.1-5.1-5.3-9.2-12.5-12.4
		C-1159.2,309.5-1168.8,309.2-1180.8,312z"/>
	<path id="XMLID_49_" d="M-781.4,294.1l-39.4,8.9c-5.9,1.3-9.4-0.7-10.6-6l-9.7-43c-14.7,4.7-28.5,9-41.4,12.7
		c-12.9,3.8-25.9,7.4-38.9,10.9c-13,3.5-26.6,7-40.7,10.4c-14.1,3.5-30,7.2-47.7,11.2c-2.9,0.7-5,0.5-6.2-0.5c-1.2-1-2.1-3-2.8-5.9
		l-6.6-29.3c-1.1-4.8,0.9-7.8,6-8.9c16.9-3.8,32-7.3,45.5-10.5c13.5-3.2,26.6-6.3,39.2-9.5c12.7-3.1,25.7-6.6,39-10.3
		c13.4-3.7,28.4-8,45-12.9l-5.4-24.1c-0.9-4-3.2-5.6-7-4.8l-159.8,36c-2.1,0.5-4.1,0.5-5.9,0.1c-1.8-0.4-3-2.1-3.7-5.1l-7-30.9
		c-0.8-3.5-0.4-5.7,1-6.8c1.5-1,3.2-1.8,5.4-2.3l193.2-43.5c5.9-1.3,10.7-1.9,14.6-1.8c3.8,0.1,7,1.2,9.6,3.1c2.6,2,4.7,4.8,6.3,8.5
		c1.7,3.7,3.2,8.4,4.4,14l29.4,130.5C-774.4,289.7-776.3,293-781.4,294.1z"/>
	<path id="XMLID_51_" d="M-512.9,238.2l-181.9,41c-5.9,1.3-10.8,2-14.7,2.1c-3.9,0-7.2-0.7-9.8-2.2c-2.6-1.5-4.7-3.9-6.3-7.2
		c-1.6-3.3-3-7.8-4.3-13.4l-26.4-117.3c-2.5-11.2-2.1-19.1,1.2-23.7c3.3-4.5,10.5-8.1,21.5-10.5l179.9-40.5c2.9-0.7,5.1-0.6,6.6,0.2
		c1.4,0.8,2.5,2.7,3.2,5.6l6.2,27.3c0.7,2.9,0.5,5.1-0.4,6.4c-1,1.3-2.9,2.3-5.9,3l-147,33.1c-4.3,1-6,3.3-5.2,7.1l3.8,16.9
		l149.4-33.7c2.7-0.6,4.8-0.6,6.3,0c1.5,0.6,2.7,2.6,3.4,5.8l6.1,26.9c0.8,3.8,0.6,6.1-0.8,6.9c-1.4,0.9-3.2,1.6-5.6,2.1
		l-149.4,33.7l3.9,17.3c0.5,2.1,1.2,3.5,2.2,4.1c1,0.6,2.8,0.6,5.5,0l149-33.6c3.5-0.8,6-1,7.5-0.6c1.5,0.4,2.6,2.3,3.4,5.8l6,26.5
		c0.8,3.8,0.6,6.3-0.8,7.8C-507.8,236.5-510,237.6-512.9,238.2z"/>
	<path id="XMLID_53_" d="M-464.6,224.4c-3.6,1.4-6.1,2.1-7.5,2.1c-1.4,0-3.1-1.3-5.1-3.9l-15.6-26c-2.2-3.7-2.8-6.3-1.6-7.9
		c1.2-1.5,3.3-2.9,6.4-4.2c15.5-6,30-12,43.4-18c13.4-6,26.1-12,37.9-18c11.9-6,23.1-12.4,33.7-19c10.6-6.6,21-13.6,31.2-20.9
		c3.7-2.5,5.6-4.6,5.8-6.2c0.2-1.6-2.4-1.8-7.7-0.6l-126.1,28.4c-4.6,1-7.3-0.7-8.4-5.3l-6.2-27.7c-0.7-2.9-0.7-5-0.1-6.1
		c0.6-1.1,2.4-2,5.3-2.7L-292,46.2c13.1-3,22.9-3.1,29.2-0.5c6.4,2.6,10.3,7.5,11.9,14.4c1.9,8.6-0.2,18.2-6.4,28.9
		c-6.2,10.7-15.6,21.8-28.1,33.4c13.6,0.6,27.2,0.6,40.5,0.1c13.4-0.5,26-1.2,37.9-2.2c3.1-0.1,5,0.5,5.9,1.8
		c0.9,1.4,1.2,3.3,0.9,5.9l-3.5,29.5c-0.3,2.6-1,4.4-2.2,5.3c-1.2,1-3.4,1.6-6.8,1.7c-8.2,1-17.3,1.7-27.4,2
		c-10.1,0.3-20.7,0.4-31.8,0.4c-11.1,0-22.5-0.3-34.2-0.9c-11.7-0.6-23.1-1.5-34.3-2.6c-17.8,11-37.2,21.7-58.2,32.1
		C-419.5,205.9-441.5,215.5-464.6,224.4z M-320.5,34.1l-109.6,24.7c-2.1,0.5-4,0.5-5.7,0c-1.7-0.5-2.9-2.6-3.7-6.3l-6.1-26.9
		c-0.7-2.9-0.4-5,0.9-6.3c1.3-1.3,3-2.1,5.1-2.6L-330-8.1c5.1-1.1,8.2,0.8,9.4,5.9l5.9,26.1C-313.5,29.6-315.4,32.9-320.5,34.1z"/>
	<path id="XMLID_56_" d="M60.7,100.5L-183,155.4c-6.2,1.4-9.9-0.9-11.2-6.8l-6.1-26.9c-1.3-5.6,1.2-9.1,7.3-10.5l42.6-9.6L-166.8,29
		l-33.7,7.6c-6.2,1.4-9.9-0.9-11.2-6.8l-6-26.5c-0.7-3.2-0.4-5.7,1.1-7.4c1.4-1.7,3.5-2.9,6.2-3.5l226.1-51c5.9-1.3,9.5,1,10.8,6.8
		l6.2,27.3c1.2,5.4-1.1,8.7-7,10L-7.8-6.9L8.6,65.8l42.2-9.5c5.9-1.3,9.5,0.8,10.7,6.4l6.2,27.3C68.9,95.7,66.6,99.2,60.7,100.5z
		 M-95.8,89.4L-45.6,78L-62,5.4l-50.2,11.3L-95.8,89.4z"/>
	<path id="XMLID_59_" d="M295.5,48.4l-159.8,36c-6.4,1.4-11.7,2.2-15.9,2.3c-4.2,0.1-7.7-0.6-10.4-2.1c-2.7-1.5-5-4-6.8-7.5
		c-1.8-3.5-3.4-8.4-4.8-14.5L68.3-68.3c-1.1-4.8,0.9-7.8,6-8.9l39.8-9c2.9-0.7,5.1-0.7,6.5,0c1.4,0.7,2.5,2.5,3.1,5.4l8,35.3
		l110.4-24.9l-8.3-36.9c-0.7-2.9-0.5-5.1,0.6-6.5c1.1-1.4,3-2.4,5.7-3l40.6-9.1c2.4-0.5,4.3-0.4,5.8,0.4c1.4,0.8,2.5,2.7,3.2,5.6
		l30.1,133.7c2.4,10.4,2,18.1-0.9,23C315.8,41.7,308,45.6,295.5,48.4z M252.1-25.8L141.7-0.9l7,30.9c0.5,2.4,2.2,3.3,4.8,2.7
		L256.3,9.6c2.4-0.5,3.3-2,2.8-4.4L252.1-25.8z"/>
	<path id="XMLID_62_" d="M559.4-117.4c-4,6-8.5,12.1-13.6,18.5c-5,6.3-10.7,12.6-16.9,18.8c5.8,0.9,12.6,1.8,20.4,2.6
		c7.8,0.8,15.8,1.4,24,1.8c8.2,0.4,16.3,0.7,24.3,1.1c7.9,0.3,15,0.5,21.2,0.5c4.8,0,6.8,2.8,6.1,8.3l-5.9,33.8
		c-0.5,2.7-1.6,4.4-3.3,5.2c-1.7,0.8-4,1.3-7.1,1.4c-8.2-0.1-17.4-0.6-27.5-1.4c-10.2-0.8-20.7-1.8-31.5-3
		c-10.8-1.2-21.7-2.6-32.6-4.3c-10.9-1.6-21.4-3.5-31.5-5.8c-16.9,13.7-34.7,26.5-53.5,38.7c-18.8,12.1-37.6,22.5-56.5,31.3
		c-3.6,1.6-6,2.3-7.4,1.9c-1.4-0.4-2.7-1.6-4-3.5l-19-28.2c-1.3-2.2-1.9-4.1-1.7-5.5c0.2-1.5,2.1-3.1,5.6-5.1
		c12.3-6.4,25-13.6,38-21.4c13-7.8,25.5-16,37.5-24.5c12-8.5,23.4-17.1,34-26c10.7-8.9,19.9-17.6,27.9-26.1c4-4.6,5.5-7.6,4.3-9.2
		c-1.2-1.6-4.1-1.8-8.6-0.8L357-90.3c-3,0.7-5,0.6-6.1-0.1c-1.2-0.7-2.1-2.7-2.8-5.9l-6.7-29.7c-0.7-2.9-0.6-4.9,0.1-5.9
		c0.8-1,2.6-1.9,5.6-2.5l181.5-40.9c13.7-3.1,23.8-3.2,30.3-0.3c6.6,2.9,10.6,7.8,12.2,14.8c1.2,5.4,0.7,12.1-1.4,20.1
		C567.6-132.7,564.2-124.9,559.4-117.4z"/>
	<path id="XMLID_64_" d="M874.4-82.9L684.8-40.2c-12,2.7-20.6,2.3-25.6-1.2c-5-3.5-8.8-10.8-11.2-21.7l-23.2-102.8
		c-2.7-11.8-2.1-19.8,1.8-24c3.8-4.2,11.2-7.6,22.2-10.1l181.9-41c5.4-1.2,8.6,0.9,9.8,6.2l6.7,29.7c1.2,5.4-0.9,8.6-6.2,9.8
		L689.2-161c-2.9,0.7-4.1,2.5-3.4,5.4l13.3,59c0.7,3.2,2.4,4.5,5.1,3.9l158.2-35.7c5.9-1.3,9.4,0.4,10.5,5.2l6.8,30.1
		c0.8,3.8,0.9,6.2,0.2,7.3C879.2-84.4,877.3-83.5,874.4-82.9z"/>
	<path id="XMLID_66_" d="M1149.8-145.4l-39.4,8.9c-5.9,1.3-9.4-0.7-10.6-6l-22.7-100.8c-0.9-4-3.2-5.6-7-4.8l-155,34.9
		c-2.1,0.5-4.1,0.5-5.9,0.1c-1.8-0.4-3-2.1-3.7-5.1l-7.1-31.3c-0.8-3.7-0.5-6.1,0.9-7.2c1.5-1,3.3-1.8,5.4-2.3l188.4-42.5
		c5.9-1.3,10.7-1.9,14.6-1.8c3.8,0.1,7,1.2,9.6,3.1c2.6,2,4.7,4.8,6.3,8.5c1.7,3.7,3.2,8.4,4.4,14l27.6,122.5
		C1156.8-149.8,1154.9-146.5,1149.8-145.4z"/>
	<path id="XMLID_68_" d="M1201.2-155.3c-3.5,1.9-5.9,2.7-7.2,2.5c-1.3-0.3-2.6-1.4-3.9-3.3l-21.3-31.1c-2.6-3.9-1.2-7.3,4-10.2
		c16.6-8.8,30.6-18.8,42-29.9c11.4-11.1,20.6-22.9,27.5-35.3c6.9-12.4,11.6-25.1,14.2-38.2c2.5-13.1,3.2-26.1,2-39.1
		c0-1.4,0.5-2.9,1.7-4.6c1.2-1.7,2.8-2.7,5-3.2l41.8-7.3c4.4-0.4,6.9,2.5,7.5,8.9c0.6,9.1,0.9,17.8,0.8,26
		c6.8,9.2,15.2,17.4,25.2,24.7c9.9,7.3,20.7,13.6,32.3,18.7c11.6,5.1,23.5,9,35.9,11.5c12.4,2.6,24.3,3.7,35.8,3.3
		c3.9,0,6.2,0.8,6.9,2.5c0.7,1.7,0.8,3.7,0.5,6l-5.9,35.5c-0.7,4.4-4.4,6.5-11.2,6.3c-11-0.1-22.4-1.3-34.4-3.6s-23.7-5.8-35.3-10.4
		c-11.6-4.6-22.7-10.1-33.5-16.5c-10.7-6.4-20.3-13.5-28.8-21.1c-8.6,21.6-21.3,41.8-38.1,60.5
		C1247.7-184.2,1226.6-168.3,1201.2-155.3z"/>
	<path id="XMLID_70_" d="M1680.4-270L1517-233.2c-6.7,1.5-12.1,2.3-16.3,2.4c-4.2,0.1-7.7-0.7-10.5-2.5c-2.8-1.8-5-4.4-6.7-8
		c-1.6-3.6-3.1-8.3-4.5-14.2l-21.7-96.4c-2.7-11.8-2.4-20.1,0.7-25.1c3.1-4.9,10.3-8.6,21.5-11.2l163.9-36.9
		c6.7-1.5,12.2-2.2,16.4-2.2c4.2,0,7.7,0.9,10.5,2.7c2.8,1.8,5,4.5,6.7,8.2c1.7,3.7,3.2,8.5,4.5,14.4l21.7,96.4
		c1.3,5.9,1.9,10.8,1.9,14.8c-0.1,4-1,7.3-2.8,9.9c-1.8,2.7-4.5,4.8-8,6.5C1690.6-272.7,1686.1-271.3,1680.4-270z M1630.2-369.3
		c-0.7-3.2-2.6-4.5-5.5-3.8l-103.6,23.4c-3.5,0.8-4.8,2.9-4,6.4l12.3,54.6c0.7,3.2,2.8,4.4,6.3,3.6l103.2-23.3
		c1.9-0.4,3.1-0.9,3.7-1.5c0.6-0.6,0.6-2.2,0-4.8L1630.2-369.3z"/>
	<path id="XMLID_73_" d="M1978.6-336.4L1789-293.7c-5.6,1.3-10.3,1.8-14.2,1.7c-3.8-0.1-7-1-9.5-2.7c-2.5-1.7-4.6-4.3-6.2-7.9
		c-1.6-3.6-3.1-8.2-4.4-13.8l-27.3-121.3c-1.3-5.6,0.8-9,6.1-10.2l39.4-8.9c5.6-1.3,9.1,0.9,10.3,6.5l22.2,98.4
		c0.9,4,3.4,5.6,7.4,4.7l155.4-35c2.1-0.5,4.2-0.4,6.1,0.1c2,0.6,3.3,2.3,3.9,5.2l7.1,31.3c0.8,3.8,0.5,6.1-1.2,7
		C1982.6-337.6,1980.7-336.9,1978.6-336.4z"/>
	<path id="XMLID_75_" d="M-1594,695.7l-159.8,36c-6.4,1.4-11.7,2.2-15.9,2.3c-4.2,0.1-7.7-0.6-10.4-2.1c-2.7-1.5-5-4-6.8-7.5
		c-1.8-3.5-3.4-8.4-4.8-14.5l-29.5-130.9c-1.1-4.8,0.9-7.8,6-8.9l39.8-9c2.9-0.7,5.1-0.7,6.5,0c1.4,0.7,2.5,2.5,3.1,5.4l8,35.3
		l110.4-24.9l-8.3-36.9c-0.7-2.9-0.5-5.1,0.7-6.5c1.1-1.4,3-2.4,5.7-3l40.6-9.1c2.4-0.5,4.3-0.4,5.8,0.4c1.4,0.8,2.5,2.7,3.2,5.6
		l30.1,133.7c2.4,10.4,2,18.1-0.9,23C-1573.6,689-1581.4,692.9-1594,695.7z M-1637.3,621.5l-110.4,24.9l7,30.9
		c0.5,2.4,2.2,3.3,4.8,2.7l102.8-23.2c2.4-0.5,3.3-2,2.8-4.4L-1637.3,621.5z"/>
	<path id="XMLID_78_" d="M-1330.1,529.9c-4,6-8.5,12.1-13.6,18.5c-5,6.3-10.7,12.6-16.9,18.8c5.8,0.9,12.6,1.8,20.4,2.6
		c7.8,0.8,15.8,1.4,24,1.8c8.2,0.4,16.3,0.7,24.3,1.1c7.9,0.3,15,0.5,21.2,0.5c4.8,0,6.8,2.8,6.1,8.3l-5.9,33.8
		c-0.5,2.7-1.6,4.4-3.3,5.2c-1.7,0.8-4,1.3-7.1,1.4c-8.2-0.1-17.4-0.6-27.5-1.4c-10.2-0.8-20.7-1.8-31.5-3
		c-10.8-1.2-21.7-2.6-32.6-4.3c-10.9-1.6-21.4-3.5-31.5-5.8c-16.9,13.7-34.7,26.5-53.5,38.7c-18.8,12.1-37.6,22.5-56.5,31.3
		c-3.6,1.6-6,2.3-7.4,1.9c-1.4-0.4-2.7-1.6-4-3.5l-19-28.2c-1.3-2.2-1.9-4.1-1.7-5.5c0.2-1.5,2.1-3.1,5.6-5.1
		c12.3-6.4,25-13.6,38-21.4c13-7.8,25.5-16,37.5-24.5c12-8.5,23.4-17.1,34-26c10.7-8.9,19.9-17.6,27.9-26.1c4-4.6,5.5-7.6,4.3-9.2
		c-1.2-1.6-4.1-1.8-8.6-0.8l-125.3,28.2c-2.9,0.7-5,0.6-6.1-0.1c-1.2-0.7-2.1-2.7-2.8-5.9l-6.7-29.7c-0.7-2.9-0.6-4.9,0.1-5.9
		c0.8-1,2.6-1.9,5.6-2.5l181.5-40.9c13.7-3.1,23.8-3.2,30.3-0.3c6.6,2.9,10.6,7.8,12.2,14.8c1.2,5.4,0.7,12.1-1.4,20.1
		C-1321.8,514.5-1325.3,522.3-1330.1,529.9z"/>
	<path id="XMLID_80_" d="M-1015.1,564.4l-189.6,42.7c-12,2.7-20.6,2.3-25.6-1.2c-5-3.5-8.8-10.8-11.2-21.7l-23.2-102.8
		c-2.7-11.8-2.1-19.8,1.8-24c3.8-4.2,11.2-7.6,22.2-10.1l181.9-41c5.4-1.2,8.6,0.9,9.8,6.2l6.7,29.7c1.2,5.4-0.9,8.6-6.2,9.8
		l-151.8,34.2c-2.9,0.7-4.1,2.5-3.4,5.4l13.3,59c0.7,3.2,2.4,4.5,5.1,3.9L-1027,519c5.9-1.3,9.4,0.4,10.5,5.2l6.8,30.1
		c0.8,3.8,0.9,6.2,0.2,7.3C-1010.3,562.8-1012.1,563.7-1015.1,564.4z"/>
	<path id="XMLID_82_" d="M-739.6,501.9l-39.4,8.9c-5.9,1.3-9.4-0.7-10.6-6l-22.7-100.8c-0.9-4-3.2-5.6-7-4.8l-155,34.9
		c-2.1,0.5-4.1,0.5-5.9,0.1c-1.8-0.4-3-2.1-3.7-5.1l-7.1-31.3c-0.8-3.7-0.5-6.1,0.9-7.2c1.5-1,3.2-1.8,5.4-2.3l188.4-42.5
		c5.9-1.3,10.7-1.9,14.6-1.8c3.8,0.1,7,1.2,9.6,3.1c2.6,2,4.7,4.8,6.3,8.5c1.7,3.7,3.2,8.4,4.4,14l27.6,122.5
		C-732.6,497.5-734.6,500.7-739.6,501.9z"/>
	<path id="XMLID_84_" d="M-688.3,492c-3.5,1.9-5.9,2.7-7.2,2.5c-1.3-0.3-2.6-1.4-3.9-3.3l-21.3-31.1c-2.6-3.9-1.2-7.3,4-10.2
		c16.6-8.8,30.6-18.8,42-29.9c11.4-11.2,20.6-22.9,27.5-35.3c6.9-12.4,11.6-25.1,14.2-38.2c2.5-13.1,3.2-26.1,2-39.1
		c0-1.4,0.5-2.9,1.7-4.6c1.2-1.7,2.8-2.7,5-3.2l41.8-7.3c4.4-0.4,6.9,2.5,7.5,8.9c0.6,9.1,0.9,17.8,0.8,26
		c6.8,9.2,15.2,17.4,25.2,24.7c9.9,7.3,20.7,13.6,32.3,18.7c11.6,5.1,23.5,9,35.9,11.5c12.4,2.6,24.3,3.7,35.8,3.3
		c3.9,0,6.2,0.8,6.9,2.5c0.7,1.7,0.8,3.7,0.5,6l-5.9,35.5c-0.7,4.4-4.4,6.5-11.2,6.3c-11-0.1-22.4-1.3-34.4-3.6
		c-11.9-2.4-23.7-5.8-35.3-10.4c-11.6-4.6-22.7-10.1-33.5-16.5c-10.7-6.4-20.3-13.5-28.8-21.1c-8.6,21.6-21.3,41.8-38.1,60.5
		C-641.7,463.1-662.8,478.9-688.3,492z"/>
	<path id="XMLID_86_" d="M-209,377.2l-163.5,36.8c-6.7,1.5-12.1,2.3-16.3,2.4c-4.2,0.1-7.7-0.7-10.5-2.5c-2.8-1.8-5-4.4-6.7-8
		c-1.6-3.6-3.1-8.3-4.5-14.2l-21.7-96.4c-2.7-11.8-2.4-20.1,0.7-25.1c3.1-4.9,10.3-8.6,21.5-11.2l163.9-36.9
		c6.7-1.5,12.2-2.2,16.4-2.2c4.2,0,7.7,0.9,10.5,2.7c2.8,1.8,5,4.5,6.7,8.2c1.7,3.7,3.2,8.5,4.5,14.4l21.7,96.4
		c1.3,5.9,1.9,10.8,1.9,14.8c-0.1,4-1,7.3-2.8,9.9c-1.8,2.7-4.5,4.8-8,6.5C-198.8,374.5-203.4,376-209,377.2z M-259.2,278
		c-0.7-3.2-2.6-4.5-5.5-3.8l-103.6,23.4c-3.5,0.8-4.8,2.9-4,6.4l12.3,54.6c0.7,3.2,2.8,4.4,6.3,3.6l103.2-23.3
		c1.9-0.4,3.1-0.9,3.7-1.5c0.6-0.5,0.6-2.2,0-4.8L-259.2,278z"/>
	<path id="XMLID_89_" d="M67.7,314.9l-163.5,36.8c-6.7,1.5-12.1,2.3-16.3,2.4c-4.2,0.1-7.7-0.7-10.5-2.5c-2.8-1.8-5-4.4-6.7-8
		c-1.6-3.6-3.1-8.3-4.5-14.2l-21.7-96.4c-2.7-11.8-2.4-20.1,0.7-25.1c3.1-4.9,10.3-8.6,21.5-11.2l163.9-36.9
		c6.7-1.5,12.2-2.2,16.4-2.2c4.2,0,7.7,0.9,10.5,2.7c2.8,1.8,5,4.5,6.7,8.2c1.7,3.7,3.2,8.5,4.5,14.4l21.7,96.4
		c1.3,5.9,1.9,10.8,1.9,14.8c-0.1,4-1,7.3-2.8,9.9c-1.8,2.7-4.5,4.8-8,6.5C77.9,312.1,73.3,313.6,67.7,314.9z M17.5,215.6
		c-0.7-3.2-2.6-4.5-5.5-3.8l-103.6,23.4c-3.5,0.8-4.8,2.9-4,6.4l12.3,54.6c0.7,3.2,2.8,4.4,6.3,3.6l103.2-23.3
		c1.9-0.4,3.1-0.9,3.7-1.5c0.6-0.5,0.6-2.2,0-4.8L17.5,215.6z"/>
	<path id="XMLID_92_" d="M141.8,304.9c-3.5,1.9-5.9,2.7-7.2,2.5c-1.3-0.3-2.6-1.4-3.9-3.3L109.3,273c-2.6-3.9-1.2-7.3,4-10.2
		c16.6-8.8,30.6-18.8,42-29.9c11.4-11.1,20.6-22.9,27.5-35.3c6.9-12.4,11.6-25.1,14.2-38.2c2.5-13.1,3.2-26.1,2-39.1
		c0-1.4,0.5-2.9,1.7-4.6c1.2-1.7,2.8-2.7,5-3.2l41.8-7.3c4.4-0.4,6.9,2.5,7.5,8.9c0.6,9.1,0.9,17.8,0.8,26
		c6.8,9.2,15.2,17.4,25.2,24.7c9.9,7.3,20.7,13.6,32.3,18.7c11.6,5.1,23.5,9,35.9,11.5c12.4,2.6,24.3,3.7,35.8,3.3
		c3.9,0,6.2,0.8,6.9,2.5c0.7,1.7,0.8,3.7,0.5,6l-5.9,35.5c-0.7,4.4-4.4,6.5-11.2,6.3c-11-0.1-22.4-1.3-34.4-3.6
		c-11.9-2.4-23.7-5.8-35.3-10.4c-11.6-4.6-22.7-10.1-33.5-16.5c-10.7-6.4-20.3-13.5-28.8-21.1c-8.6,21.6-21.3,41.8-38.1,60.5
		C188.4,276,167.3,291.9,141.8,304.9z"/>
	<path id="XMLID_94_" d="M650.3,207.2L455.9,251c-5.9,1.3-10.7,1.9-14.6,1.8c-3.8-0.1-7-1-9.4-2.5c-2.5-1.6-4.4-3.9-5.8-7.1
		c-1.4-3.2-2.7-7.2-3.8-12l-12.9-57.4c-1.1-5.1-1.7-9.3-1.8-12.7c-0.1-3.4,0.7-6.3,2.3-8.7c1.6-2.5,4-4.5,7.3-6.1
		c3.3-1.6,7.9-3,13.8-4.4L565,111.6c2.4-0.5,3.3-2.3,2.6-5.2l-4.4-19.7c-0.7-3.2-2.4-4.5-5.1-3.9l-153.8,34.7
		c-2.9,0.7-5.1,0.6-6.6-0.2c-1.4-0.8-2.5-2.8-3.3-6l-6.1-26.9c-1.1-5.1,1-8.2,6.3-9.4l183.9-41.5c12-2.7,20.2-2.5,24.6,0.6
		c4.4,3.1,7.6,9.5,9.8,19.1l13.6,60.2c1.2,5.4,1.8,9.8,1.9,13.3c0.1,3.5-0.6,6.4-2,8.7c-1.5,2.3-4,4.2-7.6,5.7
		c-3.6,1.5-8.3,2.9-14.2,4.3l-132.9,30c-2.7,0.6-3.7,2.2-3.1,4.9l4,17.7c0.7,2.9,2.5,4.1,5.4,3.4l162.3-36.6
		c2.9-0.7,5.2-0.7,6.7-0.2c1.5,0.5,2.7,2.5,3.5,6l6.1,26.9C657.7,202.7,655.6,206,650.3,207.2z"/>
	<path id="XMLID_96_" d="M894.7,14.5L684.2,62c-5.6,1.3-9.1-1-10.4-6.9l-5-22.1c-1.3-5.9,1-9.5,6.8-10.8l210-47.3
		c5.9-1.3,9.5,1,10.8,6.8l5.1,22.5C902.9,9.7,900.5,13.2,894.7,14.5z M831.4-26.5L727-2.9c-2.1,0.5-4.2,0.4-6.2-0.3
		c-2-0.7-3.4-2.9-4.2-6.6l-5.1-22.5c-0.8-3.7-0.5-6.3,1-7.6c1.5-1.3,3.4-2.2,5.5-2.7l104.4-23.5c5.9-1.3,9.5,1,10.8,6.8l4.9,21.7
		c0.7,3.2,0.7,5.7,0,7.4C837.4-28.6,835.1-27.3,831.4-26.5z M821.3,168.2c-11.8,2.7-23.3,3.6-34.6,2.9c-11.3-0.7-21.5-2.8-30.8-6.4
		c-9.2-3.5-17-8.5-23.4-14.8c-6.3-6.3-10.5-13.9-12.5-22.7s-1.4-17.5,1.8-25.9c3.2-8.4,8.2-16.2,15-23.2c6.9-7,15.3-13.2,25.4-18.6
		c10-5.4,21-9.4,32.7-12c11.8-2.7,23.4-3.7,34.7-3.2c11.4,0.5,21.7,2.5,30.9,5.9c9.2,3.4,17.1,8.3,23.5,14.5
		c6.5,6.3,10.7,13.8,12.7,22.7s1.5,17.5-1.5,26.1c-3,8.6-8,16.4-14.9,23.6c-7,7.2-15.5,13.5-25.7,18.9
		C844.4,161.5,833.3,165.5,821.3,168.2z M803.6,86.1c-12,2.7-20.6,7-25.8,13c-5.1,5.9-7.1,11.5-6,16.5c1.3,5.6,5.6,10.1,13.1,13.3
		c7.5,3.2,17,3.6,28.5,1c11.8-2.7,20.3-7,25.5-13.1c5.2-6.1,7.2-12,6-17.6c-1.1-5.1-5.3-9.2-12.5-12.4
		C825.3,83.6,815.6,83.4,803.6,86.1z"/>
	<path id="XMLID_101_" d="M1203,68.3l-39.4,8.9c-5.9,1.3-9.4-0.7-10.6-6l-9.7-43c-14.7,4.7-28.5,9-41.4,12.7
		c-12.9,3.8-25.9,7.4-38.9,10.9c-13,3.5-26.6,7-40.7,10.4c-14.1,3.5-30,7.2-47.7,11.2c-3,0.7-5,0.5-6.2-0.5c-1.2-1-2.1-3-2.8-5.9
		l-6.6-29.3c-1.1-4.8,0.9-7.8,6-8.9c16.9-3.8,32-7.3,45.5-10.5c13.5-3.2,26.6-6.3,39.2-9.5c12.7-3.1,25.7-6.6,39-10.3
		c13.4-3.7,28.4-8,45-12.9l-5.4-24.1c-0.9-4-3.2-5.6-7-4.8l-159.8,36c-2.1,0.5-4.1,0.5-5.9,0.1c-1.8-0.4-3-2.1-3.7-5.1l-7-30.9
		c-0.8-3.5-0.4-5.7,1-6.8c1.5-1,3.2-1.8,5.4-2.3l193.2-43.5c5.9-1.3,10.7-1.9,14.6-1.8c3.8,0.1,7,1.2,9.6,3.1c2.6,2,4.7,4.8,6.3,8.5
		c1.7,3.7,3.2,8.4,4.4,14l29.4,130.5C1210,63.9,1208.1,67.1,1203,68.3z"/>
	<path id="XMLID_103_" d="M1471.5,12.4l-181.9,41c-5.9,1.3-10.8,2-14.7,2.1c-3.9,0-7.2-0.7-9.8-2.2c-2.6-1.5-4.7-3.9-6.3-7.2
		c-1.6-3.3-3-7.8-4.3-13.4L1228-84.6c-2.5-11.2-2.1-19.1,1.2-23.7c3.3-4.5,10.5-8.1,21.5-10.5l179.9-40.5c2.9-0.7,5.1-0.6,6.6,0.2
		c1.4,0.8,2.5,2.7,3.2,5.6l6.2,27.3c0.7,2.9,0.5,5.1-0.4,6.4c-1,1.3-2.9,2.3-5.9,3l-147,33.1c-4.3,1-6,3.3-5.2,7.1l3.8,16.9
		l149.4-33.7c2.7-0.6,4.8-0.6,6.3,0c1.5,0.6,2.7,2.6,3.4,5.8l6.1,26.9c0.8,3.8,0.6,6.1-0.8,6.9c-1.4,0.9-3.2,1.6-5.6,2.1L1301.3-18
		l3.9,17.3c0.5,2.1,1.2,3.5,2.2,4.1c1,0.6,2.8,0.6,5.5,0l149-33.6c3.5-0.8,6-1,7.5-0.6c1.5,0.4,2.6,2.3,3.4,5.8l6,26.5
		c0.8,3.8,0.6,6.3-0.8,7.8C1476.6,10.7,1474.4,11.8,1471.5,12.4z"/>
	<path id="XMLID_105_" d="M1519.8-1.4c-3.6,1.4-6.1,2.1-7.5,2.1c-1.4,0-3.1-1.3-5.1-3.9l-15.6-26c-2.2-3.7-2.8-6.3-1.6-7.9
		c1.2-1.5,3.3-2.9,6.4-4.2c15.5-6,30-12,43.4-18c13.4-6,26.1-12,37.9-18c11.9-6,23.1-12.4,33.7-19c10.6-6.6,21-13.6,31.1-20.9
		c3.7-2.5,5.6-4.6,5.8-6.2c0.2-1.6-2.4-1.8-7.7-0.6l-126.1,28.4c-4.6,1-7.3-0.7-8.4-5.3l-6.2-27.7c-0.7-2.9-0.7-5-0.1-6.1
		c0.6-1.1,2.4-2,5.3-2.7l187.2-42.2c13.1-3,22.9-3.1,29.2-0.5c6.4,2.6,10.3,7.5,11.9,14.4c1.9,8.6-0.2,18.2-6.4,28.9
		c-6.2,10.7-15.6,21.8-28.1,33.4c13.6,0.6,27.2,0.6,40.5,0.1c13.4-0.5,26-1.2,37.9-2.2c3.1-0.1,5,0.5,5.9,1.8
		c0.9,1.4,1.2,3.3,0.9,5.9l-3.5,29.5c-0.3,2.6-1,4.4-2.2,5.3c-1.2,1-3.4,1.6-6.8,1.7c-8.2,1-17.3,1.7-27.4,2
		c-10.1,0.3-20.7,0.4-31.8,0.4c-11.1,0-22.5-0.3-34.2-0.9c-11.7-0.6-23.1-1.5-34.3-2.6c-17.8,11-37.2,21.7-58.2,32.1
		C1564.9-19.9,1542.9-10.3,1519.8-1.4z M1663.9-191.7L1554.3-167c-2.1,0.5-4,0.5-5.7,0c-1.7-0.5-2.9-2.6-3.7-6.3l-6.1-26.9
		c-0.7-2.9-0.4-5,0.9-6.3c1.3-1.3,3-2.1,5.1-2.6l109.6-24.7c5.1-1.1,8.2,0.8,9.4,5.9l5.9,26.1C1670.9-196.3,1669-192.9,1663.9-191.7
		z"/>
	<path id="XMLID_108_" d="M2045.2-125.3l-243.8,54.9c-6.2,1.4-9.9-0.9-11.2-6.8l-6.1-26.9c-1.3-5.6,1.2-9.1,7.3-10.5l42.6-9.6
		l-16.4-72.7l-33.7,7.6c-6.2,1.4-9.9-0.9-11.2-6.8l-6-26.5c-0.7-3.2-0.4-5.7,1.1-7.4c1.4-1.7,3.5-2.9,6.2-3.5l226.1-51
		c5.9-1.3,9.5,1,10.8,6.8l6.2,27.3c1.2,5.4-1.1,8.7-7,10l-33.3,7.5L1993-160l42.2-9.5c5.9-1.3,9.5,0.8,10.7,6.4l6.2,27.3
		C2053.4-130.1,2051-126.6,2045.2-125.3z M1888.6-136.5l50.2-11.3l-16.4-72.7l-50.2,11.3L1888.6-136.5z"/>
	<path id="XMLID_111_" d="M-1521,899.8l-189.6,42.7c-12,2.7-20.6,2.3-25.6-1.2c-5-3.5-8.8-10.8-11.2-21.7l-23.2-102.8
		c-2.7-11.8-2.1-19.8,1.8-24c3.8-4.2,11.2-7.6,22.2-10.1l181.9-41c5.4-1.2,8.6,0.9,9.8,6.2l6.7,29.7c1.2,5.4-0.9,8.6-6.2,9.8
		l-151.8,34.2c-2.9,0.7-4.1,2.5-3.4,5.4l13.3,59c0.7,3.2,2.4,4.5,5.1,3.9l158.2-35.7c5.9-1.3,9.4,0.4,10.5,5.2l6.8,30.1
		c0.8,3.8,0.9,6.2,0.2,7.3C-1516.2,898.3-1518,899.2-1521,899.8z"/>
	<path id="XMLID_113_" d="M-1245.6,837.3l-39.4,8.9c-5.9,1.3-9.4-0.7-10.6-6l-22.7-100.8c-0.9-4-3.2-5.6-7-4.8l-155,34.9
		c-2.1,0.5-4.1,0.5-5.9,0.1c-1.8-0.4-3-2.1-3.7-5.1l-7.1-31.3c-0.8-3.7-0.5-6.1,0.9-7.2c1.5-1,3.2-1.8,5.4-2.3l188.4-42.5
		c5.9-1.3,10.7-1.9,14.6-1.8c3.8,0.1,7,1.2,9.6,3.1c2.6,2,4.7,4.8,6.3,8.5c1.7,3.7,3.2,8.4,4.4,14l27.6,122.5
		C-1238.5,832.9-1240.5,836.2-1245.6,837.3z"/>
	<path id="XMLID_115_" d="M-1194.2,827.4c-3.5,1.9-5.9,2.7-7.2,2.5c-1.3-0.3-2.6-1.4-3.9-3.3l-21.3-31.1c-2.6-3.9-1.2-7.3,4-10.2
		c16.6-8.8,30.6-18.8,42-29.9c11.4-11.2,20.6-22.9,27.5-35.3c6.9-12.4,11.6-25.1,14.2-38.2c2.5-13.1,3.2-26.1,2-39.1
		c0-1.4,0.5-2.9,1.7-4.6c1.2-1.7,2.8-2.7,5-3.2l41.8-7.3c4.4-0.4,6.9,2.5,7.5,8.9c0.6,9.1,0.9,17.8,0.8,26
		c6.8,9.2,15.2,17.4,25.2,24.7c9.9,7.3,20.7,13.6,32.3,18.7c11.6,5.1,23.5,9,35.9,11.5c12.4,2.6,24.3,3.7,35.8,3.3
		c3.9,0,6.2,0.8,6.9,2.5c0.7,1.7,0.8,3.7,0.5,6l-5.9,35.5c-0.7,4.4-4.4,6.5-11.2,6.3c-11-0.1-22.4-1.3-34.4-3.6
		c-11.9-2.4-23.7-5.8-35.3-10.4c-11.6-4.6-22.7-10.1-33.5-16.5c-10.7-6.4-20.3-13.5-28.8-21.1c-8.6,21.6-21.3,41.8-38.1,60.5
		C-1147.6,798.5-1168.7,814.4-1194.2,827.4z"/>
	<path id="XMLID_117_" d="M-714.9,712.7l-163.5,36.8c-6.7,1.5-12.1,2.3-16.3,2.4c-4.2,0.1-7.7-0.7-10.5-2.5c-2.8-1.8-5-4.4-6.7-8
		c-1.6-3.6-3.1-8.3-4.5-14.2l-21.7-96.4c-2.7-11.8-2.4-20.1,0.7-25.1c3.1-4.9,10.3-8.6,21.5-11.2l163.9-36.9
		c6.7-1.5,12.2-2.2,16.4-2.2c4.2,0,7.7,0.9,10.5,2.7c2.8,1.8,5,4.5,6.7,8.2c1.7,3.7,3.2,8.5,4.5,14.4l21.7,96.4
		c1.3,5.9,1.9,10.8,1.9,14.8c-0.1,4-1,7.3-2.8,9.9c-1.8,2.7-4.5,4.8-8,6.5C-704.7,709.9-709.3,711.4-714.9,712.7z M-765.2,613.4
		c-0.7-3.2-2.6-4.5-5.5-3.8l-103.6,23.4c-3.5,0.8-4.8,2.9-4,6.4L-866,694c0.7,3.2,2.8,4.4,6.3,3.6l103.2-23.3
		c1.9-0.4,3.1-0.9,3.7-1.5c0.6-0.6,0.6-2.2,0-4.8L-765.2,613.4z"/>
	<path id="XMLID_120_" d="M-416.8,646.3L-606.3,689c-5.6,1.3-10.3,1.8-14.2,1.7c-3.8-0.1-7-1-9.5-2.7c-2.5-1.7-4.6-4.3-6.2-7.9
		c-1.6-3.6-3.1-8.2-4.4-13.8l-27.3-121.3c-1.3-5.6,0.8-9,6.1-10.2l39.4-8.9c5.6-1.3,9.1,0.9,10.3,6.5l22.2,98.4
		c0.9,4,3.4,5.6,7.4,4.7l155.4-35c2.1-0.5,4.2-0.4,6.1,0.1c2,0.6,3.3,2.3,3.9,5.2l7.1,31.3c0.8,3.8,0.5,6.1-1.2,7
		C-412.7,645.1-414.6,645.8-416.8,646.3z"/>
	<path id="XMLID_122_" d="M-146.5,503.1c2.7,11.8,2.4,23.4-0.8,34.8c-3.2,11.4-9,22.1-17.3,32s-19.1,18.7-32.5,26.3
		c-13.3,7.6-28.8,13.5-46.5,17.4c-19,4.3-36.2,5.9-51.4,4.8c-15.3-1.1-28.6-4.3-40-9.8c-11.4-5.5-20.6-12.8-27.8-22
		c-7.1-9.2-12-19.7-14.7-31.5c-2.6-11.5-2.6-23-0.1-34.4c2.5-11.4,7.7-22.1,15.6-32c7.9-9.9,18.5-18.7,31.8-26.4
		c13.3-7.6,29.5-13.6,48.5-17.9c17.7-4,34.2-5.4,49.4-4.4c15.3,1.1,28.8,4.3,40.6,9.6c11.8,5.4,21.5,12.6,29.4,21.7
		C-154.4,480.5-149.2,491.1-146.5,503.1z M-202.4,517c-2.5-11.2-10.1-19.6-22.5-25.1c-12.5-5.5-28-6.1-46.4-2
		c-19.8,4.5-33.6,11.7-41.5,21.8c-7.9,10.1-10.5,20.7-8,32c2.3,10.2,9.2,18,20.7,23.6c11.5,5.6,27.1,6.1,46.6,1.7
		c9.1-2.1,17.1-5,24-8.8c6.9-3.8,12.5-8,17-12.7c4.4-4.7,7.5-9.6,9.3-15C-201.6,527.3-201.3,522.1-202.4,517z"/>
	<path id="XMLID_125_" d="M144.3,542.6L-50,586.4c-5.9,1.3-10.7,1.9-14.6,1.8c-3.8-0.1-7-1-9.4-2.5c-2.5-1.6-4.4-3.9-5.8-7.1
		c-1.4-3.2-2.7-7.2-3.8-12l-12.9-57.4c-1.1-5.1-1.7-9.3-1.8-12.7c-0.1-3.4,0.7-6.3,2.3-8.7c1.6-2.5,4-4.5,7.3-6.1
		c3.3-1.6,7.9-3,13.8-4.4l134.1-30.2c2.4-0.5,3.3-2.3,2.6-5.2l-4.4-19.7c-0.7-3.2-2.4-4.5-5.1-3.9l-153.8,34.7
		c-2.9,0.7-5.1,0.6-6.6-0.2c-1.4-0.8-2.5-2.8-3.3-6l-6.1-26.9c-1.1-5.1,1-8.2,6.3-9.4l183.9-41.5c12-2.7,20.2-2.5,24.6,0.6
		c4.4,3.1,7.6,9.5,9.8,19.1l13.6,60.2c1.2,5.4,1.8,9.8,1.9,13.3c0.1,3.5-0.6,6.4-2.1,8.7c-1.5,2.3-4,4.2-7.6,5.7
		c-3.6,1.5-8.3,2.9-14.2,4.3l-132.9,30c-2.7,0.6-3.7,2.2-3.1,4.9l4,17.7c0.7,2.9,2.5,4.1,5.4,3.4l162.3-36.6
		c2.9-0.7,5.2-0.7,6.7-0.2c1.5,0.5,2.7,2.5,3.5,6l6.1,26.9C151.8,538.2,149.7,541.4,144.3,542.6z"/>
	<path id="XMLID_127_" d="M388.7,350l-210.4,47.4c-5.6,1.3-9.1-1-10.4-6.9l-5-22.1c-1.3-5.9,1-9.5,6.8-10.8l210-47.3
		c5.9-1.3,9.5,1,10.8,6.8l5.1,22.5C396.9,345.2,394.6,348.7,388.7,350z M325.5,309l-104.4,23.5c-2.1,0.5-4.2,0.4-6.2-0.3
		c-2-0.7-3.4-2.9-4.2-6.6l-5.1-22.5c-0.8-3.7-0.5-6.3,1-7.6c1.5-1.3,3.4-2.2,5.5-2.7l104.4-23.5c5.9-1.3,9.5,1,10.8,6.8l4.9,21.7
		c0.7,3.2,0.7,5.7,0,7.4C331.5,306.8,329.2,308.1,325.5,309z M315.3,503.7c-11.8,2.7-23.3,3.6-34.6,2.9c-11.3-0.7-21.5-2.8-30.8-6.4
		c-9.2-3.5-17-8.5-23.4-14.8c-6.3-6.3-10.5-13.9-12.5-22.7s-1.4-17.5,1.8-25.9c3.2-8.4,8.2-16.2,15-23.2c6.9-7,15.3-13.2,25.4-18.6
		c10-5.4,21-9.4,32.7-12c11.8-2.7,23.4-3.7,34.7-3.2c11.4,0.5,21.7,2.5,30.9,5.9c9.2,3.4,17.1,8.3,23.5,14.5
		c6.5,6.3,10.7,13.8,12.7,22.7s1.5,17.5-1.5,26.1c-3,8.6-8,16.4-14.9,23.6c-7,7.2-15.5,13.5-25.7,18.9
		C338.5,496.9,327.4,501,315.3,503.7z M297.7,421.6c-12,2.7-20.6,7-25.8,13c-5.1,5.9-7.1,11.5-6,16.5c1.3,5.6,5.6,10.1,13.1,13.3
		c7.5,3.2,17,3.6,28.5,1c11.8-2.7,20.3-7,25.5-13.1c5.2-6.1,7.2-12,6-17.6c-1.1-5.1-5.3-9.2-12.5-12.4
		C319.3,419.1,309.7,418.9,297.7,421.6z"/>
	<path id="XMLID_132_" d="M697.1,403.7l-39.4,8.9c-5.9,1.3-9.4-0.7-10.6-6l-9.7-43c-14.7,4.7-28.5,9-41.4,12.7
		c-12.9,3.8-25.9,7.4-38.9,10.9c-13,3.5-26.6,7-40.7,10.4c-14.1,3.5-30,7.2-47.7,11.2c-2.9,0.7-5,0.5-6.2-0.5c-1.2-1-2.1-3-2.8-5.9
		l-6.6-29.3c-1.1-4.8,0.9-7.8,6-8.9c16.9-3.8,32-7.3,45.5-10.5c13.5-3.2,26.6-6.3,39.2-9.5c12.7-3.1,25.7-6.6,39-10.3
		c13.4-3.7,28.4-8,45-12.9l-5.4-24.1c-0.9-4-3.2-5.6-7-4.8l-159.8,36c-2.1,0.5-4.1,0.5-5.9,0.1c-1.8-0.4-3-2.1-3.7-5.1l-7-30.9
		c-0.8-3.5-0.4-5.7,1-6.8c1.5-1,3.3-1.8,5.4-2.3l193.2-43.5c5.9-1.3,10.7-1.9,14.6-1.8c3.8,0.1,7,1.2,9.6,3.1c2.6,2,4.7,4.8,6.3,8.5
		c1.7,3.7,3.2,8.4,4.4,14L702.9,394C704.1,399.3,702.2,402.6,697.1,403.7z"/>
	<path id="XMLID_134_" d="M965.6,347.9l-181.9,41c-5.9,1.3-10.8,2-14.7,2.1c-3.9,0-7.2-0.7-9.8-2.2c-2.6-1.5-4.7-3.9-6.3-7.2
		c-1.6-3.3-3-7.8-4.3-13.4l-26.4-117.3c-2.5-11.2-2.1-19.1,1.2-23.7c3.3-4.5,10.5-8.1,21.5-10.5L924.7,176c2.9-0.7,5.1-0.6,6.6,0.2
		c1.4,0.8,2.5,2.7,3.2,5.6l6.2,27.3c0.7,3,0.5,5.1-0.4,6.4c-1,1.3-2.9,2.3-5.9,3l-147,33.1c-4.3,1-6,3.3-5.2,7.1l3.8,16.9L935.4,242
		c2.7-0.6,4.8-0.6,6.3,0c1.5,0.6,2.7,2.6,3.4,5.8l6.1,26.9c0.8,3.8,0.6,6.1-0.8,6.9c-1.4,0.9-3.2,1.6-5.6,2.1l-149.4,33.7l3.9,17.3
		c0.5,2.1,1.2,3.5,2.2,4.1s2.8,0.6,5.5,0l149-33.6c3.5-0.8,6-1,7.5-0.6c1.5,0.4,2.6,2.3,3.4,5.8l6,26.5c0.8,3.8,0.6,6.3-0.8,7.8
		C970.7,346.1,968.5,347.2,965.6,347.9z"/>
	<path id="XMLID_136_" d="M1013.9,334c-3.6,1.4-6.1,2.1-7.5,2.1c-1.4,0-3.1-1.3-5.1-3.9l-15.6-26c-2.2-3.7-2.8-6.3-1.6-7.9
		c1.2-1.5,3.3-2.9,6.4-4.2c15.5-6,30-12,43.4-18c13.4-6,26.1-12,37.9-18c11.9-6,23.1-12.4,33.7-19c10.6-6.6,21-13.6,31.2-20.9
		c3.7-2.5,5.6-4.6,5.8-6.2c0.2-1.6-2.4-1.8-7.7-0.6l-126.1,28.4c-4.6,1-7.3-0.7-8.4-5.3l-6.2-27.7c-0.7-2.9-0.7-5-0.1-6.1
		c0.6-1.1,2.4-2,5.3-2.7l187.2-42.2c13.1-3,22.9-3.1,29.2-0.5c6.4,2.6,10.3,7.5,11.9,14.4c1.9,8.6-0.2,18.2-6.4,28.9
		c-6.2,10.7-15.6,21.8-28.1,33.4c13.6,0.6,27.2,0.6,40.5,0.1s26-1.2,37.9-2.2c3.1-0.1,5,0.5,5.9,1.8c0.9,1.4,1.2,3.3,0.9,5.9
		l-3.5,29.5c-0.3,2.6-1,4.4-2.2,5.3c-1.2,1-3.4,1.6-6.8,1.7c-8.2,1-17.4,1.7-27.4,2c-10.1,0.3-20.7,0.4-31.8,0.4
		c-11.1,0-22.5-0.3-34.2-0.9c-11.7-0.6-23.1-1.5-34.3-2.6c-17.8,11-37.2,21.7-58.2,32.1C1059,315.5,1037,325.2,1013.9,334z
		 M1158,143.7l-109.6,24.7c-2.1,0.5-4,0.5-5.7,0c-1.7-0.5-2.9-2.6-3.7-6.3l-6.1-26.9c-0.7-2.9-0.4-5,0.9-6.3c1.3-1.3,3-2.1,5.1-2.6
		l109.6-24.7c5.1-1.1,8.2,0.8,9.4,5.9l5.9,26.1C1165,139.2,1163.1,142.6,1158,143.7z"/>
	<path id="XMLID_139_" d="M1539.2,210.1l-243.8,54.9c-6.2,1.4-9.9-0.9-11.2-6.8l-6.1-26.9c-1.3-5.6,1.2-9.1,7.3-10.5l42.6-9.6
		l-16.4-72.7l-33.7,7.6c-6.2,1.4-9.9-0.9-11.2-6.8l-6-26.5c-0.7-3.2-0.4-5.7,1.1-7.4c1.4-1.7,3.5-2.9,6.2-3.5l226.1-51
		c5.9-1.3,9.5,1,10.8,6.8l6.2,27.3c1.2,5.4-1.1,8.7-7,10l-33.3,7.5l16.4,72.7l42.2-9.5c5.9-1.3,9.5,0.8,10.7,6.4l6.2,27.3
		C1547.4,205.3,1545.1,208.8,1539.2,210.1z M1382.7,199l50.2-11.3l-16.4-72.7l-50.2,11.3L1382.7,199z"/>
	<path id="XMLID_142_" d="M1774,158.1l-159.8,36c-6.4,1.4-11.7,2.2-15.9,2.3c-4.2,0.1-7.7-0.6-10.4-2.1c-2.7-1.5-5-4-6.8-7.5
		c-1.8-3.5-3.4-8.4-4.8-14.5l-29.5-130.9c-1.1-4.8,0.9-7.8,6-8.9l39.8-9c2.9-0.7,5.1-0.7,6.5,0c1.4,0.7,2.5,2.5,3.1,5.4l8,35.3
		l110.4-24.9l-8.3-36.9c-0.7-2.9-0.5-5.1,0.7-6.5c1.1-1.4,3-2.4,5.7-3l40.6-9.1c2.4-0.5,4.3-0.4,5.8,0.4c1.4,0.8,2.5,2.7,3.2,5.6
		l30.1,133.7c2.4,10.4,2,18.1-0.9,23C1794.3,151.4,1786.5,155.2,1774,158.1z M1730.6,83.8l-110.4,24.9l7,30.9
		c0.5,2.4,2.2,3.3,4.8,2.7l102.8-23.2c2.4-0.5,3.3-2,2.8-4.4L1730.6,83.8z"/>
	<path id="XMLID_145_" d="M2037.9-7.8c-4,6-8.5,12.1-13.6,18.5c-5,6.3-10.7,12.6-16.9,18.8c5.8,0.9,12.6,1.8,20.4,2.6
		c7.8,0.8,15.8,1.4,24,1.8c8.2,0.4,16.3,0.7,24.3,1.1c7.9,0.3,15,0.5,21.2,0.5c4.8,0,6.8,2.8,6.1,8.3l-5.9,33.8
		c-0.5,2.7-1.6,4.4-3.3,5.2c-1.7,0.8-4,1.3-7.1,1.4c-8.2-0.1-17.4-0.6-27.5-1.4c-10.2-0.8-20.7-1.8-31.5-3
		c-10.8-1.2-21.7-2.6-32.6-4.3c-10.9-1.6-21.4-3.5-31.5-5.8c-16.9,13.7-34.7,26.5-53.5,38.7c-18.8,12.1-37.6,22.5-56.5,31.3
		c-3.6,1.6-6,2.3-7.4,1.9c-1.4-0.4-2.7-1.6-4-3.5l-19-28.2c-1.3-2.2-1.9-4.1-1.7-5.5c0.2-1.5,2.1-3.1,5.6-5.1
		c12.3-6.4,25-13.6,38-21.4c13-7.8,25.5-16,37.5-24.5c12-8.5,23.4-17.1,34-26c10.7-8.9,19.9-17.6,27.9-26.1c4-4.6,5.5-7.6,4.3-9.2
		c-1.2-1.6-4.1-1.8-8.6-0.8l-125.3,28.2c-2.9,0.7-5,0.6-6.1-0.1c-1.2-0.7-2.1-2.7-2.8-5.9l-6.7-29.7c-0.7-2.9-0.6-4.9,0.1-5.9
		c0.8-1,2.6-1.9,5.6-2.5l181.5-40.9c13.7-3.1,23.8-3.2,30.3-0.3c6.6,2.9,10.6,7.8,12.2,14.8c1.2,5.4,0.7,12.1-1.4,20.1
		C2046.1-23.1,2042.7-15.3,2037.9-7.8z"/>
	<path id="XMLID_147_" d="M-1468.4,1127.5l-194.4,43.8c-5.9,1.3-10.7,1.9-14.6,1.8c-3.8-0.1-7-1-9.4-2.5c-2.5-1.6-4.4-3.9-5.8-7.1
		c-1.4-3.2-2.7-7.2-3.8-12l-12.9-57.4c-1.1-5.1-1.7-9.3-1.8-12.7c-0.1-3.4,0.7-6.3,2.3-8.7c1.6-2.5,4-4.5,7.3-6.1
		c3.3-1.6,7.9-3,13.8-4.4l134.1-30.2c2.4-0.5,3.3-2.3,2.6-5.2l-4.4-19.7c-0.7-3.2-2.4-4.5-5.1-3.9l-153.8,34.7
		c-2.9,0.7-5.1,0.6-6.6-0.2c-1.4-0.8-2.5-2.8-3.3-6l-6.1-26.9c-1.1-5.1,1-8.2,6.3-9.4l183.9-41.5c12-2.7,20.2-2.5,24.6,0.6
		c4.4,3.1,7.6,9.5,9.8,19.1l13.6,60.2c1.2,5.4,1.8,9.8,1.9,13.3c0.1,3.5-0.6,6.4-2.1,8.7c-1.5,2.3-4,4.2-7.6,5.7
		c-3.6,1.5-8.3,2.9-14.2,4.3l-132.9,30c-2.7,0.6-3.7,2.2-3.1,4.9l4,17.7c0.7,2.9,2.5,4.1,5.4,3.4l162.3-36.6
		c2.9-0.7,5.2-0.7,6.7-0.2c1.5,0.5,2.7,2.5,3.5,6l6.1,26.9C-1461,1123-1463,1126.3-1468.4,1127.5z"/>
	<path id="XMLID_149_" d="M-1224,934.9l-210.4,47.4c-5.6,1.3-9.1-1-10.4-6.9l-5-22.1c-1.3-5.9,1-9.5,6.8-10.8l210-47.3
		c5.9-1.3,9.5,1,10.8,6.8l5.1,22.5C-1215.8,930.1-1218.1,933.5-1224,934.9z M-1287.3,893.8l-104.4,23.5c-2.1,0.5-4.2,0.4-6.2-0.3
		c-2-0.7-3.4-2.9-4.2-6.6l-5.1-22.5c-0.8-3.7-0.5-6.3,1-7.6c1.5-1.3,3.4-2.2,5.5-2.7l104.4-23.5c5.9-1.3,9.5,1,10.8,6.8l4.9,21.7
		c0.7,3.2,0.7,5.7,0,7.4C-1281.3,891.7-1283.5,893-1287.3,893.8z M-1297.4,1088.6c-11.8,2.7-23.3,3.6-34.6,2.9
		c-11.3-0.7-21.5-2.8-30.8-6.4c-9.2-3.5-17-8.5-23.4-14.8c-6.3-6.3-10.5-13.9-12.5-22.7s-1.4-17.5,1.8-25.9
		c3.2-8.4,8.2-16.2,15-23.2c6.9-7,15.3-13.2,25.4-18.6c10-5.4,21-9.4,32.7-12c11.8-2.7,23.4-3.7,34.7-3.2
		c11.4,0.5,21.7,2.5,30.9,5.9s17.1,8.3,23.5,14.5c6.5,6.3,10.7,13.8,12.7,22.7s1.5,17.5-1.5,26.1c-3,8.6-8,16.4-14.9,23.6
		c-7,7.2-15.5,13.5-25.7,18.9C-1274.2,1081.8-1285.3,1085.9-1297.4,1088.6z M-1315.1,1006.5c-12,2.7-20.6,7-25.8,13
		c-5.1,5.9-7.1,11.5-6,16.5c1.3,5.6,5.6,10.1,13.1,13.3c7.5,3.2,17,3.6,28.5,1c11.8-2.7,20.3-7,25.5-13.1c5.2-6.1,7.2-12,6-17.6
		c-1.1-5.1-5.3-9.2-12.5-12.4C-1293.4,1004-1303,1003.7-1315.1,1006.5z"/>
	<path id="XMLID_154_" d="M-923.9,995.1l-181.9,41c-5.9,1.3-10.8,2-14.7,2.1c-3.9,0-7.2-0.7-9.8-2.2c-2.6-1.5-4.7-3.9-6.3-7.2
		c-1.6-3.3-3-7.8-4.3-13.4l-26.4-117.3c-2.5-11.2-2.1-19.1,1.2-23.7c3.3-4.5,10.5-8.1,21.5-10.5l179.9-40.5c2.9-0.7,5.1-0.6,6.6,0.2
		c1.4,0.8,2.5,2.7,3.2,5.6l6.2,27.3c0.7,2.9,0.5,5.1-0.4,6.4c-1,1.3-2.9,2.3-5.9,3l-147,33.1c-4.3,1-6,3.3-5.2,7.1l3.8,16.9
		l149.4-33.7c2.7-0.6,4.8-0.6,6.3,0c1.5,0.6,2.7,2.6,3.4,5.8l6.1,26.9c0.8,3.8,0.6,6.1-0.8,6.9c-1.4,0.9-3.2,1.6-5.6,2.1
		l-149.4,33.7l3.9,17.3c0.5,2.1,1.2,3.5,2.2,4.1c1,0.6,2.8,0.6,5.5,0l149-33.6c3.5-0.8,6-1,7.5-0.6c1.5,0.4,2.6,2.3,3.4,5.8l6,26.5
		c0.8,3.8,0.6,6.3-0.8,7.8C-918.8,993.4-920.9,994.4-923.9,995.1z"/>
	<path id="XMLID_156_" d="M-875.5,981.3c-3.6,1.4-6.1,2.1-7.5,2.1c-1.4,0-3.1-1.3-5.1-3.9l-15.6-26c-2.2-3.7-2.8-6.3-1.6-7.9
		c1.2-1.5,3.3-2.9,6.4-4.2c15.5-6,30-12,43.4-18c13.4-6,26.1-12,37.9-18c11.9-6,23.1-12.4,33.7-19c10.6-6.6,21-13.6,31.1-20.9
		c3.7-2.5,5.6-4.6,5.8-6.2c0.2-1.6-2.4-1.8-7.7-0.6L-880.7,887c-4.6,1-7.3-0.7-8.4-5.3l-6.2-27.7c-0.7-2.9-0.7-5-0.1-6.1
		c0.6-1.1,2.4-2,5.3-2.7l187.2-42.2c13.1-3,22.9-3.1,29.2-0.5c6.4,2.6,10.3,7.5,11.9,14.4c1.9,8.6-0.2,18.2-6.4,28.9
		c-6.2,10.7-15.6,21.8-28.1,33.4c13.6,0.6,27.2,0.6,40.5,0.1c13.4-0.5,26-1.2,37.9-2.2c3.1-0.1,5,0.5,5.9,1.8
		c0.9,1.4,1.2,3.3,0.9,5.9l-3.5,29.5c-0.3,2.6-1,4.4-2.2,5.3c-1.2,1-3.4,1.6-6.8,1.7c-8.2,1-17.3,1.7-27.4,2
		c-10.1,0.3-20.7,0.4-31.8,0.4c-11.1,0-22.5-0.3-34.2-0.9c-11.7-0.6-23.1-1.5-34.3-2.6c-17.8,11-37.2,21.7-58.2,32.1
		C-830.5,962.8-852.5,972.4-875.5,981.3z M-731.5,791l-109.6,24.7c-2.1,0.5-4,0.5-5.7,0c-1.7-0.5-2.9-2.6-3.7-6.3l-6.1-26.9
		c-0.7-2.9-0.4-5,0.9-6.3c1.3-1.3,3-2.1,5.1-2.6l109.6-24.7c5.1-1.1,8.2,0.8,9.4,5.9l5.9,26.1C-724.5,786.4-726.4,789.8-731.5,791z"
		/>
	<path id="XMLID_159_" d="M-350.2,857.4L-594,912.3c-6.2,1.4-9.9-0.9-11.2-6.8l-6.1-26.9c-1.3-5.6,1.2-9.1,7.3-10.5l42.6-9.6
		l-16.4-72.7l-33.7,7.6c-6.2,1.4-9.9-0.9-11.2-6.8l-6-26.5c-0.7-3.2-0.4-5.7,1.1-7.4c1.4-1.7,3.5-2.9,6.2-3.5l226.1-51
		c5.9-1.3,9.5,1,10.8,6.8l6.2,27.3c1.2,5.4-1.1,8.7-7,10l-33.3,7.5l16.4,72.7l42.2-9.5c5.9-1.3,9.5,0.8,10.7,6.4l6.2,27.3
		C-342,852.6-344.3,856-350.2,857.4z M-506.7,846.2l50.2-11.3l-16.4-72.7l-50.2,11.3L-506.7,846.2z"/>
	<path id="XMLID_162_" d="M-115.5,805.3l-159.8,36c-6.4,1.4-11.7,2.2-15.9,2.3c-4.2,0.1-7.7-0.6-10.4-2.1c-2.7-1.5-5-4-6.8-7.5
		c-1.8-3.5-3.4-8.4-4.8-14.5l-29.5-130.9c-1.1-4.8,0.9-7.8,6-8.9l39.8-9c2.9-0.7,5.1-0.7,6.5,0c1.4,0.7,2.5,2.5,3.1,5.4l8,35.3
		l110.4-24.9l-8.3-36.9c-0.7-2.9-0.5-5.1,0.6-6.5c1.1-1.4,3-2.4,5.7-3l40.6-9.1c2.4-0.5,4.3-0.4,5.8,0.4c1.4,0.8,2.5,2.7,3.2,5.6
		l30.1,133.7c2.4,10.4,2,18.1-0.9,23C-95.1,798.6-102.9,802.5-115.5,805.3z M-158.8,731.1L-269.2,756l7,30.9
		c0.5,2.4,2.2,3.3,4.8,2.7l102.8-23.2c2.4-0.5,3.3-2,2.8-4.4L-158.8,731.1z"/>
	<path id="XMLID_165_" d="M148.5,639.5c-4,6-8.5,12.1-13.6,18.5c-5,6.3-10.7,12.6-16.9,18.8c5.8,0.9,12.6,1.8,20.4,2.6
		c7.8,0.8,15.8,1.4,24,1.8c8.2,0.4,16.3,0.7,24.3,1.1c7.9,0.3,15,0.5,21.2,0.5c4.8,0,6.8,2.8,6.1,8.3l-5.9,33.8
		c-0.5,2.7-1.6,4.4-3.3,5.2c-1.7,0.8-4,1.3-7.1,1.4c-8.2-0.1-17.4-0.6-27.5-1.4c-10.2-0.8-20.7-1.8-31.5-3
		c-10.8-1.2-21.7-2.6-32.6-4.3c-10.9-1.6-21.4-3.5-31.5-5.8c-16.9,13.7-34.7,26.5-53.5,38.7c-18.8,12.1-37.6,22.5-56.5,31.3
		c-3.6,1.6-6,2.3-7.4,1.9c-1.4-0.4-2.7-1.6-4-3.5l-19-28.2c-1.3-2.2-1.9-4.1-1.7-5.5c0.2-1.5,2.1-3.1,5.6-5.1
		c12.3-6.4,25-13.6,38-21.4c13-7.8,25.5-16,37.5-24.5c12-8.5,23.4-17.1,34-26c10.7-8.9,19.9-17.6,27.9-26.1c4-4.6,5.5-7.6,4.3-9.2
		c-1.2-1.6-4.1-1.8-8.6-0.8l-125.3,28.2c-2.9,0.7-5,0.6-6.1-0.1c-1.2-0.7-2.1-2.7-2.8-5.9l-6.7-29.7c-0.7-2.9-0.6-4.9,0.1-5.9
		c0.8-1,2.6-1.9,5.6-2.5l181.5-40.9c13.7-3.1,23.8-3.2,30.3-0.3c6.6,2.9,10.6,7.8,12.2,14.8c1.2,5.4,0.7,12.1-1.4,20.1
		C156.7,624.1,153.2,631.9,148.5,639.5z"/>
	<path id="XMLID_167_" d="M463.4,674l-189.6,42.7c-12,2.7-20.6,2.3-25.6-1.2c-5-3.5-8.8-10.8-11.2-21.7L213.9,591
		c-2.7-11.8-2.1-19.8,1.8-24c3.8-4.2,11.2-7.6,22.2-10.1l181.9-41c5.4-1.2,8.6,0.9,9.8,6.2l6.7,29.7c1.2,5.4-0.9,8.6-6.2,9.8
		l-151.8,34.2c-2.9,0.7-4.1,2.5-3.4,5.4l13.3,59c0.7,3.2,2.4,4.5,5.1,3.9l158.2-35.7c5.9-1.3,9.4,0.4,10.5,5.2l6.8,30.1
		c0.8,3.8,0.9,6.2,0.2,7.3C468.2,672.4,466.4,673.3,463.4,674z"/>
	<path id="XMLID_169_" d="M738.9,611.5l-39.4,8.9c-5.9,1.3-9.4-0.7-10.6-6l-22.7-100.8c-0.9-4-3.2-5.6-7-4.8l-155,34.9
		c-2.1,0.5-4.1,0.5-5.9,0.1c-1.8-0.4-3-2.1-3.7-5.1l-7.1-31.3c-0.8-3.7-0.5-6.1,0.9-7.2c1.5-1,3.3-1.8,5.4-2.3l188.4-42.5
		c5.9-1.3,10.7-1.9,14.6-1.8c3.8,0.1,7,1.2,9.6,3.1c2.6,2,4.7,4.8,6.3,8.5c1.7,3.7,3.2,8.4,4.4,14l27.6,122.5
		C745.9,607.1,743.9,610.4,738.9,611.5z"/>
	<path id="XMLID_171_" d="M790.2,601.6c-3.5,1.9-5.9,2.7-7.2,2.5c-1.3-0.3-2.6-1.4-3.9-3.3l-21.3-31.1c-2.6-3.9-1.2-7.3,4-10.2
		c16.6-8.8,30.6-18.8,42-29.9c11.4-11.2,20.6-22.9,27.5-35.3c6.9-12.4,11.6-25.1,14.2-38.2c2.5-13.1,3.2-26.1,2-39.1
		c0-1.4,0.5-2.9,1.7-4.6c1.2-1.7,2.8-2.7,5-3.2l41.8-7.3c4.4-0.4,6.9,2.5,7.5,8.9c0.6,9.1,0.9,17.8,0.8,26
		c6.8,9.2,15.2,17.4,25.2,24.7c9.9,7.3,20.7,13.6,32.3,18.7c11.6,5.1,23.5,9,35.9,11.5c12.4,2.6,24.3,3.7,35.8,3.3
		c3.9,0,6.2,0.8,6.9,2.5c0.7,1.7,0.8,3.7,0.5,6l-5.9,35.5c-0.7,4.4-4.4,6.5-11.2,6.3c-11-0.1-22.4-1.3-34.4-3.6
		c-11.9-2.4-23.7-5.8-35.3-10.4c-11.6-4.6-22.7-10.1-33.5-16.5c-10.7-6.4-20.3-13.5-28.8-21.1c-8.6,21.6-21.3,41.8-38.1,60.5
		C836.8,572.7,815.7,588.6,790.2,601.6z"/>
	<path id="XMLID_173_" d="M1269.5,486.8L1106,523.7c-6.7,1.5-12.1,2.3-16.3,2.4c-4.2,0.1-7.7-0.7-10.5-2.5c-2.8-1.8-5-4.4-6.7-8
		c-1.6-3.6-3.1-8.3-4.5-14.2l-21.7-96.4c-2.7-11.8-2.4-20.1,0.7-25.1c3.1-4.9,10.3-8.6,21.5-11.2l163.9-36.9
		c6.7-1.5,12.2-2.2,16.4-2.2c4.2,0,7.7,0.9,10.5,2.7c2.8,1.8,5,4.5,6.7,8.2c1.7,3.7,3.2,8.5,4.5,14.4l21.7,96.4
		c1.3,5.9,1.9,10.8,1.9,14.8c-0.1,4-1,7.3-2.8,9.9c-1.8,2.7-4.5,4.8-8,6.5C1279.7,484.1,1275.1,485.6,1269.5,486.8z M1219.3,387.6
		c-0.7-3.2-2.6-4.5-5.5-3.8l-103.6,23.4c-3.5,0.8-4.8,2.9-4,6.4l12.3,54.6c0.7,3.2,2.8,4.4,6.3,3.6l103.2-23.3
		c1.9-0.4,3.1-0.9,3.7-1.5c0.6-0.6,0.6-2.2,0-4.8L1219.3,387.6z"/>
	<path id="XMLID_176_" d="M1561.3,339.6c2.7,11.8,2.4,23.4-0.8,34.8c-3.2,11.4-9,22.1-17.3,32c-8.3,9.9-19.1,18.7-32.5,26.3
		c-13.3,7.6-28.8,13.5-46.5,17.4c-19,4.3-36.2,5.9-51.4,4.8c-15.3-1.1-28.6-4.3-40-9.8c-11.4-5.5-20.6-12.8-27.8-22
		c-7.1-9.2-12-19.7-14.7-31.5c-2.6-11.5-2.6-23-0.1-34.4c2.5-11.4,7.7-22.1,15.6-32c7.9-9.9,18.5-18.7,31.8-26.4
		c13.3-7.6,29.5-13.6,48.5-17.9c17.7-4,34.2-5.4,49.4-4.4c15.3,1.1,28.8,4.3,40.6,9.6c11.8,5.4,21.5,12.6,29.4,21.7
		C1553.3,317,1558.5,327.6,1561.3,339.6z M1505.3,353.5c-2.5-11.2-10-19.6-22.5-25.1c-12.5-5.5-28-6.1-46.4-2
		c-19.8,4.5-33.6,11.7-41.5,21.8c-7.9,10.1-10.5,20.7-8,32c2.3,10.2,9.2,18,20.7,23.6c11.5,5.6,27.1,6.1,46.6,1.7
		c9.1-2.1,17.1-5,24-8.8c6.9-3.8,12.5-8,17-12.7c4.4-4.7,7.5-9.6,9.3-15C1506.1,363.8,1506.5,358.6,1505.3,353.5z"/>
	<path id="XMLID_179_" d="M1852.1,379.2L1657.7,423c-5.9,1.3-10.7,1.9-14.6,1.8c-3.8-0.1-7-1-9.4-2.5s-4.4-3.9-5.8-7.1
		c-1.4-3.2-2.7-7.2-3.8-12l-12.9-57.4c-1.1-5.1-1.8-9.3-1.8-12.7c-0.1-3.4,0.7-6.3,2.3-8.7c1.6-2.5,4-4.5,7.3-6.1
		c3.3-1.6,7.9-3,13.8-4.4l134.1-30.2c2.4-0.5,3.3-2.3,2.6-5.2l-4.4-19.7c-0.7-3.2-2.4-4.5-5.1-3.9l-153.8,34.7
		c-2.9,0.7-5.1,0.6-6.6-0.2c-1.4-0.8-2.5-2.8-3.3-6l-6.1-26.9c-1.1-5.1,1-8.2,6.3-9.4l183.9-41.5c12-2.7,20.2-2.5,24.6,0.6
		c4.4,3.1,7.6,9.5,9.8,19.1l13.6,60.2c1.2,5.4,1.8,9.8,1.9,13.3c0.1,3.5-0.6,6.4-2.1,8.7c-1.5,2.3-4,4.2-7.6,5.7
		c-3.6,1.5-8.3,2.9-14.2,4.3l-132.9,30c-2.7,0.6-3.7,2.2-3.1,4.9l4,17.7c0.7,2.9,2.5,4.1,5.4,3.4l162.2-36.6
		c2.9-0.7,5.2-0.7,6.7-0.2c1.5,0.5,2.7,2.5,3.5,6l6.1,26.9C1859.5,374.7,1857.4,378,1852.1,379.2z"/>
	<path id="XMLID_181_" d="M-1652.6,1373.6c-3.5,1.9-5.9,2.7-7.2,2.5c-1.3-0.3-2.6-1.4-3.9-3.3l-21.3-31.1c-2.6-3.9-1.2-7.3,4-10.2
		c16.6-8.8,30.6-18.8,42-29.9c11.4-11.2,20.6-22.9,27.5-35.3c6.9-12.4,11.6-25.1,14.2-38.2c2.5-13.1,3.2-26.1,2-39.1
		c0-1.4,0.5-2.9,1.7-4.6c1.2-1.7,2.8-2.7,5-3.2l41.8-7.3c4.4-0.4,6.9,2.5,7.5,8.9c0.6,9.1,0.9,17.8,0.8,26
		c6.8,9.2,15.2,17.4,25.2,24.7c9.9,7.3,20.7,13.6,32.3,18.7c11.6,5.1,23.5,9,35.9,11.5c12.4,2.6,24.3,3.7,35.8,3.3
		c3.9,0,6.2,0.8,6.9,2.5c0.7,1.7,0.8,3.7,0.5,6l-5.9,35.5c-0.7,4.4-4.4,6.5-11.2,6.3c-11-0.1-22.4-1.3-34.4-3.6
		c-11.9-2.4-23.7-5.8-35.3-10.4s-22.7-10.1-33.5-16.5c-10.7-6.4-20.3-13.5-28.8-21.1c-8.6,21.6-21.3,41.8-38.1,60.5
		C-1606.1,1344.7-1627.2,1360.5-1652.6,1373.6z"/>
	<path id="XMLID_183_" d="M-1173.4,1258.8l-163.5,36.8c-6.7,1.5-12.1,2.3-16.3,2.4s-7.7-0.7-10.5-2.5c-2.8-1.8-5-4.4-6.7-8
		c-1.6-3.6-3.1-8.3-4.5-14.2l-21.7-96.4c-2.7-11.8-2.4-20.1,0.7-25.1c3.1-4.9,10.3-8.6,21.5-11.2l163.9-36.9
		c6.7-1.5,12.2-2.2,16.4-2.2c4.2,0,7.7,0.9,10.5,2.7c2.8,1.8,5,4.5,6.7,8.2c1.7,3.7,3.2,8.5,4.5,14.4l21.7,96.4
		c1.3,5.9,1.9,10.8,1.9,14.8c-0.1,4-1,7.3-2.8,9.9c-1.8,2.7-4.5,4.8-8,6.5C-1163.1,1256.1-1167.7,1257.6-1173.4,1258.8z
		 M-1223.6,1159.6c-0.7-3.2-2.6-4.5-5.5-3.8l-103.6,23.4c-3.5,0.8-4.8,2.9-4,6.4l12.3,54.6c0.7,3.2,2.8,4.4,6.3,3.6l103.2-23.3
		c1.9-0.4,3.1-0.9,3.7-1.5c0.6-0.5,0.6-2.2,0-4.8L-1223.6,1159.6z"/>
	<path id="XMLID_186_" d="M-875.2,1192.5l-189.6,42.7c-5.6,1.3-10.3,1.8-14.2,1.7c-3.8-0.1-7-1-9.5-2.7c-2.5-1.7-4.6-4.3-6.2-7.9
		c-1.6-3.6-3.1-8.2-4.4-13.8l-27.3-121.3c-1.3-5.6,0.8-9,6.1-10.2l39.4-8.9c5.6-1.3,9.1,0.9,10.3,6.5l22.2,98.4
		c0.9,4,3.4,5.6,7.4,4.7l155.4-35c2.1-0.5,4.2-0.5,6.1,0.1c2,0.6,3.3,2.3,3.9,5.2l7.1,31.3c0.8,3.8,0.5,6.1-1.2,7
		C-871.2,1191.3-873,1192-875.2,1192.5z"/>
	<path id="XMLID_188_" d="M-604.9,1049.3c2.7,11.8,2.4,23.4-0.8,34.8c-3.2,11.4-9,22.1-17.3,32s-19.1,18.7-32.5,26.3
		c-13.3,7.6-28.8,13.5-46.5,17.4c-19,4.3-36.2,5.9-51.4,4.8c-15.3-1.1-28.6-4.3-40-9.8c-11.4-5.5-20.6-12.8-27.8-22
		c-7.1-9.2-12-19.7-14.7-31.5c-2.6-11.5-2.6-23-0.1-34.4c2.5-11.4,7.7-22.1,15.6-32c7.9-9.9,18.5-18.7,31.8-26.4
		c13.3-7.6,29.5-13.6,48.5-17.9c17.7-4,34.2-5.4,49.4-4.4c15.3,1.1,28.8,4.3,40.6,9.6c11.8,5.4,21.5,12.6,29.4,21.7
		C-612.9,1026.6-607.6,1037.2-604.9,1049.3z M-660.8,1063.1c-2.5-11.2-10-19.6-22.5-25.1c-12.5-5.5-28-6.1-46.4-2
		c-19.8,4.5-33.6,11.7-41.5,21.8c-7.9,10.1-10.5,20.7-8,32c2.3,10.2,9.2,18,20.7,23.6c11.5,5.6,27.1,6.1,46.6,1.7
		c9.1-2.1,17.1-5,24-8.8c6.9-3.8,12.5-8,17-12.7c4.4-4.7,7.5-9.6,9.3-15C-660,1073.4-659.7,1068.2-660.8,1063.1z"/>
	<path id="XMLID_191_" d="M-314.1,1088.8l-194.4,43.8c-5.9,1.3-10.7,1.9-14.6,1.8c-3.8-0.1-7-1-9.4-2.5c-2.5-1.6-4.4-3.9-5.8-7.1
		c-1.4-3.2-2.7-7.2-3.8-12l-12.9-57.4c-1.1-5.1-1.7-9.3-1.8-12.7c-0.1-3.4,0.7-6.3,2.3-8.7c1.6-2.5,4-4.5,7.3-6.1
		c3.3-1.6,7.9-3,13.8-4.4l134.1-30.2c2.4-0.5,3.3-2.3,2.6-5.2l-4.4-19.7c-0.7-3.2-2.4-4.5-5.1-3.9l-153.8,34.7
		c-2.9,0.7-5.1,0.6-6.6-0.2c-1.4-0.8-2.5-2.8-3.3-6l-6.1-26.9c-1.1-5.1,1-8.2,6.3-9.4l183.9-41.5c12-2.7,20.2-2.5,24.6,0.6
		c4.4,3.1,7.6,9.5,9.8,19.1l13.6,60.2c1.2,5.4,1.8,9.8,1.9,13.3c0.1,3.5-0.6,6.4-2,8.7c-1.5,2.3-4,4.2-7.6,5.7
		c-3.6,1.5-8.3,2.9-14.2,4.3l-132.9,30c-2.7,0.6-3.7,2.2-3.1,4.9l4,17.7c0.7,3,2.5,4.1,5.4,3.4l162.3-36.6c2.9-0.7,5.2-0.7,6.7-0.2
		c1.5,0.5,2.7,2.5,3.5,6l6.1,26.9C-306.7,1084.3-308.7,1087.6-314.1,1088.8z"/>
	<path id="XMLID_193_" d="M-69.7,896.1l-210.4,47.4c-5.6,1.3-9.1-1-10.4-6.9l-5-22.1c-1.3-5.9,1-9.5,6.8-10.8l210-47.3
		c5.9-1.3,9.5,1,10.8,6.8l5.1,22.5C-61.5,891.3-63.8,894.8-69.7,896.1z M-133,855.1l-104.4,23.5c-2.1,0.5-4.2,0.4-6.2-0.3
		c-2-0.7-3.4-2.9-4.2-6.6l-5.1-22.5c-0.8-3.7-0.5-6.3,1-7.6c1.5-1.3,3.4-2.2,5.5-2.7l104.4-23.5c5.9-1.3,9.5,1,10.8,6.8l4.9,21.7
		c0.7,3.2,0.7,5.7,0,7.4C-127,853-129.2,854.3-133,855.1z M-143.1,1049.8c-11.8,2.7-23.3,3.6-34.6,2.9c-11.3-0.7-21.5-2.8-30.8-6.4
		c-9.2-3.5-17-8.5-23.4-14.8c-6.3-6.3-10.5-13.9-12.5-22.7c-2-8.8-1.4-17.5,1.8-25.9c3.2-8.4,8.2-16.2,15-23.2
		c6.9-7,15.3-13.2,25.4-18.6c10-5.4,21-9.4,32.7-12c11.8-2.7,23.4-3.7,34.7-3.2c11.4,0.5,21.7,2.5,30.9,5.9
		c9.2,3.4,17.1,8.3,23.5,14.5c6.5,6.3,10.7,13.8,12.7,22.7c2,8.8,1.5,17.5-1.5,26.1c-3,8.6-8,16.4-14.9,23.6
		c-7,7.2-15.5,13.5-25.7,18.9C-119.9,1043.1-131,1047.1-143.1,1049.8z M-160.8,967.7c-12,2.7-20.6,7-25.8,13
		c-5.1,5.9-7.1,11.5-6,16.5c1.3,5.6,5.6,10.1,13.1,13.3c7.5,3.2,17,3.6,28.5,1c11.8-2.7,20.3-7,25.5-13.1c5.2-6.1,7.2-12,6-17.6
		c-1.1-5.1-5.3-9.2-12.5-12.4C-139.1,965.2-148.7,965-160.8,967.7z"/>
	<path id="XMLID_198_" d="M238.7,949.9l-39.4,8.9c-5.9,1.3-9.4-0.7-10.6-6l-9.7-43c-14.7,4.7-28.5,9-41.4,12.7
		c-12.9,3.8-25.9,7.4-38.9,10.9c-13,3.5-26.6,7-40.7,10.4c-14.1,3.5-30,7.2-47.7,11.2c-2.9,0.7-5,0.5-6.2-0.5c-1.2-1-2.1-3-2.8-5.9
		l-6.6-29.3c-1.1-4.8,0.9-7.8,6-8.9c16.9-3.8,32-7.3,45.5-10.5c13.5-3.2,26.6-6.3,39.2-9.5c12.7-3.1,25.7-6.6,39-10.3
		c13.4-3.7,28.4-8,45-12.9l-5.4-24.1c-0.9-4-3.2-5.6-7-4.8l-159.8,36c-2.1,0.5-4.1,0.5-5.9,0.1c-1.8-0.4-3-2.1-3.7-5.1l-7-30.9
		c-0.8-3.5-0.4-5.7,1-6.8c1.5-1,3.3-1.8,5.4-2.3l193.2-43.5c5.9-1.3,10.7-1.9,14.6-1.8c3.8,0.1,7,1.2,9.6,3.1c2.6,2,4.7,4.8,6.3,8.5
		c1.7,3.7,3.2,8.4,4.4,14l29.4,130.5C245.7,945.5,243.7,948.7,238.7,949.9z"/>
	<path id="XMLID_200_" d="M507.1,894l-181.9,41c-5.9,1.3-10.8,2-14.7,2.1c-3.9,0-7.2-0.7-9.8-2.2c-2.6-1.5-4.7-3.9-6.3-7.2
		c-1.6-3.3-3-7.8-4.3-13.4l-26.4-117.3c-2.5-11.2-2.1-19.1,1.2-23.7c3.3-4.5,10.5-8.1,21.5-10.5l179.9-40.5c2.9-0.7,5.1-0.6,6.6,0.2
		c1.4,0.8,2.5,2.7,3.2,5.6l6.2,27.3c0.7,2.9,0.5,5.1-0.5,6.4c-1,1.3-2.9,2.3-5.9,3l-147,33.1c-4.3,1-6,3.3-5.2,7.1l3.8,16.9
		l149.4-33.7c2.7-0.6,4.8-0.6,6.3,0c1.5,0.6,2.7,2.6,3.4,5.8l6.1,26.9c0.8,3.8,0.6,6.1-0.8,6.9c-1.4,0.9-3.2,1.6-5.6,2.1
		l-149.4,33.7l3.9,17.3c0.5,2.1,1.2,3.5,2.2,4.1c1,0.6,2.8,0.6,5.5,0l149-33.6c3.5-0.8,6-1,7.5-0.6c1.5,0.4,2.6,2.3,3.4,5.8l6,26.5
		c0.8,3.8,0.6,6.3-0.8,7.8C512.2,892.3,510.1,893.3,507.1,894z"/>
	<path id="XMLID_202_" d="M555.5,880.2c-3.6,1.4-6.1,2.1-7.5,2.1c-1.4,0-3.1-1.3-5.1-3.9l-15.6-26c-2.2-3.7-2.8-6.3-1.6-7.9
		c1.2-1.5,3.3-2.9,6.4-4.2c15.5-6,30-12,43.4-18c13.4-6,26.1-12,37.9-18c11.9-6,23.1-12.4,33.7-19c10.6-6.6,21-13.6,31.1-20.9
		c3.7-2.5,5.6-4.6,5.8-6.2c0.2-1.6-2.4-1.8-7.7-0.6L550.3,786c-4.6,1-7.3-0.7-8.4-5.3l-6.2-27.7c-0.7-2.9-0.7-5-0.1-6.1
		c0.6-1.1,2.4-2,5.3-2.7L728,702c13.1-3,22.9-3.1,29.2-0.5c6.4,2.6,10.3,7.5,11.9,14.4c1.9,8.6-0.2,18.2-6.4,28.9
		c-6.2,10.7-15.6,21.8-28.1,33.4c13.6,0.6,27.2,0.6,40.5,0.1c13.4-0.5,26-1.2,37.9-2.2c3.1-0.1,5,0.5,5.9,1.8
		c0.9,1.4,1.2,3.3,0.9,5.9l-3.5,29.5c-0.3,2.6-1,4.4-2.2,5.3c-1.2,1-3.4,1.6-6.8,1.7c-8.2,1-17.3,1.7-27.4,2
		c-10.1,0.3-20.7,0.4-31.8,0.4c-11.1,0-22.5-0.3-34.2-0.9c-11.7-0.6-23.1-1.5-34.3-2.6c-17.8,11-37.2,21.7-58.2,32.1
		C600.6,861.7,578.5,871.3,555.5,880.2z M699.5,689.9l-109.6,24.7c-2.1,0.5-4,0.5-5.7,0c-1.7-0.5-2.9-2.6-3.7-6.3l-6.1-26.9
		c-0.7-2.9-0.4-5,0.9-6.3c1.3-1.3,3-2.1,5.1-2.6L690,647.7c5.1-1.1,8.2,0.8,9.4,5.9l5.9,26.1C706.5,685.3,704.6,688.7,699.5,689.9z"
		/>
	<path id="XMLID_205_" d="M1080.8,756.3L837,811.2c-6.2,1.4-9.9-0.9-11.2-6.8l-6.1-26.9c-1.3-5.6,1.2-9.1,7.3-10.5l42.6-9.6
		l-16.4-72.7l-33.7,7.6c-6.2,1.4-9.9-0.9-11.2-6.8l-6-26.5c-0.7-3.2-0.4-5.7,1.1-7.4c1.4-1.7,3.5-2.9,6.2-3.5l226.1-51
		c5.9-1.3,9.5,1,10.8,6.8l6.2,27.3c1.2,5.4-1.1,8.7-7,10l-33.3,7.5l16.4,72.7l42.2-9.5c5.9-1.3,9.5,0.8,10.7,6.4l6.2,27.3
		C1089,751.5,1086.7,754.9,1080.8,756.3z M924.3,745.1l50.2-11.3l-16.4-72.7l-50.2,11.3L924.3,745.1z"/>
	<path id="XMLID_208_" d="M1315.5,704.2l-159.8,36c-6.4,1.4-11.7,2.2-15.9,2.3c-4.2,0.1-7.7-0.6-10.4-2.1c-2.7-1.5-5-4-6.8-7.5
		c-1.8-3.5-3.4-8.4-4.8-14.5l-29.5-130.9c-1.1-4.8,0.9-7.8,6-8.9l39.8-9c2.9-0.7,5.1-0.7,6.5,0c1.4,0.7,2.5,2.5,3.1,5.4l8,35.3
		l110.4-24.9l-8.3-36.9c-0.7-2.9-0.5-5.1,0.7-6.5c1.1-1.4,3-2.4,5.7-3l40.6-9.1c2.4-0.5,4.3-0.4,5.8,0.4c1.4,0.8,2.5,2.7,3.2,5.6
		l30.1,133.7c2.4,10.4,2,18.1-0.9,23C1335.9,697.5,1328.1,701.4,1315.5,704.2z M1272.2,630l-110.4,24.9l7,30.9
		c0.5,2.4,2.2,3.3,4.8,2.7l102.8-23.2c2.4-0.5,3.3-2,2.8-4.4L1272.2,630z"/>
	<path id="XMLID_211_" d="M1579.5,538.4c-4,6-8.5,12.1-13.6,18.5c-5,6.3-10.7,12.6-16.9,18.8c5.8,0.9,12.6,1.8,20.4,2.6
		c7.8,0.8,15.8,1.4,24,1.8c8.2,0.4,16.3,0.7,24.3,1.1c7.9,0.3,15,0.5,21.2,0.5c4.8,0,6.8,2.8,6.1,8.3l-5.9,33.8
		c-0.5,2.7-1.6,4.4-3.3,5.2c-1.7,0.8-4,1.3-7.1,1.4c-8.2-0.1-17.4-0.6-27.5-1.4c-10.2-0.8-20.7-1.8-31.5-3
		c-10.8-1.2-21.7-2.6-32.6-4.3c-10.9-1.6-21.4-3.5-31.5-5.8c-16.9,13.7-34.7,26.5-53.5,38.7c-18.8,12.1-37.6,22.5-56.5,31.3
		c-3.6,1.6-6,2.3-7.4,1.9c-1.4-0.4-2.7-1.6-4-3.5l-19-28.2c-1.3-2.2-1.9-4.1-1.7-5.5c0.2-1.5,2.1-3.1,5.6-5.1
		c12.3-6.4,25-13.6,38-21.4c13-7.8,25.5-16,37.5-24.5c12-8.5,23.4-17.1,34-26c10.7-8.9,19.9-17.6,27.9-26.1c4-4.6,5.5-7.6,4.3-9.2
		c-1.2-1.6-4.1-1.8-8.6-0.8l-125.3,28.2c-3,0.7-5,0.6-6.1-0.1c-1.2-0.7-2.1-2.7-2.8-5.9l-6.7-29.7c-0.7-2.9-0.6-4.9,0.1-5.9
		c0.8-1,2.6-1.9,5.6-2.5l181.5-40.9c13.7-3.1,23.8-3.2,30.3-0.3c6.6,2.9,10.6,7.8,12.2,14.8c1.2,5.4,0.7,12.1-1.4,20.1
		C1587.7,523,1584.2,530.8,1579.5,538.4z"/>
	<path id="XMLID_213_" d="M1894.5,572.9l-189.6,42.7c-12,2.7-20.6,2.3-25.6-1.2c-5-3.5-8.8-10.8-11.2-21.7l-23.2-102.8
		c-2.7-11.8-2.1-19.8,1.8-24c3.8-4.2,11.2-7.6,22.2-10.1l181.9-41c5.4-1.2,8.6,0.9,9.8,6.2l6.7,29.7c1.2,5.4-0.9,8.6-6.2,9.8
		l-151.8,34.2c-2.9,0.7-4.1,2.5-3.4,5.4l13.3,59c0.7,3.2,2.4,4.5,5.1,3.9l158.2-35.7c5.9-1.3,9.4,0.4,10.5,5.2l6.8,30.1
		c0.8,3.8,0.9,6.2,0.2,7.3C1899.2,571.3,1897.4,572.2,1894.5,572.9z"/>
	<path id="XMLID_215_" d="M2169.9,510.4l-39.4,8.9c-5.9,1.3-9.4-0.7-10.6-6l-22.7-100.8c-0.9-4-3.2-5.6-7-4.8l-155,34.9
		c-2.1,0.5-4.1,0.5-5.9,0.1c-1.8-0.4-3-2.1-3.7-5.1l-7.1-31.3c-0.8-3.7-0.5-6.1,0.9-7.2c1.5-1,3.2-1.8,5.4-2.3l188.4-42.5
		c5.9-1.3,10.7-1.9,14.6-1.8c3.8,0.1,7,1.2,9.6,3.1c2.6,2,4.7,4.8,6.3,8.5c1.7,3.7,3.2,8.4,4.4,14l27.6,122.5
		C2176.9,506,2175,509.3,2169.9,510.4z"/>
	<path id="XMLID_217_" d="M-1402.6,1531.9l-163.5,36.8c-6.7,1.5-12.1,2.3-16.3,2.4c-4.2,0.1-7.7-0.7-10.5-2.5c-2.8-1.8-5-4.4-6.7-8
		c-1.6-3.6-3.1-8.3-4.5-14.2l-21.7-96.4c-2.7-11.8-2.4-20.1,0.7-25.1c3.1-4.9,10.3-8.6,21.5-11.2l163.9-36.9
		c6.7-1.5,12.2-2.2,16.4-2.2c4.2,0,7.7,0.9,10.5,2.7c2.8,1.8,5,4.5,6.7,8.2c1.7,3.7,3.2,8.5,4.5,14.4l21.7,96.4
		c1.3,5.9,1.9,10.8,1.9,14.8c-0.1,4-1,7.3-2.8,9.9c-1.8,2.7-4.5,4.8-8,6.5C-1392.4,1529.2-1397,1530.6-1402.6,1531.9z
		 M-1452.8,1432.6c-0.7-3.2-2.6-4.5-5.5-3.8l-103.6,23.4c-3.5,0.8-4.8,2.9-4,6.4l12.3,54.6c0.7,3.2,2.8,4.4,6.3,3.6l103.2-23.3
		c1.9-0.4,3.1-0.9,3.7-1.5c0.6-0.6,0.6-2.2,0-4.8L-1452.8,1432.6z"/>
	<path id="XMLID_220_" d="M-1104.4,1465.5l-189.6,42.7c-5.6,1.3-10.3,1.8-14.2,1.7c-3.8-0.1-7-1-9.5-2.7c-2.5-1.7-4.6-4.3-6.2-7.9
		c-1.6-3.6-3.1-8.2-4.4-13.8l-27.3-121.3c-1.3-5.6,0.8-9,6.1-10.2l39.4-8.9c5.6-1.3,9.1,0.9,10.3,6.5l22.2,98.4
		c0.9,4,3.4,5.6,7.4,4.7l155.4-35c2.1-0.5,4.2-0.4,6.1,0.1c2,0.6,3.3,2.3,3.9,5.2l7.1,31.3c0.8,3.8,0.5,6.1-1.2,7
		C-1100.4,1464.4-1102.3,1465.1-1104.4,1465.5z"/>
	<path id="XMLID_222_" d="M-834.1,1322.3c2.7,11.8,2.4,23.4-0.8,34.8c-3.2,11.4-9,22.1-17.3,32c-8.3,9.9-19.1,18.7-32.5,26.3
		c-13.3,7.6-28.8,13.5-46.5,17.4c-19,4.3-36.2,5.9-51.4,4.8c-15.3-1.1-28.6-4.3-40-9.8c-11.4-5.5-20.6-12.8-27.8-22
		c-7.1-9.2-12-19.7-14.7-31.5c-2.6-11.5-2.6-23-0.1-34.4c2.5-11.4,7.7-22.1,15.6-32c7.9-9.9,18.5-18.7,31.8-26.4
		c13.3-7.6,29.5-13.6,48.5-17.9c17.7-4,34.2-5.4,49.4-4.4c15.3,1.1,28.8,4.3,40.6,9.6c11.8,5.4,21.5,12.6,29.4,21.7
		C-842.1,1299.7-836.8,1310.3-834.1,1322.3z M-890.1,1336.2c-2.5-11.2-10.1-19.6-22.5-25.1c-12.5-5.5-28-6.1-46.4-2
		c-19.8,4.5-33.6,11.7-41.5,21.8c-7.9,10.1-10.5,20.7-8,32c2.3,10.2,9.2,18,20.7,23.6c11.5,5.6,27.1,6.1,46.6,1.7
		c9.1-2.1,17.1-5,24-8.8c6.9-3.8,12.5-8,17-12.7c4.4-4.7,7.5-9.6,9.3-15C-889.2,1346.5-888.9,1341.3-890.1,1336.2z"/>
	<path id="XMLID_225_" d="M-543.3,1361.9l-194.4,43.8c-5.9,1.3-10.7,1.9-14.6,1.8c-3.8-0.1-7-1-9.4-2.5s-4.4-3.9-5.8-7.1
		c-1.4-3.2-2.7-7.2-3.8-12l-12.9-57.4c-1.1-5.1-1.7-9.3-1.8-12.7c-0.1-3.4,0.7-6.3,2.3-8.7c1.6-2.5,4-4.5,7.3-6.1
		c3.3-1.6,7.9-3,13.8-4.4l134.1-30.2c2.4-0.5,3.3-2.3,2.6-5.2l-4.4-19.7c-0.7-3.2-2.4-4.5-5.1-3.9l-153.8,34.7
		c-2.9,0.7-5.1,0.6-6.6-0.2c-1.4-0.8-2.5-2.8-3.3-6l-6.1-26.9c-1.1-5.1,1-8.2,6.3-9.4l183.9-41.5c12-2.7,20.2-2.5,24.6,0.6
		c4.4,3.1,7.6,9.5,9.8,19.1l13.6,60.2c1.2,5.4,1.8,9.8,1.9,13.3c0.1,3.5-0.6,6.4-2.1,8.7c-1.5,2.3-4,4.2-7.6,5.7
		c-3.6,1.5-8.3,2.9-14.2,4.3l-132.9,30c-2.7,0.6-3.7,2.2-3.1,4.9l4,17.7c0.7,2.9,2.5,4.1,5.4,3.4l162.3-36.6
		c2.9-0.7,5.2-0.7,6.7-0.2c1.5,0.5,2.7,2.5,3.5,6l6.1,26.9C-535.9,1357.4-537.9,1360.7-543.3,1361.9z"/>
	<path id="XMLID_227_" d="M-298.9,1169.2l-210.4,47.4c-5.6,1.3-9.1-1-10.4-6.9l-5-22.1c-1.3-5.9,1-9.5,6.8-10.8l210-47.3
		c5.9-1.3,9.5,1,10.8,6.8l5.1,22.5C-290.7,1164.4-293,1167.9-298.9,1169.2z M-362.2,1128.2l-104.4,23.5c-2.1,0.5-4.2,0.4-6.2-0.3
		c-2-0.7-3.4-2.9-4.2-6.6l-5.1-22.5c-0.8-3.7-0.5-6.3,1-7.6c1.5-1.3,3.4-2.2,5.5-2.7l104.4-23.5c5.9-1.3,9.5,1,10.8,6.8l4.9,21.7
		c0.7,3.2,0.7,5.7,0,7.4C-356.2,1126.1-358.4,1127.3-362.2,1128.2z M-372.3,1322.9c-11.8,2.7-23.3,3.6-34.6,2.9
		c-11.3-0.7-21.5-2.8-30.8-6.4c-9.2-3.5-17-8.5-23.4-14.8c-6.3-6.3-10.5-13.9-12.5-22.7s-1.4-17.5,1.8-25.9
		c3.2-8.4,8.2-16.2,15-23.2s15.3-13.2,25.4-18.6c10-5.4,21-9.4,32.7-12c11.8-2.7,23.4-3.7,34.7-3.2c11.4,0.5,21.7,2.5,30.9,5.9
		s17.1,8.3,23.5,14.5c6.5,6.3,10.7,13.8,12.7,22.7s1.5,17.5-1.5,26.1c-3,8.6-8,16.4-14.9,23.6c-7,7.2-15.5,13.5-25.7,18.9
		C-349.1,1316.1-360.3,1320.2-372.3,1322.9z M-390,1240.8c-12,2.7-20.6,7-25.8,13c-5.1,5.9-7.1,11.5-6,16.5
		c1.3,5.6,5.6,10.1,13.1,13.3c7.5,3.2,17,3.6,28.5,1c11.8-2.7,20.3-7,25.5-13.1c5.2-6.1,7.2-12,6-17.6c-1.1-5.1-5.3-9.2-12.5-12.4
		C-368.3,1238.3-377.9,1238.1-390,1240.8z"/>
	<path id="XMLID_232_" d="M9.4,1222.9l-39.4,8.9c-5.9,1.3-9.4-0.7-10.6-6l-9.7-43c-14.7,4.7-28.5,9-41.4,12.7
		c-12.9,3.8-25.9,7.4-38.9,10.9c-13,3.5-26.6,7-40.7,10.4c-14.1,3.5-30,7.2-47.7,11.2c-2.9,0.7-5,0.5-6.2-0.5c-1.2-1-2.1-3-2.8-5.9
		l-6.6-29.3c-1.1-4.8,0.9-7.8,6-8.9c16.9-3.8,32-7.3,45.5-10.5c13.5-3.2,26.6-6.3,39.2-9.5c12.7-3.1,25.7-6.6,39-10.3
		c13.4-3.7,28.4-8,45-12.9l-5.4-24.1c-0.9-4-3.2-5.6-7-4.8l-159.8,36c-2.1,0.5-4.1,0.5-5.9,0.1c-1.8-0.4-3-2.1-3.7-5.1l-7-30.9
		c-0.8-3.5-0.4-5.7,1-6.8c1.5-1,3.3-1.8,5.4-2.3l193.2-43.5c5.9-1.3,10.7-1.9,14.6-1.8c3.8,0.1,7,1.2,9.6,3.1c2.6,2,4.7,4.8,6.3,8.5
		c1.7,3.7,3.2,8.4,4.4,14l29.4,130.5C16.5,1218.6,14.5,1221.8,9.4,1222.9z"/>
	<path id="XMLID_234_" d="M277.9,1167.1l-181.9,41c-5.9,1.3-10.8,2-14.7,2.1c-3.9,0-7.2-0.7-9.8-2.2c-2.6-1.5-4.7-3.9-6.3-7.2
		c-1.6-3.3-3-7.8-4.3-13.4L34.5,1070c-2.5-11.2-2.1-19.1,1.2-23.7c3.3-4.5,10.5-8.1,21.5-10.5l179.9-40.5c2.9-0.7,5.1-0.6,6.6,0.2
		c1.4,0.8,2.5,2.7,3.2,5.6l6.2,27.3c0.7,3,0.5,5.1-0.4,6.4c-1,1.3-2.9,2.3-5.9,3l-147,33.1c-4.3,1-6,3.3-5.2,7.1l3.8,16.9
		l149.4-33.7c2.7-0.6,4.8-0.6,6.3,0c1.5,0.6,2.7,2.6,3.4,5.8l6.1,26.9c0.8,3.8,0.6,6.1-0.8,6.9c-1.4,0.9-3.2,1.6-5.6,2.1
		l-149.4,33.7l3.9,17.3c0.5,2.1,1.2,3.5,2.2,4.1c1,0.6,2.8,0.6,5.5,0l149-33.6c3.5-0.8,6-1,7.5-0.6c1.5,0.4,2.6,2.3,3.4,5.8l6,26.5
		c0.8,3.8,0.6,6.3-0.8,7.8C283,1165.4,280.9,1166.4,277.9,1167.1z"/>
	<path id="XMLID_236_" d="M326.3,1153.2c-3.6,1.4-6.1,2.1-7.5,2.1c-1.4,0-3.1-1.3-5.1-3.9l-15.6-26c-2.2-3.7-2.8-6.3-1.6-7.9
		c1.2-1.5,3.3-2.9,6.4-4.2c15.5-6,30-12,43.4-18c13.4-6,26.1-12,37.9-18c11.9-6,23.1-12.4,33.7-19c10.6-6.6,21-13.6,31.1-20.9
		c3.7-2.5,5.6-4.6,5.8-6.2c0.2-1.6-2.4-1.8-7.7-0.6L321.1,1059c-4.6,1-7.3-0.7-8.4-5.3l-6.2-27.7c-0.7-2.9-0.7-5-0.1-6.1
		c0.6-1.1,2.4-2,5.3-2.7l187.2-42.2c13.1-3,22.9-3.1,29.2-0.5c6.4,2.6,10.3,7.5,11.9,14.4c1.9,8.6-0.2,18.2-6.4,28.9
		c-6.2,10.7-15.6,21.8-28.1,33.4c13.6,0.6,27.2,0.6,40.5,0.1c13.4-0.5,26-1.2,37.9-2.2c3.1-0.1,5,0.5,5.9,1.8
		c0.9,1.4,1.2,3.3,0.9,5.9l-3.5,29.5c-0.3,2.6-1,4.4-2.2,5.3c-1.2,1-3.4,1.6-6.8,1.7c-8.2,1-17.4,1.7-27.4,2
		c-10.1,0.3-20.7,0.4-31.8,0.4c-11.1,0-22.5-0.3-34.2-0.9c-11.7-0.6-23.1-1.5-34.3-2.6c-17.8,11-37.2,21.7-58.2,32.1
		C371.3,1134.8,349.3,1144.4,326.3,1153.2z M470.3,962.9l-109.6,24.7c-2.1,0.5-4,0.5-5.7,0c-1.7-0.5-2.9-2.6-3.7-6.3l-6.1-26.9
		c-0.7-2.9-0.4-5,0.9-6.3c1.3-1.3,3-2.1,5.1-2.6l109.6-24.7c5.1-1.1,8.2,0.8,9.4,5.9l5.9,26.1C477.3,958.4,475.4,961.8,470.3,962.9z
		"/>
	<path id="XMLID_239_" d="M851.6,1029.4l-243.8,54.9c-6.2,1.4-9.9-0.9-11.2-6.8l-6.1-26.9c-1.3-5.6,1.2-9.1,7.3-10.5l42.6-9.6
		L624,957.8l-33.7,7.6c-6.2,1.4-9.9-0.9-11.2-6.8l-6-26.5c-0.7-3.2-0.4-5.7,1.1-7.4c1.4-1.7,3.5-2.9,6.2-3.5l226.1-51
		c5.9-1.3,9.5,1,10.8,6.8l6.2,27.3c1.2,5.4-1.1,8.7-7,10l-33.3,7.5l16.4,72.7l42.2-9.5c5.9-1.3,9.5,0.8,10.7,6.4l6.2,27.3
		C859.8,1024.5,857.5,1028,851.6,1029.4z M695.1,1018.2l50.2-11.3l-16.4-72.7l-50.2,11.3L695.1,1018.2z"/>
	<path id="XMLID_242_" d="M1086.3,977.3l-159.8,36c-6.4,1.4-11.7,2.2-15.9,2.3c-4.2,0.1-7.7-0.6-10.4-2.1c-2.7-1.5-5-4-6.8-7.5
		c-1.8-3.5-3.4-8.4-4.8-14.5l-29.5-130.9c-1.1-4.8,0.9-7.8,6-8.9l39.8-9c2.9-0.7,5.1-0.7,6.5,0c1.4,0.7,2.5,2.5,3.1,5.4l8,35.3
		l110.4-24.9l-8.3-36.9c-0.7-2.9-0.5-5.1,0.6-6.5c1.1-1.4,3-2.4,5.7-3l40.6-9.1c2.4-0.5,4.3-0.4,5.8,0.4c1.4,0.8,2.5,2.7,3.2,5.6
		l30.1,133.7c2.4,10.4,2,18.1-0.9,23C1106.7,970.6,1098.9,974.5,1086.3,977.3z M1043,903.1L932.6,928l7,30.9
		c0.5,2.4,2.2,3.3,4.8,2.7l102.8-23.2c2.4-0.5,3.3-2,2.8-4.4L1043,903.1z"/>
	<path id="XMLID_245_" d="M1350.2,811.5c-4,6-8.5,12.1-13.6,18.5c-5,6.3-10.7,12.6-16.9,18.8c5.8,0.9,12.6,1.8,20.4,2.6
		c7.8,0.8,15.8,1.4,24,1.8c8.2,0.4,16.3,0.7,24.3,1.1c7.9,0.3,15,0.5,21.2,0.5c4.8,0,6.8,2.8,6.1,8.3l-5.9,33.8
		c-0.5,2.7-1.6,4.4-3.3,5.2c-1.7,0.8-4,1.3-7.1,1.4c-8.2-0.1-17.4-0.6-27.5-1.4c-10.2-0.8-20.7-1.8-31.5-3
		c-10.8-1.2-21.7-2.6-32.6-4.3c-10.9-1.6-21.4-3.5-31.5-5.8c-16.9,13.7-34.7,26.5-53.5,38.7c-18.8,12.1-37.6,22.5-56.5,31.3
		c-3.6,1.6-6,2.3-7.4,1.9c-1.4-0.4-2.7-1.6-4-3.5l-19-28.2c-1.3-2.2-1.9-4.1-1.7-5.5c0.2-1.5,2.1-3.1,5.6-5.1
		c12.3-6.4,25-13.6,38-21.4c13-7.8,25.5-16,37.5-24.5c12-8.5,23.4-17.1,34-26c10.7-8.9,19.9-17.6,27.9-26.1c4-4.6,5.5-7.6,4.3-9.2
		c-1.2-1.6-4.1-1.8-8.6-0.8l-125.3,28.2c-2.9,0.7-5,0.6-6.1-0.1c-1.2-0.7-2.1-2.7-2.8-5.9l-6.7-29.7c-0.7-2.9-0.6-4.9,0.1-5.9
		c0.8-1,2.6-1.9,5.6-2.5l181.5-40.9c13.7-3.1,23.8-3.2,30.3-0.3c6.6,2.9,10.6,7.8,12.2,14.8c1.2,5.4,0.7,12.1-1.4,20.1
		C1358.5,796.1,1355,803.9,1350.2,811.5z"/>
	<path id="XMLID_247_" d="M1665.2,846l-189.6,42.7c-12,2.7-20.6,2.3-25.6-1.2c-5-3.5-8.8-10.8-11.2-21.7L1415.7,763
		c-2.7-11.8-2.1-19.8,1.8-24c3.8-4.2,11.2-7.6,22.2-10.1l181.9-41c5.4-1.2,8.6,0.9,9.8,6.2l6.7,29.7c1.2,5.4-0.9,8.6-6.2,9.8
		l-151.8,34.2c-2.9,0.7-4.1,2.5-3.4,5.4l13.3,59c0.7,3.2,2.4,4.5,5.1,3.9l158.2-35.7c5.9-1.3,9.4,0.4,10.5,5.2l6.8,30.1
		c0.8,3.8,0.9,6.2,0.2,7.3C1670,844.4,1668.2,845.3,1665.2,846z"/>
	<path id="XMLID_249_" d="M1940.7,783.5l-39.4,8.9c-5.9,1.3-9.4-0.7-10.6-6l-22.7-100.8c-0.9-4-3.2-5.6-7-4.8l-155,34.9
		c-2.1,0.5-4.1,0.5-5.9,0.1c-1.8-0.4-3-2.1-3.7-5.1l-7.1-31.3c-0.8-3.7-0.5-6.1,0.9-7.2c1.5-1,3.2-1.8,5.4-2.3l188.4-42.5
		c5.9-1.3,10.7-1.9,14.6-1.8c3.8,0.1,7,1.2,9.6,3.1c2.6,2,4.7,4.8,6.3,8.5c1.7,3.7,3.2,8.4,4.4,14l27.6,122.5
		C1947.7,779.1,1945.7,782.3,1940.7,783.5z"/>
	<path id="XMLID_251_" d="M1992,773.6c-3.5,1.9-5.9,2.7-7.2,2.5c-1.3-0.3-2.6-1.4-3.9-3.3l-21.3-31.1c-2.6-3.9-1.2-7.3,4-10.2
		c16.6-8.8,30.6-18.8,42-29.9c11.4-11.2,20.6-22.9,27.5-35.3c6.9-12.4,11.6-25.1,14.2-38.2c2.5-13.1,3.2-26.1,2-39.1
		c0-1.4,0.5-2.9,1.7-4.6c1.2-1.7,2.8-2.7,5-3.2l41.8-7.3c4.4-0.4,6.9,2.5,7.5,8.9c0.6,9.1,0.9,17.8,0.8,26
		c6.8,9.2,15.2,17.4,25.2,24.7c9.9,7.3,20.7,13.6,32.3,18.7c11.6,5.1,23.5,9,35.9,11.5c12.4,2.6,24.3,3.7,35.8,3.3
		c3.9,0,6.2,0.8,6.9,2.5c0.7,1.7,0.8,3.7,0.5,6l-5.9,35.5c-0.7,4.4-4.4,6.5-11.2,6.3c-11-0.1-22.4-1.3-34.4-3.6
		c-11.9-2.4-23.7-5.8-35.3-10.4c-11.6-4.6-22.7-10.1-33.5-16.5c-10.7-6.4-20.3-13.5-28.8-21.1c-8.6,21.6-21.3,41.8-38.1,60.5
		C2038.6,744.7,2017.5,760.5,1992,773.6z"/>
	<path id="XMLID_253_" d="M-1333.6,1738.6l-189.6,42.7c-5.6,1.3-10.3,1.8-14.2,1.7c-3.8-0.1-7-1-9.5-2.7c-2.5-1.7-4.6-4.3-6.2-7.9
		c-1.6-3.6-3.1-8.2-4.4-13.8l-27.3-121.3c-1.3-5.6,0.8-9,6.1-10.2l39.4-8.9c5.6-1.3,9.1,0.9,10.3,6.5l22.2,98.4
		c0.9,4,3.4,5.6,7.4,4.7l155.4-35c2.1-0.5,4.2-0.4,6.1,0.1c2,0.5,3.3,2.3,3.9,5.2l7.1,31.3c0.8,3.8,0.5,6.1-1.2,7
		C-1329.6,1737.4-1331.5,1738.1-1333.6,1738.6z"/>
	<path id="XMLID_255_" d="M-1063.3,1595.4c2.7,11.8,2.4,23.4-0.8,34.8c-3.2,11.4-9,22.1-17.3,32c-8.3,9.9-19.1,18.7-32.5,26.3
		c-13.3,7.6-28.8,13.5-46.5,17.4c-19,4.3-36.2,5.9-51.4,4.8c-15.3-1.1-28.6-4.3-40-9.8c-11.4-5.5-20.6-12.8-27.8-22
		c-7.1-9.2-12-19.7-14.7-31.5c-2.6-11.5-2.6-23-0.1-34.4c2.5-11.4,7.7-22.1,15.6-32c7.9-9.9,18.5-18.7,31.8-26.4
		c13.3-7.6,29.5-13.6,48.5-17.9c17.7-4,34.2-5.4,49.4-4.4c15.3,1.1,28.8,4.3,40.6,9.6c11.8,5.4,21.5,12.6,29.4,21.7
		C-1071.3,1572.8-1066,1583.4-1063.3,1595.4z M-1119.3,1609.3c-2.5-11.2-10-19.6-22.5-25.1c-12.5-5.5-28-6.1-46.4-2
		c-19.8,4.5-33.6,11.7-41.5,21.8c-7.9,10.1-10.5,20.7-8,32c2.3,10.2,9.2,18,20.7,23.6c11.5,5.6,27.1,6.1,46.6,1.7
		c9.1-2.1,17.1-5,24-8.8c6.9-3.8,12.5-8,17-12.7c4.4-4.7,7.5-9.6,9.3-15C-1118.4,1619.6-1118.1,1614.4-1119.3,1609.3z"/>
	<path id="XMLID_258_" d="M-772.5,1634.9l-194.4,43.8c-5.9,1.3-10.7,1.9-14.6,1.8c-3.8-0.1-7-1-9.4-2.5c-2.5-1.6-4.4-3.9-5.8-7.1
		c-1.4-3.2-2.7-7.2-3.8-12l-12.9-57.4c-1.1-5.1-1.7-9.3-1.8-12.7c-0.1-3.4,0.7-6.3,2.3-8.7c1.6-2.5,4-4.5,7.3-6.1
		c3.3-1.6,7.9-3,13.8-4.4l134.1-30.2c2.4-0.5,3.3-2.3,2.6-5.2l-4.4-19.7c-0.7-3.2-2.4-4.5-5.1-3.9l-153.8,34.7
		c-2.9,0.7-5.1,0.6-6.6-0.2c-1.4-0.8-2.5-2.8-3.3-6l-6.1-26.9c-1.1-5.1,1-8.2,6.3-9.4l183.9-41.5c12-2.7,20.2-2.5,24.6,0.6
		c4.4,3.1,7.6,9.5,9.8,19.1l13.6,60.2c1.2,5.4,1.8,9.8,1.9,13.3c0.1,3.5-0.6,6.4-2.1,8.7c-1.5,2.3-4,4.2-7.6,5.7
		c-3.6,1.5-8.3,2.9-14.2,4.3l-132.9,30c-2.7,0.6-3.7,2.2-3.1,4.9l4,17.7c0.7,2.9,2.5,4.1,5.4,3.4l162.3-36.6
		c2.9-0.7,5.2-0.7,6.7-0.2c1.5,0.5,2.7,2.5,3.5,6l6.1,26.9C-765.1,1630.5-767.2,1633.7-772.5,1634.9z"/>
	<path id="XMLID_260_" d="M-528.1,1442.3l-210.4,47.4c-5.6,1.3-9.1-1-10.4-6.9l-5-22.1c-1.3-5.9,1-9.5,6.8-10.8l210-47.3
		c5.9-1.3,9.5,1,10.8,6.8l5.1,22.5C-519.9,1437.5-522.2,1441-528.1,1442.3z M-591.4,1401.3l-104.4,23.5c-2.1,0.5-4.2,0.4-6.2-0.3
		c-2-0.7-3.4-2.9-4.2-6.6l-5.1-22.5c-0.8-3.7-0.5-6.3,1-7.6c1.5-1.3,3.4-2.2,5.5-2.7l104.4-23.5c5.9-1.3,9.5,1,10.8,6.8l4.9,21.7
		c0.7,3.2,0.7,5.7,0,7.4C-585.4,1399.1-587.6,1400.4-591.4,1401.3z M-601.5,1596c-11.8,2.7-23.3,3.6-34.6,2.9
		c-11.3-0.7-21.5-2.8-30.8-6.4c-9.2-3.5-17-8.5-23.4-14.8c-6.3-6.3-10.5-13.9-12.5-22.7s-1.4-17.5,1.8-25.9
		c3.2-8.4,8.2-16.2,15-23.2s15.3-13.2,25.4-18.6c10-5.4,21-9.4,32.7-12c11.8-2.7,23.4-3.7,34.7-3.2c11.4,0.5,21.7,2.5,30.9,5.9
		c9.2,3.4,17.1,8.3,23.5,14.5c6.5,6.3,10.7,13.8,12.7,22.7s1.5,17.5-1.5,26.1c-3,8.6-8,16.4-14.9,23.6c-7,7.2-15.5,13.5-25.7,18.9
		C-578.4,1589.2-589.5,1593.3-601.5,1596z M-619.2,1513.9c-12,2.7-20.6,7-25.8,13c-5.1,5.9-7.1,11.5-6,16.5
		c1.3,5.6,5.6,10.1,13.1,13.3c7.5,3.2,17,3.6,28.5,1c11.8-2.7,20.3-7,25.5-13.1c5.2-6.1,7.2-12,6-17.6c-1.1-5.1-5.3-9.2-12.5-12.4
		C-597.5,1511.4-607.1,1511.2-619.2,1513.9z"/>
	<path id="XMLID_265_" d="M-219.8,1496l-39.4,8.9c-5.9,1.3-9.4-0.7-10.6-6l-9.7-43c-14.7,4.7-28.5,9-41.4,12.7
		c-12.9,3.8-25.9,7.4-38.9,10.9c-13,3.5-26.6,7-40.7,10.4c-14.1,3.5-30,7.2-47.7,11.2c-2.9,0.7-5,0.5-6.2-0.5c-1.2-1-2.1-3-2.8-5.9
		l-6.6-29.3c-1.1-4.8,0.9-7.8,6-8.9c16.9-3.8,32-7.3,45.5-10.5c13.5-3.2,26.6-6.3,39.2-9.5c12.7-3.1,25.7-6.6,39-10.3
		c13.4-3.7,28.4-8,45-12.9l-5.4-24.1c-0.9-4-3.2-5.6-7-4.8l-159.8,36c-2.1,0.5-4.1,0.5-5.9,0.1c-1.8-0.4-3-2.1-3.7-5.1l-7-30.9
		c-0.8-3.5-0.4-5.7,1-6.8c1.5-1,3.2-1.8,5.4-2.3l193.2-43.5c5.9-1.3,10.7-1.9,14.6-1.8c3.8,0.1,7,1.2,9.6,3.1c2.6,2,4.7,4.8,6.3,8.5
		c1.7,3.7,3.2,8.4,4.4,14l29.4,130.5C-212.7,1491.6-214.7,1494.9-219.8,1496z"/>
	<path id="XMLID_267_" d="M48.7,1440.2l-181.9,41c-5.9,1.3-10.8,2-14.7,2.1c-3.9,0-7.2-0.7-9.8-2.2c-2.6-1.5-4.7-3.9-6.3-7.2
		c-1.6-3.3-3-7.8-4.3-13.4l-26.4-117.3c-2.5-11.2-2.1-19.1,1.2-23.7c3.3-4.5,10.5-8.1,21.5-10.5l179.9-40.5c2.9-0.7,5.1-0.6,6.6,0.2
		c1.4,0.8,2.5,2.7,3.2,5.6l6.2,27.3c0.7,2.9,0.5,5.1-0.4,6.4c-1,1.3-2.9,2.3-5.9,3l-147,33.1c-4.3,1-6,3.3-5.2,7.1l3.8,16.9
		l149.4-33.7c2.7-0.6,4.8-0.6,6.3,0c1.5,0.6,2.7,2.6,3.4,5.8l6.1,26.9c0.8,3.8,0.6,6.1-0.8,6.9c-1.4,0.9-3.2,1.6-5.6,2.1
		l-149.4,33.7l3.9,17.3c0.5,2.1,1.2,3.5,2.2,4.1c1,0.6,2.8,0.6,5.5,0l149-33.6c3.5-0.8,6-1,7.5-0.6c1.5,0.4,2.6,2.3,3.4,5.8l6,26.5
		c0.8,3.8,0.6,6.3-0.8,7.8C53.8,1438.5,51.6,1439.5,48.7,1440.2z"/>
	<path id="XMLID_269_" d="M97.1,1426.3c-3.6,1.4-6.1,2.1-7.5,2.1c-1.4,0-3.1-1.3-5.1-3.9l-15.6-26c-2.2-3.7-2.8-6.3-1.6-7.9
		c1.2-1.5,3.3-2.9,6.4-4.2c15.5-6,30-12,43.4-18c13.4-6,26.1-12,37.9-18c11.9-6,23.1-12.4,33.7-19c10.6-6.6,21-13.6,31.1-20.9
		c3.7-2.5,5.6-4.6,5.8-6.2c0.2-1.6-2.4-1.8-7.7-0.6l-126.1,28.4c-4.6,1-7.3-0.7-8.4-5.3l-6.2-27.7c-0.7-2.9-0.7-5-0.1-6.1
		c0.6-1.1,2.4-2,5.3-2.7l187.2-42.2c13.1-3,22.9-3.1,29.2-0.5c6.4,2.6,10.3,7.5,11.9,14.4c1.9,8.6-0.2,18.2-6.4,28.9
		c-6.2,10.7-15.6,21.8-28.1,33.4c13.6,0.6,27.2,0.6,40.5,0.1s26-1.2,37.9-2.2c3.1-0.1,5,0.5,5.9,1.8c0.9,1.4,1.2,3.3,0.9,5.9
		l-3.5,29.5c-0.3,2.6-1,4.4-2.2,5.3c-1.2,1-3.4,1.6-6.8,1.7c-8.2,1-17.3,1.7-27.4,2c-10.1,0.3-20.7,0.4-31.8,0.4
		c-11.1,0-22.5-0.3-34.2-0.9c-11.7-0.6-23.1-1.5-34.3-2.6c-17.8,11-37.2,21.7-58.2,32.1C142.1,1407.9,120.1,1417.5,97.1,1426.3z
		 M241.1,1236l-109.6,24.7c-2.1,0.5-4,0.5-5.7,0c-1.7-0.5-2.9-2.6-3.7-6.3l-6.1-26.9c-0.7-2.9-0.4-5,0.9-6.3c1.3-1.3,3-2.1,5.1-2.6
		l109.6-24.7c5.1-1.1,8.2,0.8,9.4,5.9l5.9,26.1C248.1,1231.5,246.2,1234.9,241.1,1236z"/>
	<path id="XMLID_272_" d="M622.4,1302.4l-243.8,54.9c-6.2,1.4-9.9-0.9-11.2-6.8l-6.1-26.9c-1.3-5.6,1.2-9.1,7.3-10.5l42.6-9.6
		l-16.4-72.7l-33.7,7.6c-6.2,1.4-9.9-0.9-11.2-6.8l-6-26.5c-0.7-3.2-0.4-5.7,1.1-7.4c1.4-1.7,3.5-2.9,6.2-3.5l226.1-51
		c5.9-1.3,9.5,1,10.8,6.8l6.2,27.3c1.2,5.4-1.1,8.7-7,10l-33.3,7.5l16.4,72.7l42.2-9.5c5.9-1.3,9.5,0.8,10.7,6.4l6.2,27.3
		C630.6,1297.6,628.3,1301.1,622.4,1302.4z M465.8,1291.3L516,1280l-16.4-72.7l-50.2,11.3L465.8,1291.3z"/>
	<path id="XMLID_275_" d="M857.1,1250.4l-159.8,36c-6.4,1.4-11.7,2.2-15.9,2.3c-4.2,0.1-7.7-0.6-10.4-2.1c-2.7-1.5-5-4-6.8-7.5
		c-1.8-3.5-3.4-8.4-4.8-14.5l-29.5-130.9c-1.1-4.8,0.9-7.8,6-8.9l39.8-9c2.9-0.7,5.1-0.7,6.5,0c1.4,0.7,2.5,2.5,3.1,5.4l8,35.3
		l110.4-24.9l-8.3-36.9c-0.7-2.9-0.5-5.1,0.6-6.5c1.1-1.4,3-2.4,5.7-3l40.6-9.1c2.4-0.5,4.3-0.4,5.8,0.4c1.4,0.8,2.5,2.7,3.2,5.6
		l30.1,133.7c2.4,10.4,2,18.1-0.9,23C877.5,1243.7,869.7,1247.5,857.1,1250.4z M813.8,1176.2L703.3,1201l7,30.9
		c0.5,2.4,2.2,3.3,4.8,2.7l102.8-23.2c2.4-0.5,3.3-2,2.8-4.4L813.8,1176.2z"/>
	<path id="XMLID_278_" d="M1121,1084.5c-4,6-8.5,12.1-13.6,18.5c-5,6.3-10.7,12.6-16.9,18.8c5.8,0.9,12.6,1.8,20.4,2.6
		c7.8,0.8,15.8,1.4,24,1.8c8.2,0.4,16.3,0.7,24.3,1.1c7.9,0.3,15,0.5,21.2,0.5c4.8,0,6.8,2.8,6.1,8.3l-5.9,33.8
		c-0.5,2.7-1.6,4.4-3.3,5.2c-1.7,0.8-4,1.3-7.1,1.4c-8.2-0.1-17.4-0.6-27.5-1.4c-10.2-0.8-20.7-1.8-31.5-3
		c-10.8-1.2-21.7-2.6-32.6-4.3c-10.9-1.6-21.4-3.5-31.5-5.8c-16.9,13.7-34.7,26.5-53.5,38.7c-18.8,12.1-37.6,22.5-56.5,31.3
		c-3.6,1.6-6,2.3-7.4,1.9c-1.4-0.4-2.7-1.6-4-3.5l-19-28.2c-1.3-2.2-1.9-4.1-1.7-5.5c0.2-1.5,2.1-3.1,5.6-5.1
		c12.3-6.4,25-13.6,38-21.4c13-7.8,25.5-16,37.5-24.5c12-8.5,23.4-17.1,34-26c10.7-8.9,19.9-17.6,27.9-26.1c4-4.6,5.5-7.6,4.3-9.2
		c-1.2-1.6-4.1-1.8-8.6-0.8l-125.3,28.2c-2.9,0.7-5,0.6-6.1-0.1c-1.2-0.7-2.1-2.7-2.8-5.9l-6.7-29.7c-0.7-2.9-0.6-4.9,0.1-5.9
		c0.8-1,2.6-1.9,5.6-2.5l181.5-40.9c13.7-3.1,23.8-3.2,30.3-0.3c6.6,2.9,10.6,7.8,12.2,14.8c1.2,5.4,0.7,12.1-1.4,20.1
		C1129.2,1069.2,1125.8,1077,1121,1084.5z"/>
	<path id="XMLID_280_" d="M1408.8,1005.8l-210.4,47.4c-5.6,1.3-9.1-1-10.4-6.9l-5-22.1c-1.3-5.9,1-9.5,6.8-10.8l210-47.3
		c5.9-1.3,9.5,1,10.8,6.8l5.1,22.5C1417,1001,1414.7,1004.4,1408.8,1005.8z M1345.5,964.7l-104.4,23.5c-2.1,0.5-4.2,0.4-6.2-0.3
		c-2-0.7-3.4-2.9-4.2-6.6l-5.1-22.5c-0.8-3.7-0.5-6.3,1-7.6c1.5-1.3,3.4-2.2,5.5-2.7l104.4-23.5c5.9-1.3,9.5,1,10.8,6.8l4.9,21.7
		c0.7,3.2,0.7,5.7,0,7.4C1351.5,962.6,1349.3,963.9,1345.5,964.7z M1335.4,1159.5c-11.8,2.7-23.3,3.6-34.6,2.9
		c-11.3-0.7-21.5-2.8-30.8-6.4c-9.2-3.5-17-8.5-23.4-14.8c-6.3-6.3-10.5-13.9-12.5-22.7s-1.4-17.5,1.8-25.9
		c3.2-8.4,8.2-16.2,15-23.2c6.9-7,15.3-13.2,25.4-18.6c10-5.4,21-9.4,32.7-12c11.8-2.7,23.4-3.7,34.7-3.2
		c11.4,0.5,21.7,2.5,30.9,5.9c9.2,3.4,17.1,8.3,23.5,14.5c6.5,6.3,10.7,13.8,12.7,22.7c2,8.8,1.5,17.5-1.5,26.1
		c-3,8.6-8,16.4-14.9,23.6c-7,7.2-15.5,13.5-25.7,18.9C1358.6,1152.7,1347.5,1156.7,1335.4,1159.5z M1317.8,1077.3
		c-12,2.7-20.6,7-25.8,13c-5.1,5.9-7.1,11.5-6,16.5c1.3,5.6,5.6,10.1,13.1,13.3c7.5,3.2,17,3.6,28.5,1c11.8-2.7,20.3-7,25.5-13.1
		c5.2-6.1,7.2-12,6-17.6c-1.1-5.1-5.3-9.2-12.5-12.4C1339.4,1074.9,1329.8,1074.6,1317.8,1077.3z"/>
	<path id="XMLID_285_" d="M1480.6,1114.5c-3.6,1.4-6.1,2.1-7.5,2.1c-1.4,0-3.1-1.3-5.1-3.9l-15.6-26c-2.2-3.7-2.8-6.3-1.6-7.9
		c1.2-1.5,3.3-2.9,6.4-4.2c15.5-6,30-12,43.4-18s26.1-12,37.9-18c11.9-6,23.1-12.4,33.7-19c10.6-6.6,21-13.6,31.1-20.9
		c3.7-2.5,5.6-4.6,5.8-6.2c0.2-1.6-2.4-1.8-7.7-0.6l-126.1,28.4c-4.6,1-7.3-0.7-8.4-5.3l-6.2-27.7c-0.7-2.9-0.7-5-0.1-6.1
		c0.6-1.1,2.4-2,5.3-2.7l187.2-42.2c13.1-3,22.9-3.1,29.2-0.5c6.4,2.6,10.3,7.5,11.9,14.4c1.9,8.6-0.2,18.2-6.4,28.9
		c-6.2,10.7-15.6,21.8-28.1,33.4c13.6,0.6,27.2,0.6,40.5,0.1c13.4-0.5,26-1.2,37.9-2.2c3.1-0.1,5,0.5,5.9,1.8
		c0.9,1.4,1.2,3.3,0.9,5.9l-3.5,29.5c-0.3,2.6-1,4.4-2.2,5.3c-1.2,1-3.4,1.6-6.8,1.7c-8.2,1-17.3,1.7-27.4,2
		c-10.1,0.3-20.7,0.4-31.8,0.4c-11.1,0-22.5-0.3-34.2-0.9c-11.7-0.6-23.1-1.5-34.3-2.6c-17.8,11-37.2,21.7-58.2,32.1
		C1525.6,1096,1503.6,1105.7,1480.6,1114.5z M1624.6,924.2L1515,948.9c-2.1,0.5-4,0.5-5.7,0c-1.7-0.5-2.9-2.6-3.7-6.3l-6.1-26.9
		c-0.7-2.9-0.4-5,0.9-6.3c1.3-1.3,3-2.1,5.1-2.6l109.6-24.7c5.1-1.1,8.2,0.8,9.4,5.9l5.9,26.1
		C1631.6,919.7,1629.7,923.1,1624.6,924.2z"/>
	<path id="XMLID_288_" d="M1762.8,1046.7c-3.5,1.9-5.9,2.7-7.2,2.5c-1.3-0.3-2.6-1.4-3.9-3.3l-21.3-31.1c-2.6-3.9-1.2-7.3,4-10.2
		c16.6-8.8,30.6-18.8,42-29.9c11.4-11.1,20.6-22.9,27.5-35.3c6.9-12.4,11.6-25.1,14.2-38.2c2.5-13.1,3.2-26.1,2-39.1
		c0-1.4,0.5-2.9,1.7-4.6c1.2-1.7,2.8-2.7,5-3.2l41.8-7.3c4.4-0.4,6.9,2.5,7.5,8.9c0.6,9.1,0.9,17.8,0.8,26
		c6.8,9.2,15.2,17.4,25.2,24.7c9.9,7.3,20.7,13.6,32.3,18.7c11.6,5.1,23.5,9,35.9,11.5c12.4,2.6,24.3,3.7,35.8,3.3
		c3.9,0,6.2,0.8,6.9,2.5c0.7,1.7,0.8,3.7,0.5,6l-5.9,35.5c-0.7,4.4-4.4,6.5-11.2,6.3c-11-0.1-22.4-1.3-34.4-3.6
		c-11.9-2.4-23.7-5.8-35.3-10.4c-11.6-4.6-22.7-10.1-33.5-16.5c-10.7-6.4-20.3-13.5-28.8-21.1c-8.6,21.6-21.3,41.8-38.1,60.5
		C1809.4,1017.7,1788.3,1033.6,1762.8,1046.7z"/>
	<path id="XMLID_290_" d="M2242.1,931.9l-163.5,36.8c-6.7,1.5-12.1,2.3-16.3,2.4s-7.7-0.7-10.5-2.5c-2.8-1.8-5-4.4-6.7-8
		c-1.6-3.6-3.1-8.3-4.5-14.2l-21.7-96.4c-2.7-11.8-2.4-20.1,0.7-25.1c3.1-4.9,10.3-8.6,21.5-11.2l163.9-36.9
		c6.7-1.5,12.2-2.2,16.4-2.2c4.2,0,7.7,0.9,10.5,2.7c2.8,1.8,5,4.5,6.7,8.2c1.7,3.7,3.2,8.5,4.5,14.4l21.7,96.4
		c1.3,5.9,1.9,10.8,1.9,14.8c-0.1,4-1,7.3-2.8,9.9c-1.8,2.7-4.5,4.8-8,6.5C2252.3,929.2,2247.7,930.6,2242.1,931.9z M2191.9,832.7
		c-0.7-3.2-2.6-4.5-5.5-3.8l-103.6,23.4c-3.5,0.8-4.8,2.9-4,6.4l12.3,54.6c0.7,3.2,2.8,4.4,6.3,3.6l103.2-23.3
		c1.9-0.4,3.1-0.9,3.7-1.5c0.6-0.6,0.6-2.2,0-4.8L2191.9,832.7z"/>
	<path id="XMLID_293_" d="M-1284.8,1953.3l-39.4,8.9c-5.9,1.3-9.4-0.7-10.6-6l-22.7-100.8c-0.9-4-3.2-5.6-7-4.8l-155,34.9
		c-2.1,0.5-4.1,0.5-5.9,0.1c-1.8-0.4-3-2.1-3.7-5.1l-7.1-31.3c-0.8-3.7-0.5-6.1,0.9-7.2c1.5-1,3.3-1.8,5.4-2.3l188.4-42.5
		c5.9-1.3,10.7-1.9,14.6-1.8c3.8,0.1,7,1.2,9.6,3.1c2.6,2,4.7,4.8,6.3,8.5c1.7,3.7,3.2,8.4,4.4,14l27.6,122.5
		C-1277.8,1948.9-1279.7,1952.1-1284.8,1953.3z"/>
	<path id="XMLID_295_" d="M-1233.5,1943.4c-3.5,1.9-5.9,2.7-7.2,2.5c-1.3-0.3-2.6-1.4-3.9-3.3l-21.3-31.1c-2.6-3.9-1.2-7.3,4-10.2
		c16.6-8.8,30.6-18.8,42-29.9c11.4-11.2,20.6-22.9,27.5-35.3c6.9-12.4,11.6-25.1,14.2-38.2c2.5-13.1,3.2-26.1,2-39.1
		c0-1.4,0.5-2.9,1.7-4.6c1.2-1.7,2.8-2.7,5-3.2l41.8-7.3c4.4-0.4,6.9,2.5,7.5,8.9c0.6,9.1,0.9,17.8,0.8,26
		c6.8,9.2,15.2,17.4,25.2,24.7c9.9,7.3,20.7,13.6,32.3,18.7c11.6,5.1,23.5,9,35.9,11.5c12.4,2.6,24.3,3.7,35.8,3.3
		c3.9,0,6.2,0.8,6.9,2.5c0.7,1.7,0.8,3.7,0.5,6l-5.9,35.5c-0.7,4.4-4.4,6.5-11.2,6.3c-11-0.1-22.4-1.3-34.4-3.6
		c-11.9-2.4-23.7-5.8-35.3-10.4s-22.7-10.1-33.5-16.5s-20.3-13.5-28.8-21.1c-8.6,21.6-21.3,41.8-38.1,60.5
		C-1186.9,1914.4-1208,1930.3-1233.5,1943.4z"/>
	<path id="XMLID_297_" d="M-754.2,1828.6l-163.5,36.8c-6.7,1.5-12.1,2.3-16.3,2.4c-4.2,0.1-7.7-0.7-10.5-2.5c-2.8-1.8-5-4.4-6.7-8
		c-1.6-3.6-3.1-8.3-4.5-14.2l-21.7-96.4c-2.7-11.8-2.4-20.1,0.7-25.1c3.1-4.9,10.3-8.6,21.5-11.2l163.9-36.9
		c6.7-1.5,12.2-2.2,16.4-2.2c4.2,0,7.7,0.9,10.5,2.7c2.8,1.8,5,4.5,6.7,8.2c1.7,3.7,3.2,8.5,4.5,14.4l21.7,96.4
		c1.3,5.9,1.9,10.8,1.9,14.8c-0.1,4-1,7.3-2.8,9.9c-1.8,2.7-4.5,4.8-8,6.5C-744,1825.9-748.6,1827.3-754.2,1828.6z M-804.4,1729.4
		c-0.7-3.2-2.6-4.5-5.5-3.8l-103.6,23.4c-3.5,0.8-4.8,2.9-4,6.4l12.3,54.6c0.7,3.2,2.8,4.4,6.3,3.6l103.2-23.3
		c1.9-0.4,3.1-0.9,3.7-1.5c0.6-0.6,0.6-2.2,0-4.8L-804.4,1729.4z"/>
	<path id="XMLID_300_" d="M-456,1762.2l-189.6,42.7c-5.6,1.3-10.3,1.8-14.2,1.7c-3.8-0.1-7-1-9.5-2.7c-2.5-1.7-4.6-4.3-6.2-7.9
		c-1.6-3.6-3.1-8.2-4.4-13.8l-27.3-121.3c-1.3-5.6,0.8-9,6.1-10.2l39.4-8.9c5.6-1.3,9.1,0.9,10.3,6.5l22.2,98.4
		c0.9,4,3.4,5.6,7.4,4.7l155.4-35c2.1-0.5,4.2-0.4,6.1,0.1c2,0.6,3.3,2.3,3.9,5.2l7.1,31.3c0.8,3.8,0.5,6.1-1.2,7
		C-452,1761.1-453.9,1761.8-456,1762.2z"/>
	<path id="XMLID_302_" d="M-185.7,1619c2.7,11.8,2.4,23.4-0.8,34.8c-3.2,11.4-9,22.1-17.3,32c-8.3,9.9-19.1,18.7-32.5,26.3
		c-13.3,7.6-28.8,13.5-46.5,17.4c-19,4.3-36.2,5.9-51.4,4.8c-15.3-1.1-28.6-4.3-40-9.8c-11.4-5.5-20.6-12.8-27.8-22
		c-7.1-9.2-12-19.7-14.7-31.5c-2.6-11.5-2.6-23-0.1-34.4c2.5-11.4,7.7-22.1,15.6-32c7.9-9.9,18.5-18.7,31.8-26.4
		c13.3-7.6,29.5-13.6,48.5-17.9c17.7-4,34.1-5.4,49.4-4.4c15.3,1.1,28.8,4.3,40.6,9.6c11.8,5.4,21.5,12.6,29.4,21.7
		C-193.7,1596.4-188.4,1607-185.7,1619z M-241.7,1632.9c-2.5-11.2-10-19.6-22.5-25.1c-12.5-5.5-28-6.1-46.4-2
		c-19.8,4.5-33.6,11.7-41.5,21.8c-7.9,10.1-10.5,20.7-8,32c2.3,10.2,9.2,18,20.7,23.6c11.5,5.6,27.1,6.1,46.6,1.7
		c9.1-2.1,17.1-5,24-8.8c6.9-3.8,12.5-8,17-12.7c4.4-4.7,7.5-9.6,9.3-15C-240.8,1643.2-240.5,1638-241.7,1632.9z"/>
	<path id="XMLID_305_" d="M105.1,1658.6l-194.4,43.8c-5.9,1.3-10.7,1.9-14.6,1.8c-3.8-0.1-7-1-9.4-2.5c-2.5-1.6-4.4-3.9-5.8-7.1
		c-1.4-3.2-2.7-7.2-3.8-12l-12.9-57.4c-1.1-5.1-1.7-9.3-1.8-12.7c-0.1-3.4,0.7-6.3,2.3-8.7s4-4.5,7.3-6.1c3.3-1.6,7.9-3,13.8-4.4
		L19.8,1563c2.4-0.5,3.3-2.3,2.6-5.2l-4.4-19.7c-0.7-3.2-2.4-4.5-5.1-3.9l-153.8,34.7c-2.9,0.7-5.1,0.6-6.6-0.2
		c-1.4-0.8-2.5-2.8-3.3-6l-6.1-26.9c-1.1-5.1,1-8.2,6.3-9.4l183.9-41.5c12-2.7,20.2-2.5,24.6,0.6c4.4,3.1,7.6,9.5,9.8,19.1
		l13.6,60.2c1.2,5.4,1.8,9.8,1.9,13.3c0.1,3.5-0.6,6.4-2.1,8.7c-1.5,2.3-4,4.2-7.6,5.7c-3.6,1.5-8.3,2.9-14.2,4.3l-132.9,30
		c-2.7,0.6-3.7,2.2-3.1,4.9l4,17.7c0.7,3,2.5,4.1,5.4,3.4l162.2-36.6c2.9-0.7,5.2-0.7,6.7-0.2c1.5,0.5,2.7,2.5,3.5,6l6.1,26.9
		C112.5,1654.1,110.4,1657.4,105.1,1658.6z"/>
	<path id="XMLID_307_" d="M349.5,1465.9L139,1513.3c-5.6,1.3-9.1-1-10.4-6.9l-5-22.1c-1.3-5.9,1-9.5,6.8-10.8l210-47.3
		c5.9-1.3,9.5,1,10.8,6.8l5.1,22.5C357.7,1461.1,355.4,1464.6,349.5,1465.9z M286.2,1424.9l-104.4,23.5c-2.1,0.5-4.2,0.4-6.2-0.3
		c-2-0.7-3.4-2.9-4.2-6.6l-5.1-22.5c-0.8-3.7-0.5-6.3,1-7.6c1.5-1.3,3.4-2.2,5.5-2.7l104.4-23.5c5.9-1.3,9.5,1,10.8,6.8l4.9,21.7
		c0.7,3.2,0.7,5.7,0,7.4C292.2,1422.8,290,1424.1,286.2,1424.9z M276.1,1619.6c-11.8,2.7-23.3,3.6-34.6,2.9
		c-11.3-0.7-21.5-2.8-30.8-6.4c-9.2-3.5-17-8.5-23.4-14.8c-6.3-6.3-10.5-13.9-12.5-22.7s-1.4-17.5,1.8-25.9
		c3.2-8.4,8.2-16.2,15-23.2c6.9-7,15.3-13.2,25.4-18.6c10-5.4,21-9.4,32.7-12c11.8-2.7,23.4-3.7,34.7-3.2
		c11.4,0.5,21.7,2.5,30.9,5.9c9.2,3.4,17.1,8.3,23.5,14.5c6.5,6.3,10.7,13.8,12.7,22.7s1.5,17.5-1.5,26.1c-3,8.6-8,16.4-14.9,23.6
		c-7,7.2-15.5,13.5-25.7,18.9C299.2,1612.9,288.1,1616.9,276.1,1619.6z M258.4,1537.5c-12,2.7-20.6,7-25.8,13
		c-5.1,5.9-7.1,11.5-6,16.5c1.3,5.6,5.6,10.1,13.1,13.3c7.5,3.2,17,3.6,28.5,1c11.8-2.7,20.3-7,25.5-13.1c5.2-6.1,7.2-12,6-17.6
		c-1.1-5.1-5.3-9.2-12.5-12.4C280.1,1535,270.5,1534.8,258.4,1537.5z"/>
	<path id="XMLID_312_" d="M657.8,1519.7l-39.4,8.9c-5.9,1.3-9.4-0.7-10.6-6l-9.7-43c-14.7,4.7-28.5,9-41.4,12.7
		c-12.9,3.8-25.9,7.4-38.9,10.9c-13,3.5-26.6,7-40.7,10.4c-14.1,3.5-30,7.2-47.7,11.2c-2.9,0.7-5,0.5-6.2-0.5c-1.2-1-2.1-3-2.8-5.9
		l-6.6-29.3c-1.1-4.8,0.9-7.8,6-8.9c16.9-3.8,32-7.3,45.5-10.5c13.5-3.2,26.6-6.3,39.2-9.5c12.7-3.1,25.7-6.6,39-10.3
		c13.4-3.7,28.4-8,45-12.9l-5.4-24.1c-0.9-4-3.2-5.6-7-4.8l-159.8,36c-2.1,0.5-4.1,0.5-5.9,0.1c-1.8-0.4-3-2.1-3.7-5.1l-7-30.9
		c-0.8-3.5-0.4-5.7,1-6.8c1.5-1,3.3-1.8,5.4-2.3l193.2-43.5c5.9-1.3,10.7-1.9,14.6-1.8c3.8,0.1,7,1.2,9.6,3.1c2.6,2,4.7,4.8,6.3,8.5
		c1.7,3.7,3.2,8.4,4.4,14l29.4,130.5C664.9,1515.3,662.9,1518.5,657.8,1519.7z"/>
	<path id="XMLID_314_" d="M926.3,1463.8l-181.9,41c-5.9,1.3-10.8,2-14.7,2.1c-3.9,0-7.2-0.7-9.8-2.2c-2.6-1.5-4.7-3.9-6.3-7.2
		c-1.6-3.3-3-7.8-4.3-13.4l-26.4-117.3c-2.5-11.2-2.1-19.1,1.2-23.7c3.3-4.5,10.5-8.1,21.5-10.5l179.9-40.5c2.9-0.7,5.1-0.6,6.6,0.2
		c1.4,0.8,2.5,2.7,3.2,5.6l6.2,27.3c0.7,2.9,0.5,5.1-0.4,6.4c-1,1.3-2.9,2.3-5.9,3l-147,33.1c-4.3,1-6,3.3-5.2,7.1l3.8,16.9
		l149.4-33.7c2.7-0.6,4.8-0.6,6.3,0c1.5,0.6,2.7,2.6,3.4,5.8l6.1,26.9c0.8,3.8,0.6,6.1-0.8,6.9c-1.4,0.9-3.2,1.6-5.6,2.1
		l-149.4,33.7l3.9,17.3c0.5,2.1,1.2,3.5,2.2,4.1c1,0.6,2.8,0.6,5.5,0l149-33.6c3.5-0.8,6-1,7.5-0.6c1.5,0.4,2.6,2.3,3.4,5.8l6,26.5
		c0.8,3.8,0.6,6.3-0.8,7.8C931.4,1462.1,929.2,1463.1,926.3,1463.8z"/>
	<path id="XMLID_316_" d="M974.7,1449.9c-3.6,1.4-6.1,2.1-7.5,2.1c-1.4,0-3.1-1.3-5.1-3.9l-15.6-26c-2.2-3.7-2.8-6.3-1.6-7.9
		c1.2-1.5,3.3-2.9,6.4-4.2c15.5-6,30-12,43.4-18c13.4-6,26.1-12,37.9-18c11.9-6,23.1-12.4,33.7-19c10.6-6.6,21-13.6,31.1-20.9
		c3.7-2.5,5.6-4.6,5.8-6.2c0.2-1.6-2.4-1.8-7.7-0.6l-126.1,28.4c-4.6,1-7.3-0.7-8.4-5.3l-6.2-27.7c-0.7-2.9-0.7-5-0.1-6.1
		c0.6-1.1,2.4-2,5.3-2.7l187.2-42.2c13.1-3,22.9-3.1,29.2-0.5c6.4,2.7,10.3,7.5,11.9,14.4c1.9,8.6-0.2,18.2-6.4,28.9
		c-6.2,10.7-15.6,21.8-28.1,33.4c13.6,0.6,27.2,0.6,40.5,0.1c13.4-0.5,26-1.2,37.9-2.2c3.1-0.1,5,0.5,5.9,1.8
		c0.9,1.4,1.2,3.3,0.9,5.9l-3.5,29.5c-0.3,2.6-1,4.4-2.2,5.3c-1.2,1-3.4,1.6-6.8,1.7c-8.2,1-17.3,1.7-27.4,2
		c-10.1,0.3-20.7,0.4-31.8,0.4c-11.1,0-22.5-0.3-34.2-0.9c-11.7-0.6-23.1-1.5-34.3-2.6c-17.8,11-37.2,21.7-58.2,32.1
		C1019.7,1431.5,997.7,1441.1,974.7,1449.9z M1118.7,1259.6l-109.6,24.7c-2.1,0.5-4,0.5-5.7,0c-1.7-0.5-2.9-2.6-3.7-6.3l-6.1-26.9
		c-0.7-2.9-0.4-5,0.9-6.3c1.3-1.3,3-2.1,5.1-2.6l109.6-24.7c5.1-1.1,8.2,0.8,9.4,5.9l5.9,26.1
		C1125.7,1255.1,1123.8,1258.5,1118.7,1259.6z"/>
	<path id="XMLID_319_" d="M1500,1326.1l-243.8,54.9c-6.2,1.4-9.9-0.9-11.2-6.8l-6.1-26.9c-1.3-5.6,1.2-9.1,7.3-10.5l42.6-9.6
		l-16.4-72.7l-33.7,7.6c-6.2,1.4-9.9-0.9-11.2-6.8l-6-26.5c-0.7-3.2-0.4-5.7,1.1-7.4c1.4-1.7,3.5-2.9,6.2-3.5l226.1-51
		c5.9-1.3,9.5,1,10.8,6.8l6.2,27.3c1.2,5.4-1.1,8.7-7,10l-33.3,7.5l16.4,72.7l42.2-9.5c5.9-1.3,9.5,0.8,10.7,6.4l6.2,27.3
		C1508.2,1321.3,1505.9,1324.7,1500,1326.1z M1343.4,1314.9l50.2-11.3l-16.4-72.7l-50.2,11.3L1343.4,1314.9z"/>
	<path id="XMLID_322_" d="M1734.7,1274l-159.8,36c-6.4,1.4-11.7,2.2-15.9,2.3c-4.2,0.1-7.7-0.6-10.4-2.1c-2.7-1.5-5-4-6.8-7.5
		c-1.8-3.5-3.4-8.4-4.8-14.5l-29.5-130.9c-1.1-4.8,0.9-7.8,6-8.9l39.8-9c2.9-0.7,5.1-0.7,6.5,0c1.4,0.7,2.5,2.5,3.1,5.4l8,35.3
		l110.4-24.9l-8.3-36.9c-0.7-2.9-0.5-5.1,0.6-6.5c1.1-1.4,3-2.4,5.7-3l40.6-9.1c2.4-0.5,4.3-0.4,5.8,0.4c1.4,0.8,2.5,2.7,3.2,5.6
		l30.1,133.7c2.4,10.4,2,18.1-0.9,23C1755.1,1267.3,1747.3,1271.2,1734.7,1274z M1691.4,1199.8l-110.4,24.9l7,30.9
		c0.5,2.4,2.2,3.3,4.8,2.7l102.8-23.2c2.4-0.5,3.3-2,2.8-4.4L1691.4,1199.8z"/>
	<path id="XMLID_325_" d="M1998.6,1108.2c-4,6-8.5,12.1-13.6,18.5c-5,6.3-10.7,12.6-16.9,18.8c5.8,0.9,12.6,1.8,20.4,2.6
		c7.8,0.8,15.8,1.4,24,1.8c8.2,0.4,16.3,0.7,24.3,1.1c7.9,0.3,15,0.5,21.2,0.5c4.8,0,6.8,2.8,6.1,8.3l-5.9,33.8
		c-0.5,2.7-1.6,4.4-3.3,5.2c-1.7,0.8-4,1.3-7.1,1.4c-8.2-0.1-17.4-0.6-27.5-1.4c-10.2-0.8-20.7-1.8-31.5-3
		c-10.8-1.2-21.7-2.6-32.6-4.3c-10.9-1.6-21.4-3.5-31.5-5.8c-16.9,13.7-34.7,26.5-53.5,38.7c-18.8,12.1-37.6,22.6-56.5,31.3
		c-3.6,1.6-6,2.3-7.4,1.9c-1.4-0.4-2.7-1.6-4-3.5l-19-28.2c-1.3-2.2-1.9-4.1-1.7-5.5c0.2-1.5,2.1-3.1,5.6-5.1
		c12.3-6.4,25-13.6,38-21.4c13-7.8,25.5-16,37.5-24.5c12-8.5,23.4-17.1,34-26c10.7-8.9,19.9-17.6,27.9-26.1c4-4.6,5.5-7.6,4.3-9.2
		c-1.2-1.6-4.1-1.8-8.6-0.8l-125.3,28.2c-3,0.7-5,0.6-6.1-0.1c-1.2-0.7-2.1-2.7-2.8-5.9l-6.7-29.7c-0.7-2.9-0.6-4.9,0.1-5.9
		c0.8-1,2.6-1.9,5.6-2.5l181.5-40.9c13.7-3.1,23.8-3.2,30.3-0.3c6.6,2.9,10.6,7.8,12.2,14.8c1.2,5.4,0.7,12.1-1.4,20.1
		C2006.8,1092.8,2003.4,1100.6,1998.6,1108.2z"/>
	<path id="XMLID_327_" d="M2313.6,1142.7l-189.6,42.7c-12,2.7-20.6,2.3-25.6-1.2c-5-3.5-8.8-10.8-11.2-21.7l-23.2-102.8
		c-2.7-11.8-2.1-19.8,1.8-24c3.8-4.2,11.2-7.6,22.2-10.1l181.9-41c5.4-1.2,8.6,0.9,9.8,6.2l6.7,29.7c1.2,5.4-0.9,8.6-6.2,9.8
		l-151.8,34.2c-2.9,0.7-4.1,2.5-3.4,5.4l13.3,59c0.7,3.2,2.4,4.5,5.1,3.9l158.2-35.7c5.9-1.3,9.4,0.4,10.5,5.2l6.8,30.1
		c0.8,3.8,0.9,6.2,0.2,7.3C2318.4,1141.1,2316.6,1142,2313.6,1142.7z"/>
</g>
</svg>
