<!-- Generator: Adobe Illustrator 19.0.0, SVG Export Plug-In  -->
<svg version="1.1"
	 xmlns="http://www.w3.org/2000/svg" xmlns:xlink="http://www.w3.org/1999/xlink" xmlns:a="http://ns.adobe.com/AdobeSVGViewerExtensions/3.0/"
	 x="0px" y="0px" width="333.979px" height="361.327px" viewBox="0 0 333.979 361.327"
	 style="enable-background:new 0 0 333.979 361.327;" xml:space="preserve">
<style type="text/css">
	.st0{fill:#B8A8A2;}
</style>
<defs>
</defs>
<path id="XMLID_15_" class="st0" d="M262.894,30.337c-29.436,62.159-111.628,4.497-145.161,64.546
	c-13.218,23.67-14.621,51.932-22.5,77.873c-7.819,25.744-22.277,49.441-41.592,68.171c-11.922,11.561-25.652,21.266-36.594,33.759
	S-2.03,303.567,0.447,319.989c2.664,17.656,17.486,31.815,34.391,37.562c16.905,5.748,35.491,4.25,52.847,0.06
	c33.432-8.071,68.083-31.708,69.817-66.057c0.6-11.885-2.88-23.558-4.243-35.379c-4.124-35.772,11.698-71.715,35.679-98.577
	s55.467-45.829,87.476-62.323c15.727-8.104,32.124-16.024,43.962-29.172c11.839-13.148,18.049-33.164,9.909-48.873
	c-7.661-14.785-27.814-21.529-42.831-14.334L262.894,30.337z"/>
</svg>