<!-- Generator: Adobe Illustrator 19.0.0, SVG Export Plug-In  -->
<svg version="1.1"
	 xmlns="http://www.w3.org/2000/svg" xmlns:xlink="http://www.w3.org/1999/xlink" xmlns:a="http://ns.adobe.com/AdobeSVGViewerExtensions/3.0/"
	 x="0px" y="0px" width="179.179px" height="98.89px" viewBox="0 0 179.179 98.89"
	 style="enable-background:new 0 0 179.179 98.89;" xml:space="preserve">
<style type="text/css">
	.st0{fill:#862B31;}
</style>
<defs>
</defs>
<path id="XMLID_16_" class="st0" d="M15.899,30.493c-2.983,0.835-5.015,3.538-6.659,6.163C2.12,48.024-2.08,61.928,1.05,74.971
	s15.035,24.394,28.44,23.904c14.717-0.539,25.288-13.581,35.828-23.865c16.154-15.761,37.656-27.328,60.22-26.823
	c8.561,0.192,17.028,2.094,25.591,2.107c8.564,0.012,17.726-2.247,23.3-8.748c4.85-5.656,6.131-14.132,3.169-20.969
	C171.69,6.94,153.849,4.284,139.004,3.582C115.286,2.46,91.568,1.338,67.851,0.216c-8.127-0.384-16.686-0.68-23.919,3.046
	C34.4,8.174,29.271,18.983,20.292,24.846L15.899,30.493z"/>
</svg>