<!-- Generator: Adobe Illustrator 19.0.0, SVG Export Plug-In  -->
<svg version="1.1"
	 xmlns="http://www.w3.org/2000/svg" xmlns:xlink="http://www.w3.org/1999/xlink" xmlns:a="http://ns.adobe.com/AdobeSVGViewerExtensions/3.0/"
	 x="0px" y="0px" width="307.436px" height="116.163px" viewBox="0 0 307.436 116.163"
	 style="enable-background:new 0 0 307.436 116.163;" xml:space="preserve">
<style type="text/css">
	.st0{fill:#B88476;}
</style>
<defs>
</defs>
<path id="XMLID_15_" class="st0" d="M297.056,18.627c-12.416-8.694-29.957-2.939-41.94,6.343
	c-11.983,9.281-21.617,21.841-35.214,28.541c-25.012,12.325-54.716,1.397-80.358-9.557c-11.568-4.942-23.135-9.939-34.703-14.88
	C88.125,21.932,70.142,14,58.794,0H0c21.093,17,41.298,37.036,47.474,63.183c3.386,14.335,2.635,30.702,12.172,41.927
	c10.972,12.914,31.196,13.215,47.153,7.512c15.957-5.704,29.923-16.09,45.916-21.692c41.792-14.64,91.668,5.059,130.565-16.105
	c10.152-5.524,19.156-14.086,22.712-25.083C309.548,38.745,306.524,25.256,297.056,18.627z"/>
</svg>