<!-- Generator: Adobe Illustrator 19.0.0, SVG Export Plug-In  -->
<svg version="1.1"
	 xmlns="http://www.w3.org/2000/svg" xmlns:xlink="http://www.w3.org/1999/xlink" xmlns:a="http://ns.adobe.com/AdobeSVGViewerExtensions/3.0/"
	 x="0px" y="0px" width="108.331px" height="102.425px" viewBox="0 0 108.331 102.425"
	 style="enable-background:new 0 0 108.331 102.425;" xml:space="preserve">
<style type="text/css">
	.st0{fill:#E5E7EC;}
</style>
<defs>
</defs>
<path id="XMLID_15_" class="st0" d="M19.496,53.151C11.906,46.146,5.867,37.47,1.934,27.92c-1.328-3.224-2.433-6.747-1.7-10.156
	c1.475-6.857,9.293-10.016,16.089-11.75c8.841-2.256,17.812-3.997,26.855-5.212c5.751-0.773,11.656-1.326,17.309-0.016
	S71.573,5.572,73.87,10.9c2.284,5.296,1.172,11.341,1.009,17.106c-0.326,11.499,3.454,23.072,10.505,32.161
	c7.997,10.309,20.436,18.355,22.699,31.204c0.411,2.332,0.413,4.87-0.791,6.909c-1.819,3.08-5.802,4.115-9.379,4.144
	c-12.033,0.097-22.515-7.695-31.983-15.122c-12.237-9.6-24.473-19.2-36.71-28.8L19.496,53.151z"/>
</svg>