<!-- Generator: Adobe Illustrator 19.0.0, SVG Export Plug-In  -->
<svg version="1.1"
	 xmlns="http://www.w3.org/2000/svg" xmlns:xlink="http://www.w3.org/1999/xlink" xmlns:a="http://ns.adobe.com/AdobeSVGViewerExtensions/3.0/"
	 x="0px" y="0px" width="585.992px" height="444.984px" viewBox="0 0 585.992 444.984"
	 style="enable-background:new 0 0 585.992 444.984;" xml:space="preserve">
<style type="text/css">
	.st0{fill:#3B4E58;}
</style>
<defs>
</defs>
<path id="XMLID_16_" class="st0" d="M584.895,153.404c-2.776-13.854-9.904-26.388-16.953-38.633
	C545.835,76.364,524.49,38.106,502.452,0h-75.877c-13.183,10.438-24.452,23.847-33.256,37.73
	c-16.223,25.581-28.129,53.955-46.892,77.736c-30.257,38.349-76.203,61.692-123.434,74.161
	c-47.231,12.468-96.394,15.127-145.073,19.192c-18.596,1.553-38.163,3.675-53.302,14.587C8.516,235.011,0.062,255.363,0,275.212
	c-0.053,17.065,5.656,34.098,15.983,47.684c20.978,27.6,57.227,38.131,91.301,44.519c34.074,6.388,70.163,10.93,98.139,31.404
	c11.221,8.212,20.622,18.671,31.62,27.18c14.717,11.387,32.774,19.232,51.381,18.979c18.606-0.253,37.554-9.555,46.66-25.783
	c13.434-23.944,2.985-54.071,7.751-81.109c1.395-7.914,4.107-15.543,7.301-22.918c27.657-63.866,94.974-108.452,164.569-109
	c21.391-0.168,46.028,2.305,60.879-13.092C585.392,182.906,587.671,167.257,584.895,153.404z"/>
</svg>