<!-- Generator: Adobe Illustrator 19.0.0, SVG Export Plug-In  -->
<svg version="1.1"
	 xmlns="http://www.w3.org/2000/svg" xmlns:xlink="http://www.w3.org/1999/xlink" xmlns:a="http://ns.adobe.com/AdobeSVGViewerExtensions/3.0/"
	 x="0px" y="0px" width="704.56px" height="389.637px" viewBox="0 0 704.56 389.637"
	 style="enable-background:new 0 0 704.56 389.637;" xml:space="preserve">
<style type="text/css">
	.st0{fill:#B8A8A2;}
</style>
<defs>
</defs>
<path id="XMLID_16_" class="st0" d="M0,389.637c45-3.445,90.788-9.163,132.847-24.913c45.85-17.17,87.21-45.721,123.864-78.179
	c28.119-24.9,55.59-53.038,91.126-65.2c28.966-9.913,60.658-8.109,90.753-13.734c18.694-3.494,36.78-9.839,54.717-16.16
	c21.794-7.681,43.62-15.361,65.414-23.042c41.872-14.756,84.536-29.924,119.78-56.922c13.857-10.614,27.432-25.498,25.947-42.889
	c-1.566-18.336-19.697-31.216-37.679-35.13c-17.982-3.913-36.717-0.532-55.017-2.467c-25.584-2.706-50.092-14-68.689-31H0V389.637z"
	/>
</svg>