<!-- Generator: Adobe Illustrator 19.0.0, SVG Export Plug-In  -->
<svg version="1.1"
	 xmlns="http://www.w3.org/2000/svg" xmlns:xlink="http://www.w3.org/1999/xlink" xmlns:a="http://ns.adobe.com/AdobeSVGViewerExtensions/3.0/"
	 x="0px" y="0px" width="58.82px" height="60.994px" viewBox="0 0 58.82 60.994" style="enable-background:new 0 0 58.82 60.994;"
	 xml:space="preserve">
<style type="text/css">
	.st0{fill:#862B31;}
</style>
<defs>
</defs>
<path id="XMLID_15_" class="st0" d="M31.755,3.722c-7.323,4.915-7.985,5.36-15.308,10.275c-4.127,2.77-8.363,5.649-11.692,10.473
	s-5.587,12.114-4.462,18.367c1.137,6.321,5.222,9.784,9.087,12.372c5.432,3.636,11.318,6.718,17.496,5.524
	c14.321-2.767,23.834-25.964,30.792-46.257c0.733-2.137,1.488-4.595,0.995-6.698c-0.418-1.784-1.609-2.726-2.727-3.499
	C50.373,0.435,43.89,2.206,37.871,0L31.755,3.722z"/>
</svg>