<!-- Generator: Adobe Illustrator 19.0.0, SVG Export Plug-In  -->
<svg version="1.1"
	 xmlns="http://www.w3.org/2000/svg" xmlns:xlink="http://www.w3.org/1999/xlink" xmlns:a="http://ns.adobe.com/AdobeSVGViewerExtensions/3.0/"
	 x="0px" y="0px" width="130.303px" height="123.207px" viewBox="0 0 130.303 123.207"
	 style="enable-background:new 0 0 130.303 123.207;" xml:space="preserve">
<style type="text/css">
	.st0{fill:#B2A26F;}
</style>
<defs>
</defs>
<path id="XMLID_15_" class="st0" d="M33.901,0C21.251,1.966,9.776,10.375,4.091,21.845S-1.337,47.54,4.759,58.797
	c5.107,9.43,13.725,16.396,22.363,22.752c18.305,13.468,37.74,25.401,58.034,35.631c8.198,4.133,17.682,8.059,26.284,4.851
	c10.199-3.803,14.433-15.722,16.912-26.32c1.379-5.897,2.608-12.007,1.553-17.97c-3.191-18.041-25.255-27.484-29.921-45.2
	c-1.379-5.235-1.169-11.033-4.02-15.634c-2.231-3.601-6.026-5.915-9.819-7.799C72.611,2.386,57.21-0.526,42.156,0.791L33.901,0z"/>
</svg>