<!-- Generator: Adobe Illustrator 19.0.0, SVG Export Plug-In  -->
<svg version="1.1"
	 xmlns="http://www.w3.org/2000/svg" xmlns:xlink="http://www.w3.org/1999/xlink" xmlns:a="http://ns.adobe.com/AdobeSVGViewerExtensions/3.0/"
	 x="0px" y="0px" width="65.378px" height="77.448px" viewBox="0 0 65.378 77.448"
	 style="enable-background:new 0 0 65.378 77.448;" xml:space="preserve">
<style type="text/css">
	.st0{fill:#765562;}
</style>
<defs>
</defs>
<path id="XMLID_15_" class="st0" d="M24.924,0.859c-0.135-1.771-7.062-0.462-8.245,0.862C11.158,7.899,5.537,14.233,2.359,21.885
	s-3.507,17.004,1.263,23.778c2.764,3.925,6.916,6.607,10.963,9.19c9.622,6.142,19.244,12.284,28.866,18.426
	c3.29,2.1,6.844,4.277,10.746,4.165c7.025-0.203,11.799-8.153,11.116-15.148c-0.682-6.995-5.182-12.972-9.786-18.282
	S45.899,33.405,43.76,26.71c-1.12-3.505-1.393-7.255-2.714-10.69s-4.125-6.699-7.795-6.96L24.924,0.859z"/>
</svg>