<!-- Generator: Adobe Illustrator 19.0.0, SVG Export Plug-In  -->
<svg version="1.1"
	 xmlns="http://www.w3.org/2000/svg" xmlns:xlink="http://www.w3.org/1999/xlink" xmlns:a="http://ns.adobe.com/AdobeSVGViewerExtensions/3.0/"
	 x="0px" y="0px" width="122.235px" height="70.913px" viewBox="0 0 122.235 70.913"
	 style="enable-background:new 0 0 122.235 70.913;" xml:space="preserve">
<style type="text/css">
	.st0{fill:#765562;}
</style>
<defs>
</defs>
<path id="XMLID_16_" class="st0" d="M78.173,1.276C61.991-1.973,45.306,1.594,29.188,5.15c-7.544,1.665-15.37,3.459-21.444,8.233
	s-9.818,13.459-6.511,20.441c3.63,7.665,13.321,9.793,20.28,14.642c7.853,5.472,12.566,14.856,20.97,19.437
	c11.948,6.512,26.632,1.213,39.142-4.142c7.213-3.088,14.426-6.175,21.639-9.263c4.383-1.876,8.863-3.815,12.342-7.075
	c7.655-7.174,8.565-19.885,3.331-28.977S103.385,3.892,92.942,2.89L78.173,1.276z"/>
</svg>