<!-- Generator: Adobe Illustrator 19.0.0, SVG Export Plug-In  -->
<svg version="1.1"
	 xmlns="http://www.w3.org/2000/svg" xmlns:xlink="http://www.w3.org/1999/xlink" xmlns:a="http://ns.adobe.com/AdobeSVGViewerExtensions/3.0/"
	 x="0px" y="0px" width="465.757px" height="271.906px" viewBox="0 0 465.757 271.906"
	 style="enable-background:new 0 0 465.757 271.906;" xml:space="preserve">
<style type="text/css">
	.st0{fill:#765562;}
</style>
<defs>
</defs>
<path id="XMLID_15_" class="st0" d="M465.757,53.694c-0.776,0.884-1.513,1.803-2.218,2.714
	c-13.095,16.916-25.558,36.883-46.058,42.995c-17.228,5.136-35.928-1.182-51.253-10.58c-26.883-16.485-47.117-41.958-72.973-60.01
	C263.342,7.926,226.129-2.278,189.746,0.428c-38.085,2.833-74.353,19.423-104.389,43.009
	c-30.036,23.586-54.205,53.928-74.564,86.239c-5.914,9.385-11.736,19.816-10.664,30.856c1.876,19.319,24.366,30.553,43.722,29.11
	c19.356-1.444,36.876-11.406,55.243-17.681c45.876-15.672,99.312-7.02,137.899,22.327c25.686,19.535,44.92,47.345,73.053,63.154
	c26.478,14.879,58.698,17.488,88.458,11.421c23.859-4.864,46.306-14.957,67.253-27.509V53.694z"/>
</svg>