<!-- Generator: Adobe Illustrator 19.0.0, SVG Export Plug-In  -->
<svg version="1.1"
	 xmlns="http://www.w3.org/2000/svg" xmlns:xlink="http://www.w3.org/1999/xlink" xmlns:a="http://ns.adobe.com/AdobeSVGViewerExtensions/3.0/"
	 x="0px" y="0px" width="424.914px" height="430.326px" viewBox="0 0 424.914 430.326"
	 style="enable-background:new 0 0 424.914 430.326;" xml:space="preserve">
<style type="text/css">
	.st0{fill:#223459;}
</style>
<defs>
</defs>
<path id="XMLID_16_" class="st0" d="M81.631,1.342c-82.29,3.292-70.575,89.47-65.092,146.636
	c2.734,28.501,0.003,38.998-6.732,66.039c-3.301,13.254-15.892,33.778-6.222,48.491c21.191,32.24,65.402,4.751,92.561-2.557
	c101.99-27.444,100.006,51.687,131.778,122.139c26.258,58.223,65.944,56.015,122.051,33.648c40.135-16,92.709-43.467,69.041-90.949
	c-24.415-48.983-92.955-65.979-142.04-74.037c-68.46-11.239-115.613-49.558-135.247-121.411
	C132.378,95.118,151.736-13.241,81.631,1.342z"/>
</svg>