<!-- Generator: Adobe Illustrator 19.0.0, SVG Export Plug-In  -->
<svg version="1.1"
	 xmlns="http://www.w3.org/2000/svg" xmlns:xlink="http://www.w3.org/1999/xlink" xmlns:a="http://ns.adobe.com/AdobeSVGViewerExtensions/3.0/"
	 x="0px" y="0px" width="445.767px" height="405.159px" viewBox="0 0 445.767 405.159"
	 style="enable-background:new 0 0 445.767 405.159;" xml:space="preserve">
<style type="text/css">
	.st0{fill:#E5E7EC;}
</style>
<defs>
</defs>
<path id="XMLID_15_" class="st0" d="M445.767,192.031c-42.943-12.062-84.645-28.594-114.8-60.586
	c-12.088-12.824-21.811-27.678-33.299-41.043c-10.086-11.734-21.493-22.272-33.373-32.185
	C225.063,25.481,177.231-1.517,126.16,0.066C78.372,1.548,32.337,30.102,9.777,72.256C0.51,89.572-4.652,111.642,5.742,128.305
	c11.456,18.366,36.391,22.266,58.028,21.652c40.274-1.143,81.441-11.358,120.213-0.4c19.447,5.496,37.05,16.058,53.83,27.319
	c34.383,23.074,68.997,54.084,73.099,95.287c2.964,29.774-10.536,61.929,2.898,88.665c13.525,26.918,47.568,34.988,77.452,38.796
	c18.117,2.309,36.294,4.146,54.506,5.533V192.031z"/>
</svg>