<!-- Generator: Adobe Illustrator 19.0.0, SVG Export Plug-In  -->
<svg version="1.1"
	 xmlns="http://www.w3.org/2000/svg" xmlns:xlink="http://www.w3.org/1999/xlink" xmlns:a="http://ns.adobe.com/AdobeSVGViewerExtensions/3.0/"
	 x="0px" y="0px" width="992px" height="507.959px" viewBox="0 0 992 507.959" style="enable-background:new 0 0 992 507.959;"
	 xml:space="preserve">
<style type="text/css">
	.st0{fill:#B2A26F;}
</style>
<defs>
</defs>
<path id="XMLID_15_" class="st0" d="M992,233.928c-7.601-5.599-16.639-9.66-25.012-14.228
	c-28.066-15.311-50.885-38.487-73.261-61.322c-36.737-37.492-73.474-74.984-110.212-112.476
	c-14.791-15.095-30.115-30.561-49.558-38.843c-26.148-11.138-56.343-7.716-83.479,0.732c-29.522,9.191-57.252,24.104-81.195,43.668
	c-31.311,25.583-55.682,58.536-84.613,86.782c-40.356,39.4-89.001,69.106-137.651,97.64c-23.546,13.81-48.489,27.811-75.776,28.55
	c-25.196,0.682-50.321-10.117-75.095-5.479c-28.52,5.339-49.151,29.454-74.008,44.422C85.583,325.389,37.779,324.836,0,305.592
	v202.367h992V233.928z"/>
</svg>