<!-- Generator: Adobe Illustrator 19.0.0, SVG Export Plug-In  -->
<svg version="1.1"
	 xmlns="http://www.w3.org/2000/svg" xmlns:xlink="http://www.w3.org/1999/xlink" xmlns:a="http://ns.adobe.com/AdobeSVGViewerExtensions/3.0/"
	 x="0px" y="0px" width="143.377px" height="98.547px" viewBox="0 0 143.377 98.547"
	 style="enable-background:new 0 0 143.377 98.547;" xml:space="preserve">
<style type="text/css">
	.st0{fill:#876D39;}
</style>
<defs>
</defs>
<path id="XMLID_15_" class="st0" d="M143.377,6.637c-17.654,9.422-39.08,11.97-58.203,5.904C70.314,7.828,56.042-1.667,40.571,0.253
	c-8.152,1.012-15.554,5.154-22.498,9.543c-6.976,4.409-14.138,9.659-16.897,17.436c-2.807,7.913-0.31,16.956,4.565,23.792
	c4.875,6.836,11.85,11.849,18.848,16.487c10.104,6.697,20.541,12.891,31.259,18.551C69.211,93.12,83.76,99.495,98.834,98.431
	c8.398-0.593,16.506-3.499,23.937-7.455c7.705-4.102,14.636-9.546,20.606-15.916V6.637z"/>
</svg>