<!-- Generator: Adobe Illustrator 19.0.0, SVG Export Plug-In  -->
<svg version="1.1"
	 xmlns="http://www.w3.org/2000/svg" xmlns:xlink="http://www.w3.org/1999/xlink" xmlns:a="http://ns.adobe.com/AdobeSVGViewerExtensions/3.0/"
	 x="0px" y="0px" width="123.052px" height="49.279px" viewBox="0 0 123.052 49.279"
	 style="enable-background:new 0 0 123.052 49.279;" xml:space="preserve">
<style type="text/css">
	.st0{fill:#E5E7EC;}
</style>
<defs>
</defs>
<path id="XMLID_15_" class="st0" d="M46.552,0c-9.568,1.628-19.301,3.309-27.96,7.692S2.356,19.655,0.411,29.163
	c-0.99,4.84-0.289,10.34,3.149,13.888c4.57,4.717,12.105,4.502,18.607,3.569c16.711-2.398,33.182-7.328,50.063-7.128
	c12.26,0.145,24.48,3.051,35.492,8.442c1.442,0.706,2.964,1.474,4.562,1.326c1.613-0.149,2.99-1.21,4.144-2.346
	c8.855-8.716,8.826-24.785-0.059-33.47C102.376-0.235,78.322,7.897,60.231,0.435L46.552,0z"/>
</svg>