<!-- Generator: Adobe Illustrator 19.0.0, SVG Export Plug-In  -->
<svg version="1.1"
	 xmlns="http://www.w3.org/2000/svg" xmlns:xlink="http://www.w3.org/1999/xlink" xmlns:a="http://ns.adobe.com/AdobeSVGViewerExtensions/3.0/"
	 x="0px" y="0px" width="499.554px" height="238.804px" viewBox="0 0 499.554 238.804"
	 style="enable-background:new 0 0 499.554 238.804;" xml:space="preserve">
<style type="text/css">
	.st0{fill:#131316;}
</style>
<defs>
</defs>
<path id="XMLID_15_" class="st0" d="M498.501,238.804c-11.184-23.367-26.314-45.09-48.415-58.055
	c-13.039-7.649-29.298-13.209-35.142-27.151c-8.209-19.585,10.264-40.154,29.075-50.009c18.81-9.855,41.41-17.02,51.276-35.825
	c9.873-18.82,1.701-43.857-15.397-56.48c-17.098-12.623-40.72-13.988-60.926-7.399S381.556,24.103,366.74,39.34
	c-16.203,16.664-30.273,35.687-49.04,49.4c-26.251,19.182-60.937,26.346-92.64,19.134c-30.609-6.964-58.184-26.466-89.543-27.894
	c-20.544-0.935-40.817,6.163-58.489,16.682c-36.772,21.888-63.93,59.338-73.309,101.092c-3.021,13.451-4.173,27.286-3.562,41.05
	H498.501z"/>
</svg>