<!-- Generator: Adobe Illustrator 19.0.0, SVG Export Plug-In  -->
<svg version="1.1"
	 xmlns="http://www.w3.org/2000/svg" xmlns:xlink="http://www.w3.org/1999/xlink" xmlns:a="http://ns.adobe.com/AdobeSVGViewerExtensions/3.0/"
	 x="0px" y="0px" width="535.549px" height="499.47px" viewBox="0 0 535.549 499.47"
	 style="enable-background:new 0 0 535.549 499.47;" xml:space="preserve">
<style type="text/css">
	.st0{fill:#555D4F;}
</style>
<defs>
</defs>
<path id="XMLID_16_" class="st0" d="M535.409,180.031c-1.226-15.831-10.635-29.719-20.157-42.425
	C483.319,95,445.112,55.111,396.487,33.417c-28.153-12.56-58.717-18.544-88.976-24.433c-27.94-5.438-56.334-10.902-84.682-8.328
	c-35.722,3.243-68.889,18.969-102.425,31.693C83.64,46.297,45.587,56.843,6.888,63.807C4.505,64.235,2.222,64.516,0,64.716v331.31
	c5.654,5.683,10.883,11.762,15.479,18.434c9.031,13.112,15.22,27.982,23.887,41.338c18.807,28.979,54.155,50.765,87.441,41.518
	c27.908-7.753,46.183-34.297,58.42-60.55s21.435-54.901,41.461-75.828c32.3-33.754,83.732-38.802,130.437-39.95
	c19.152-0.47,38.835-0.738,56.578-7.963c13.985-5.695,25.919-15.388,37.44-25.15c16.324-13.832,32.289-28.086,47.874-42.745
	C517.777,227.486,537.398,205.71,535.409,180.031z"/>
</svg>