<!-- Generator: Adobe Illustrator 19.0.0, SVG Export Plug-In  -->
<svg version="1.1"
	 xmlns="http://www.w3.org/2000/svg" xmlns:xlink="http://www.w3.org/1999/xlink" xmlns:a="http://ns.adobe.com/AdobeSVGViewerExtensions/3.0/"
	 x="0px" y="0px" width="224.376px" height="340.105px" viewBox="0 0 224.376 340.105"
	 style="enable-background:new 0 0 224.376 340.105;" xml:space="preserve">
<style type="text/css">
	.st0{fill:#862B31;}
</style>
<defs>
</defs>
<path id="XMLID_18_" class="st0" d="M219.647,157.017c-5.365-5.357-13.736-5.831-20.828-8.512
	c-26.221-9.913-32.447-48.483-58.82-57.984c-16.565-5.968-37.104,1.468-51.378-8.842C72.437,69.988,76.139,44.914,67.272,27.025
	C59.667,11.681,42.7,2.599,25.698,0.548C17.128-0.485,8.523,0.019,0,1.421v228.069c8.583,10.258,16.324,21.221,23.098,32.754
	c9.034,15.38,16.396,31.799,26.907,46.21s24.93,27.017,42.407,30.585c15.164,3.096,30.967-0.932,45.098-7.245
	c19.633-8.771,38.239-23.413,44.368-44.023c3.346-11.252,2.691-23.251,4.015-34.915c2.135-18.81,9.595-36.985,21.291-51.87
	c5.197-6.615,11.286-12.714,14.761-20.375C225.42,172.949,225.6,162.961,219.647,157.017z M127.649,157.314
	c-2.835,0.077-6.346-0.568-7.935,1.782c-1.297,1.918-0.255,4.529,1.05,6.441c3.412,5.001,8.417,8.719,12.033,13.575
	c3.615,4.856,5.639,11.835,2.275,16.869c-3.961,5.926-12.575,5.759-19.651,4.896c-17.375-2.119-36.26-5.241-47.978-18.242
	c-4.486-4.977-7.322-13.319-2.484-17.955c5.516-5.285,15.442-0.653,21.921-4.699c-0.912-12.031-14.41-18.143-22.852-26.764
	c-3.283-3.353-6.05-8.111-4.56-12.561c2.26-6.752,11.581-7.118,18.608-5.973c10.562,1.721,21.044,3.931,31.401,6.623l10.075,3.108
	c8.654,0.473,17.484,5.649,20.083,13.917C142.234,146.599,136.313,157.078,127.649,157.314z"/>
</svg>