<!-- Generator: Adobe Illustrator 19.0.0, SVG Export Plug-In  -->
<svg version="1.1"
	 xmlns="http://www.w3.org/2000/svg" xmlns:xlink="http://www.w3.org/1999/xlink" xmlns:a="http://ns.adobe.com/AdobeSVGViewerExtensions/3.0/"
	 x="0px" y="0px" width="591.396px" height="312.741px" viewBox="0 0 591.396 312.741"
	 style="enable-background:new 0 0 591.396 312.741;" xml:space="preserve">
<style type="text/css">
	.st0{fill:#AD514F;}
</style>
<defs>
</defs>
<path id="XMLID_15_" class="st0" d="M70.436,105.285c27.793-13.652,60.735-20.618,89.81-9.967
	c41.294,15.127,68.368,62.778,112.231,65.952c27.738,2.007,52.887-14.93,75.507-31.11c48.696-34.833,97.392-69.665,146.088-104.498
	c17.665-12.636,36.938-25.808,58.656-25.66c21.719,0.148,44.245,20.889,37.427,41.51c-5.392,16.307-24.323,22.842-40.35,29.016
	C463.541,103.759,405.329,183.015,348.76,256.13c-13.203,17.065-27.065,34.427-45.835,45.067
	c-32.687,18.528-74.522,12.892-108.204-3.759c-33.682-16.651-61.426-42.917-90.406-66.832s-72.038-16.869-98.036-52.999
	S41.602,119.449,70.436,105.285z"/>
</svg>