<?xml version="1.0" encoding="utf-8"?>
<!-- Generator: Adobe Illustrator 19.0.0, SVG Export Plug-In . SVG Version: 6.00 Build 0)  -->
<svg version="1.1" id="Layer_1" xmlns="http://www.w3.org/2000/svg" xmlns:xlink="http://www.w3.org/1999/xlink" x="0px" y="0px"
	 viewBox="0 0 210 210" style="enable-background:new 0 0 210 210;" xml:space="preserve">
<style type="text/css">
	.st0{fill:#549AE5;}
</style>
<path id="XMLID_6_" class="st0" d="M204.2,162h-4.8c0.7,3,1.4,6.3,2.5,9.4c0.7,2,2.1,3.3,3.9,2.8c2.3-0.6,1-2.7,0.6-3.9
	C205.5,167.5,204.8,164,204.2,162z"/>
<g id="XMLID_1_">
	<path id="XMLID_3_" class="st0" d="M68.9,124.2c2.4,10.4,4.1,20.8,5.9,31.8h5c-0.3-2-0.5-3.1-0.7-4.6c-3.3-20.9-8.5-41.1-17.7-60.1
		C47.2,61.7,28.8,34.5,14.5,5c-0.6-1.2-1.2-2.8-2.8-2.8c-1.4,0.1-8.3,7-8.4,8.2c-0.1,1.2,0.8,1.4,1.6,1.8c5.1,2.4,8.5,6.9,11.8,11.3
		c7.1,9.4,13.4,19.6,19.7,29.7C50.1,75.4,62.9,98.2,68.9,124.2z"/>
	<path id="XMLID_5_" class="st0" d="M198.6,129.3c-2.6-12.4-6.1-24.4-14-34.3c-9.1-11.4-21.3-11.9-31.1-1.1
		c-6.1,6.7-10.3,14.6-13.3,23.2c-4,11.7-5.4,24-7.4,36.2c-2,12-4.7,23.9-12.1,33.9c-8.9,12.1-20.2,12.5-29.1,0.4
		C85.8,179.8,82.9,171,81,162h-5.1c0.5,2,0.9,4.5,1.5,6.9c2.5,11.2,6.3,21.9,14.4,30.3c8.7,9.2,18.5,9.5,27.8,0.9
		c7.3-6.7,11.5-15.4,15-24.7c5.4-14.4,6-29.8,9.2-44.7c2.2-10.4,5.6-20.3,12.7-28.3c7.8-8.7,18-8.4,25.3,0.7
		c2.4,2.9,4.2,6.2,5.8,9.7c5.7,12.1,6.9,25.6,9.6,38.5c0.3,1.5,0.6,2.7,0.9,4.7h4.8C201.5,147,200.4,138,198.6,129.3z"/>
</g>
</svg>
